{"glyphs":{"0":{"ha":550,"x_min":51,"x_max":499,"o":"m 275 -18 q 159 10 210 -17 q 80 96 108 38 q 51 250 51 154 l 51 592 q 115 772 51 714 q 278 831 179 831 q 436 772 374 831 q 499 592 499 714 l 499 251 q 470 94 499 154 q 391 8 442 35 q 275 -18 340 -18 m 275 63 q 340 94 314 63 q 367 185 367 125 l 367 626 q 340 719 367 688 q 275 750 313 750 q 210 719 236 750 q 183 626 183 688 l 183 185 q 210 94 183 125 q 275 63 236 63 z "},"1":{"ha":361,"x_min":21,"x_max":292,"o":"m 158 0 l 158 651 l 21 651 l 21 728 l 72 728 q 138 753 115 732 q 176 821 161 774 l 292 821 l 292 0 l 158 0 z "},"2":{"ha":532,"x_min":44,"x_max":500,"o":"m 44 0 q 44 81 44 42 q 44 163 44 121 q 63 278 44 236 q 120 349 82 321 q 217 406 158 376 q 296 454 265 429 q 342 516 326 479 q 357 607 357 553 q 337 698 357 667 q 268 729 317 729 q 201 695 222 729 q 179 593 179 661 l 179 532 l 47 532 l 47 628 q 104 776 47 728 q 269 825 161 825 q 403 801 354 825 q 474 728 453 778 q 494 601 494 679 q 460 444 494 506 q 350 342 425 383 q 281 306 313 324 q 227 264 250 288 q 197 204 204 240 q 186 159 190 182 q 181 110 182 136 l 500 110 l 500 0 l 44 0 z "},"3":{"ha":538,"x_min":38,"x_max":494,"o":"m 265 -10 q 135 15 186 -10 q 61 86 85 40 q 38 193 38 132 l 38 283 l 171 283 l 171 225 q 193 123 171 158 q 264 86 215 88 q 332 118 308 86 q 356 203 356 150 l 356 282 q 321 358 356 333 q 224 383 286 382 l 153 383 l 153 461 l 225 461 q 279 469 254 461 q 321 494 304 478 q 344 528 338 510 q 351 567 351 546 l 351 621 q 331 697 351 665 q 264 729 311 729 q 194 694 214 729 q 175 599 175 658 l 175 560 l 40 560 l 40 631 q 95 775 40 725 q 265 825 150 825 q 438 778 385 825 q 490 642 490 732 l 490 586 q 455 472 490 515 q 356 418 419 429 q 458 367 422 411 q 494 251 494 322 l 494 193 q 472 82 494 128 q 399 13 449 36 q 265 -10 349 -10 z "},"4":{"ha":524,"x_min":15,"x_max":504,"o":"m 289 0 l 289 163 l 15 163 l 15 268 l 294 821 l 422 821 l 422 253 l 504 253 l 504 163 l 422 163 l 422 0 l 289 0 m 122 253 l 289 253 l 289 586 l 122 253 z "},"5":{"ha":544,"x_min":44,"x_max":500,"o":"m 274 -11 q 141 6 192 -11 q 67 72 90 24 q 44 208 44 119 l 44 269 l 178 269 l 178 219 q 200 115 178 144 q 274 86 222 86 q 342 119 322 86 q 363 224 363 153 l 363 351 q 356 412 363 385 q 329 455 349 439 q 271 471 310 471 q 209 449 233 471 q 178 392 185 428 l 47 392 l 47 821 l 479 821 l 479 724 l 179 724 l 179 496 q 228 541 194 522 q 321 560 263 560 q 456 521 413 560 q 500 383 500 482 l 500 208 q 473 74 500 121 q 395 8 446 26 q 274 -11 344 -11 z "},"6":{"ha":550,"x_min":51,"x_max":503,"o":"m 274 -14 q 149 12 199 -14 q 76 88 100 38 q 51 206 51 138 l 51 628 q 113 777 51 726 q 276 828 174 828 q 438 781 381 828 q 494 632 494 733 l 494 576 l 363 576 l 363 647 q 340 721 363 699 q 276 743 318 743 q 209 716 233 743 q 185 644 185 689 l 185 451 q 247 501 207 483 q 329 518 286 518 q 453 477 404 518 q 503 360 503 436 l 503 192 q 476 84 503 131 q 400 12 450 38 q 274 -14 350 -14 m 276 67 q 344 92 318 67 q 369 172 369 118 l 369 339 q 341 410 369 389 q 275 432 313 431 q 212 410 238 432 q 185 353 186 389 l 185 172 q 210 94 185 119 q 276 67 235 68 z "},"7":{"ha":439,"x_min":14,"x_max":413,"o":"m 56 0 l 281 725 l 14 725 l 14 821 l 413 821 l 413 722 l 188 0 l 56 0 z "},"8":{"ha":540,"x_min":44,"x_max":496,"o":"m 271 -11 q 142 14 193 -11 q 68 85 92 39 q 44 194 44 132 l 44 244 q 52 321 44 286 q 82 381 60 356 q 126 413 97 399 q 197 431 154 426 q 133 444 156 433 q 92 474 111 456 q 59 535 67 497 q 51 614 51 572 l 51 644 q 72 744 51 704 q 142 805 93 785 q 271 825 190 825 q 401 805 353 825 q 469 744 449 785 q 490 644 490 704 l 490 614 q 478 527 490 565 q 436 465 465 489 q 357 431 407 442 q 431 408 403 426 q 472 363 458 390 q 491 306 486 336 q 496 243 496 275 l 496 193 q 474 91 496 138 q 402 17 451 44 q 271 -11 353 -11 m 269 67 q 338 94 314 67 q 361 165 361 121 l 361 274 q 338 345 361 319 q 269 372 315 371 q 201 343 224 372 q 178 274 178 314 l 178 165 q 201 95 178 122 q 269 67 224 68 m 269 475 q 332 503 306 475 q 358 582 358 532 l 358 643 q 338 719 358 688 q 269 751 317 751 q 201 719 221 751 q 182 644 182 686 l 182 583 q 194 524 182 549 q 226 488 206 500 q 269 475 246 475 z "},"9":{"ha":547,"x_min":44,"x_max":496,"o":"m 271 -15 q 109 32 165 -15 q 53 181 53 79 l 53 247 l 185 247 l 185 165 q 207 92 185 115 q 271 69 229 69 q 338 97 314 69 q 363 168 363 124 l 363 369 q 301 319 340 336 q 217 303 261 303 q 129 323 168 303 q 67 385 90 343 q 44 494 44 428 l 44 621 q 70 729 44 683 q 147 801 96 775 q 272 826 199 826 q 398 801 349 826 q 472 726 447 775 q 496 607 496 676 l 496 185 q 434 35 496 86 q 271 -15 372 -15 m 272 388 q 335 410 310 388 q 363 468 361 432 l 363 640 q 338 719 363 694 q 269 746 313 744 q 203 720 231 746 q 176 640 176 694 l 176 481 q 206 410 176 432 q 272 388 235 389 z "},"\r":{"ha":833,"x_min":0,"x_max":0,"o":""}," ":{"ha":240,"x_min":0,"x_max":0,"o":""}," ":{"ha":240,"x_min":0,"x_max":0,"o":""},"A":{"ha":533,"x_min":15,"x_max":518,"o":"m 15 0 l 175 821 l 361 821 l 518 0 l 371 0 l 338 167 l 188 167 l 157 0 l 15 0 m 190 235 l 336 235 l 264 692 l 190 235 z "},"А":{"ha":533,"x_min":15,"x_max":518,"o":"m 15 0 l 175 821 l 361 821 l 518 0 l 371 0 l 338 167 l 188 167 l 157 0 l 15 0 m 190 235 l 336 235 l 264 692 l 190 235 z "},"Æ":{"ha":753,"x_min":6,"x_max":722,"o":"m 6 0 l 265 821 l 707 821 l 707 726 l 454 726 l 458 478 l 681 478 l 681 374 l 460 374 l 463 92 l 722 92 l 722 0 l 318 0 l 318 167 l 199 167 l 147 0 l 6 0 m 210 235 l 326 235 l 338 667 l 339 692 l 335 668 l 210 235 z "},"Á":{"ha":533,"x_min":15,"x_max":518,"o":"m 15 0 l 175 821 l 361 821 l 518 0 l 371 0 l 338 167 l 188 167 l 157 0 l 15 0 m 190 235 l 336 235 l 264 692 l 190 235 m 190 881 l 300 1006 l 424 1006 l 267 881 l 190 881 z "},"Ă":{"ha":533,"x_min":15,"x_max":518,"o":"m 15 0 l 175 821 l 361 821 l 518 0 l 371 0 l 338 167 l 188 167 l 157 0 l 15 0 m 190 235 l 336 235 l 264 692 l 190 235 m 265 876 q 174 899 206 876 q 130 952 142 921 q 117 1008 118 983 l 190 1008 q 215 957 193 974 q 265 940 236 940 q 319 956 297 940 q 343 1008 340 972 l 417 1008 q 400 946 415 976 q 352 896 385 915 q 265 876 319 876 z "},"Ắ":{"ha":533,"x_min":15,"x_max":518,"o":"m 15 0 l 175 821 l 361 821 l 518 0 l 371 0 l 338 167 l 188 167 l 157 0 l 15 0 m 190 235 l 336 235 l 264 692 l 190 235 m 267 869 q 194 886 218 869 q 161 927 169 903 q 151 971 153 951 l 224 971 q 237 942 224 951 q 267 932 250 932 q 297 941 283 932 q 311 971 311 950 l 383 971 q 356 899 383 929 q 267 869 329 869 m 214 993 l 269 1093 l 394 1093 l 296 993 l 214 993 z "},"Ặ":{"ha":533,"x_min":15,"x_max":518,"o":"m 15 0 l 175 821 l 361 821 l 518 0 l 371 0 l 338 167 l 188 167 l 157 0 l 15 0 m 190 235 l 336 235 l 264 692 l 190 235 m 267 -168 q 225 -151 242 -168 q 208 -112 208 -135 q 225 -72 208 -89 q 267 -56 242 -56 q 309 -72 292 -56 q 326 -112 326 -89 q 309 -151 326 -135 q 267 -168 292 -168 m 265 876 q 174 899 206 876 q 130 952 142 921 q 117 1008 118 983 l 190 1008 q 215 957 193 974 q 265 940 236 940 q 319 956 297 940 q 343 1008 340 972 l 417 1008 q 400 946 415 976 q 352 896 385 915 q 265 876 319 876 z "},"Ằ":{"ha":533,"x_min":15,"x_max":518,"o":"m 15 0 l 175 821 l 361 821 l 518 0 l 371 0 l 338 167 l 188 167 l 157 0 l 15 0 m 190 235 l 336 235 l 264 692 l 190 235 m 265 869 q 192 886 217 869 q 160 927 168 903 q 151 971 151 951 l 222 971 q 236 941 222 950 q 265 932 250 932 q 297 941 283 932 q 311 971 310 950 l 382 971 q 355 899 382 929 q 265 869 328 869 m 244 993 l 146 1093 l 271 1093 l 326 993 l 244 993 z "},"Ẳ":{"ha":533,"x_min":15,"x_max":518,"o":"m 15 0 l 175 821 l 361 821 l 518 0 l 371 0 l 338 167 l 188 167 l 157 0 l 15 0 m 190 235 l 336 235 l 264 692 l 190 235 m 267 869 q 194 886 218 869 q 161 927 169 903 q 151 971 153 951 l 224 971 q 237 942 224 951 q 267 932 250 932 q 297 941 283 932 q 311 971 311 950 l 383 971 q 356 899 383 929 q 267 869 329 869 m 231 993 l 231 1004 q 242 1027 231 1019 q 265 1041 254 1035 q 276 1057 276 1047 l 276 1064 q 272 1079 276 1074 q 257 1085 267 1085 q 244 1079 250 1085 q 238 1064 239 1074 l 183 1074 q 204 1116 186 1101 q 261 1131 222 1131 q 327 1117 308 1131 q 346 1067 346 1104 l 346 1063 q 335 1032 346 1040 q 312 1019 324 1024 q 300 1003 300 1014 l 300 993 l 231 993 z "},"Ẵ":{"ha":533,"x_min":15,"x_max":518,"o":"m 15 0 l 175 821 l 361 821 l 518 0 l 371 0 l 338 167 l 188 167 l 157 0 l 15 0 m 190 235 l 336 235 l 264 692 l 190 235 m 265 869 q 192 886 217 869 q 160 927 168 903 q 150 971 151 951 l 222 971 q 236 942 224 951 q 265 932 249 932 q 297 941 283 932 q 311 971 310 950 l 382 971 q 355 899 383 929 q 265 869 326 869 m 314 993 q 285 999 299 993 q 256 1014 272 1006 q 236 1024 246 1019 q 213 1029 226 1029 q 193 1019 200 1029 q 186 994 186 1010 l 149 994 q 167 1063 149 1036 q 214 1089 185 1089 q 243 1084 229 1089 q 269 1072 257 1079 q 292 1060 282 1065 q 314 1056 303 1056 q 334 1064 328 1056 q 343 1086 340 1072 l 383 1086 q 373 1035 385 1057 q 345 1003 361 1014 q 314 993 329 993 z "},"Ǎ":{"ha":533,"x_min":15,"x_max":518,"o":"m 15 0 l 175 821 l 361 821 l 518 0 l 371 0 l 338 167 l 188 167 l 157 0 l 15 0 m 190 235 l 336 235 l 264 692 l 190 235 m 226 875 l 100 1003 l 186 1003 l 267 935 l 347 1003 l 432 1003 l 304 875 l 226 875 z "},"Â":{"ha":533,"x_min":15,"x_max":518,"o":"m 15 0 l 175 821 l 361 821 l 518 0 l 371 0 l 338 167 l 188 167 l 157 0 l 15 0 m 190 235 l 336 235 l 264 692 l 190 235 m 99 875 l 228 1008 l 306 1008 l 436 876 l 353 876 l 268 949 l 185 875 l 99 875 z "},"Ấ":{"ha":533,"x_min":15,"x_max":575,"o":"m 15 0 l 175 821 l 361 821 l 518 0 l 371 0 l 338 167 l 188 167 l 157 0 l 15 0 m 190 235 l 336 235 l 264 692 l 190 235 m 138 869 l 231 976 l 303 976 l 397 869 l 321 869 l 268 921 l 217 869 l 138 869 m 396 940 l 451 1040 l 576 1040 l 478 940 l 396 940 z "},"Ậ":{"ha":533,"x_min":15,"x_max":518,"o":"m 15 0 l 175 821 l 361 821 l 518 0 l 371 0 l 338 167 l 188 167 l 157 0 l 15 0 m 190 235 l 336 235 l 264 692 l 190 235 m 267 -168 q 225 -151 242 -168 q 208 -112 208 -135 q 225 -72 208 -89 q 267 -56 242 -56 q 309 -72 292 -56 q 326 -112 326 -89 q 309 -151 326 -135 q 267 -168 292 -168 m 99 875 l 228 1008 l 306 1008 l 436 876 l 353 876 l 268 949 l 185 875 l 99 875 z "},"Ầ":{"ha":533,"x_min":15,"x_max":518,"o":"m 15 0 l 175 821 l 361 821 l 518 0 l 371 0 l 338 167 l 188 167 l 157 0 l 15 0 m 190 235 l 336 235 l 264 692 l 190 235 m 138 869 l 231 976 l 303 976 l 397 869 l 321 869 l 268 921 l 217 869 l 138 869 m 425 939 l 328 1039 l 451 1039 l 507 939 l 425 939 z "},"Ẩ":{"ha":533,"x_min":15,"x_max":518,"o":"m 15 0 l 175 821 l 361 821 l 518 0 l 371 0 l 338 167 l 188 167 l 157 0 l 15 0 m 190 235 l 336 235 l 264 692 l 190 235 m 138 869 l 231 976 l 303 976 l 397 869 l 321 869 l 268 921 l 217 869 l 138 869 m 404 935 l 404 946 q 415 967 404 960 q 438 981 426 975 q 450 999 450 988 l 450 1004 q 444 1021 450 1015 q 431 1026 439 1026 q 413 1006 415 1026 l 358 1014 q 379 1056 361 1042 q 436 1071 397 1071 q 500 1058 482 1071 q 518 1007 518 1046 l 518 1003 q 507 974 518 982 q 485 960 496 965 q 474 944 474 956 l 474 935 l 404 935 z "},"Ẫ":{"ha":533,"x_min":15,"x_max":518,"o":"m 15 0 l 175 821 l 361 821 l 518 0 l 371 0 l 338 167 l 188 167 l 157 0 l 15 0 m 190 235 l 336 235 l 264 692 l 190 235 m 138 869 l 231 976 l 303 976 l 397 869 l 321 869 l 268 921 l 217 869 l 138 869 m 314 1000 q 285 1006 299 1000 q 260 1019 272 1013 q 236 1031 247 1026 q 214 1036 225 1036 q 194 1026 203 1036 q 185 1001 186 1017 l 150 1001 q 169 1069 151 1044 q 215 1094 188 1094 q 244 1090 231 1094 q 272 1076 258 1086 q 294 1066 283 1071 q 315 1061 306 1061 q 337 1070 329 1061 q 346 1092 344 1079 l 386 1092 q 374 1042 386 1063 q 347 1010 363 1021 q 314 1000 331 1000 z "},"Ä":{"ha":533,"x_min":15,"x_max":518,"o":"m 15 0 l 175 821 l 361 821 l 518 0 l 371 0 l 338 167 l 188 167 l 157 0 l 15 0 m 190 235 l 336 235 l 264 692 l 190 235 m 190 883 q 149 900 165 883 q 132 940 132 917 q 149 980 132 964 q 190 996 165 996 q 231 980 215 996 q 247 940 247 964 q 231 900 247 917 q 190 883 215 883 m 344 883 q 303 900 319 883 q 286 940 286 917 q 303 980 286 964 q 344 996 319 996 q 386 980 369 996 q 403 940 403 964 q 386 900 403 917 q 344 883 369 883 z "},"Ạ":{"ha":533,"x_min":15,"x_max":518,"o":"m 15 0 l 175 821 l 361 821 l 518 0 l 371 0 l 338 167 l 188 167 l 157 0 l 15 0 m 190 235 l 336 235 l 264 692 l 190 235 m 267 -168 q 225 -151 242 -168 q 208 -112 208 -135 q 225 -72 208 -89 q 267 -56 242 -56 q 309 -72 292 -56 q 326 -112 326 -89 q 309 -151 326 -135 q 267 -168 292 -168 z "},"À":{"ha":533,"x_min":15,"x_max":518,"o":"m 15 0 l 175 821 l 361 821 l 518 0 l 371 0 l 338 167 l 188 167 l 157 0 l 15 0 m 190 235 l 336 235 l 264 692 l 190 235 m 257 881 l 108 1001 l 235 1001 l 340 881 l 257 881 z "},"Ả":{"ha":533,"x_min":15,"x_max":518,"o":"m 15 0 l 175 821 l 361 821 l 518 0 l 371 0 l 338 167 l 188 167 l 157 0 l 15 0 m 190 235 l 336 235 l 264 692 l 190 235 m 229 871 l 229 890 q 244 920 229 910 q 275 940 260 931 q 290 967 290 950 l 290 974 q 283 997 290 986 q 258 1008 276 1008 q 231 976 235 1008 l 169 986 q 197 1039 174 1021 q 265 1057 221 1057 q 341 1041 315 1057 q 367 976 367 1025 l 367 971 q 350 928 367 940 q 317 910 333 917 q 300 886 300 903 l 300 871 l 229 871 z "},"Ā":{"ha":533,"x_min":15,"x_max":518,"o":"m 15 0 l 175 821 l 361 821 l 518 0 l 371 0 l 338 167 l 188 167 l 157 0 l 15 0 m 190 235 l 336 235 l 264 692 l 190 235 m 129 901 l 129 968 l 404 968 l 404 901 l 129 901 z "},"Ą":{"ha":533,"x_min":15,"x_max":546,"o":"m 15 0 l 175 821 l 361 821 l 518 0 l 371 0 l 338 167 l 188 167 l 157 0 l 15 0 m 190 235 l 336 235 l 264 692 l 190 235 m 465 -196 q 388 -170 418 -196 q 358 -110 358 -144 q 388 -39 358 -71 q 461 1 418 -7 l 518 0 q 463 -40 481 -14 q 444 -92 444 -67 q 462 -132 444 -118 q 497 -146 479 -146 q 517 -143 508 -146 q 529 -139 525 -140 l 546 -175 q 519 -188 538 -181 q 465 -196 500 -196 z "},"Å":{"ha":533,"x_min":15,"x_max":518,"o":"m 15 0 l 175 821 l 361 821 l 518 0 l 371 0 l 338 167 l 188 167 l 157 0 l 15 0 m 190 235 l 336 235 l 264 692 l 190 235 m 274 815 q 191 847 224 815 q 158 925 158 879 q 191 1003 158 971 q 274 1035 224 1035 q 358 1002 325 1035 q 390 924 390 969 q 356 847 390 879 q 274 815 321 815 m 274 871 q 316 886 300 871 q 332 924 332 901 q 316 965 332 950 q 274 981 300 981 q 232 965 247 981 q 217 924 217 950 q 232 886 217 901 q 274 871 247 871 z "},"Ã":{"ha":533,"x_min":15,"x_max":518,"o":"m 15 0 l 175 821 l 361 821 l 518 0 l 371 0 l 338 167 l 188 167 l 157 0 l 15 0 m 190 235 l 336 235 l 264 692 l 190 235 m 326 886 q 290 893 306 886 q 254 913 274 900 q 226 928 242 921 q 194 936 211 936 q 167 924 178 936 q 153 888 156 911 l 111 888 q 135 967 113 936 q 196 999 158 999 q 235 991 217 999 q 269 972 253 983 q 299 957 285 964 q 326 950 313 950 q 357 963 347 950 q 371 996 367 975 l 417 996 q 402 936 415 961 q 369 899 389 911 q 326 886 349 886 z "},"B":{"ha":567,"x_min":69,"x_max":515,"o":"m 69 0 l 69 821 l 346 821 q 463 786 421 821 q 504 683 504 751 l 504 588 q 494 520 504 550 q 463 471 483 490 q 420 446 444 453 q 375 438 396 439 l 375 438 q 424 432 400 438 q 467 410 447 426 q 502 360 489 390 q 515 285 515 329 l 515 171 q 492 65 515 101 q 428 14 469 28 q 331 0 388 0 l 69 0 m 203 71 l 301 71 q 344 79 326 71 q 371 111 361 88 q 381 179 381 135 l 381 283 q 356 360 381 342 q 293 379 332 379 l 203 379 l 203 71 m 203 465 l 290 465 q 354 490 332 465 q 376 572 376 515 l 376 660 q 356 726 376 706 q 306 747 336 747 l 203 747 l 203 465 z "},"Б":{"ha":538,"x_min":69,"x_max":490,"o":"m 69 0 l 69 821 l 460 821 l 460 726 l 200 726 l 200 606 l 329 606 q 415 590 379 606 q 471 538 451 574 q 490 438 490 501 l 490 211 q 478 105 490 146 q 444 41 467 64 q 389 9 422 18 q 311 0 356 0 l 69 0 m 283 71 q 331 83 315 71 q 353 119 347 96 q 360 174 360 143 l 360 422 q 354 474 360 451 q 332 510 349 497 q 282 524 315 524 l 200 524 l 200 71 l 283 71 z "},"C":{"ha":553,"x_min":58,"x_max":501,"o":"m 281 -17 q 166 -1 217 -17 q 87 62 115 14 q 58 206 58 110 l 58 649 q 87 763 58 724 q 166 818 115 803 q 282 833 217 833 q 397 817 349 833 q 474 762 446 801 q 501 649 501 722 l 501 488 l 368 488 l 368 653 q 357 716 368 696 q 326 743 346 736 q 282 750 307 750 q 238 743 257 750 q 207 716 218 736 q 196 653 196 696 l 196 160 q 207 97 196 118 q 238 69 218 76 q 282 63 257 63 q 327 69 308 63 q 357 97 346 76 q 368 160 368 118 l 368 307 l 501 307 l 501 207 q 474 61 501 108 q 397 -1 446 14 q 281 -17 349 -17 z "},"Ć":{"ha":553,"x_min":58,"x_max":501,"o":"m 281 -17 q 166 -1 217 -17 q 87 62 115 14 q 58 206 58 110 l 58 649 q 87 763 58 724 q 166 818 115 803 q 282 833 217 833 q 397 817 349 833 q 474 762 446 801 q 501 649 501 722 l 501 488 l 368 488 l 368 653 q 357 716 368 696 q 326 743 346 736 q 282 750 307 750 q 238 743 257 750 q 207 716 218 736 q 196 653 196 696 l 196 160 q 207 97 196 118 q 238 69 218 76 q 282 63 257 63 q 327 69 308 63 q 357 97 346 76 q 368 160 368 118 l 368 307 l 501 307 l 501 207 q 474 61 501 108 q 397 -1 446 14 q 281 -17 349 -17 m 200 881 l 310 1006 l 433 1006 l 276 881 l 200 881 z "},"Č":{"ha":553,"x_min":58,"x_max":501,"o":"m 281 -17 q 166 -1 217 -17 q 87 62 115 14 q 58 206 58 110 l 58 649 q 87 763 58 724 q 166 818 115 803 q 282 833 217 833 q 397 817 349 833 q 474 762 446 801 q 501 649 501 722 l 501 488 l 368 488 l 368 653 q 357 716 368 696 q 326 743 346 736 q 282 750 307 750 q 238 743 257 750 q 207 716 218 736 q 196 653 196 696 l 196 160 q 207 97 196 118 q 238 69 218 76 q 282 63 257 63 q 327 69 308 63 q 357 97 346 76 q 368 160 368 118 l 368 307 l 501 307 l 501 207 q 474 61 501 108 q 397 -1 446 14 q 281 -17 349 -17 m 238 875 l 111 1003 l 197 1003 l 278 935 l 358 1003 l 443 1003 l 315 875 l 238 875 z "},"Ç":{"ha":553,"x_min":58,"x_max":501,"o":"m 281 -17 q 166 -1 217 -17 q 87 62 115 14 q 58 206 58 110 l 58 649 q 87 763 58 724 q 166 818 115 803 q 282 833 217 833 q 397 817 349 833 q 474 762 446 801 q 501 649 501 722 l 501 488 l 368 488 l 368 653 q 357 716 368 696 q 326 743 346 736 q 282 750 307 750 q 238 743 257 750 q 207 716 218 736 q 196 653 196 696 l 196 160 q 207 97 196 118 q 238 69 218 76 q 282 63 257 63 q 327 69 308 63 q 357 97 346 76 q 368 160 368 118 l 368 307 l 501 307 l 501 207 q 474 61 501 108 q 397 -1 446 14 q 281 -17 349 -17 m 271 -215 q 225 -206 246 -215 q 194 -192 204 -197 l 211 -149 q 236 -161 219 -156 q 265 -167 253 -167 q 301 -156 289 -167 q 314 -126 314 -144 q 303 -103 314 -111 q 278 -94 293 -94 q 260 -98 268 -94 q 247 -106 253 -101 l 208 -85 l 253 0 l 304 0 l 267 -72 l 258 -68 q 281 -59 268 -62 q 308 -56 293 -56 q 367 -78 346 -56 q 388 -126 388 -101 q 357 -190 388 -164 q 271 -215 326 -215 z "},"Ċ":{"ha":553,"x_min":58,"x_max":501,"o":"m 281 -17 q 166 -1 217 -17 q 87 62 115 14 q 58 206 58 110 l 58 649 q 87 763 58 724 q 166 818 115 803 q 282 833 217 833 q 397 817 349 833 q 474 762 446 801 q 501 649 501 722 l 501 488 l 368 488 l 368 653 q 357 716 368 696 q 326 743 346 736 q 282 750 307 750 q 238 743 257 750 q 207 716 218 736 q 196 653 196 696 l 196 160 q 207 97 196 118 q 238 69 218 76 q 282 63 257 63 q 327 69 308 63 q 357 97 346 76 q 368 160 368 118 l 368 307 l 501 307 l 501 207 q 474 61 501 108 q 397 -1 446 14 q 281 -17 349 -17 m 290 885 q 241 905 261 885 q 219 954 221 925 q 240 1002 219 982 q 290 1022 261 1022 q 340 1002 319 1022 q 361 953 361 982 q 341 905 363 925 q 290 885 319 885 z "},"Ч":{"ha":519,"x_min":47,"x_max":469,"o":"m 336 0 l 336 228 q 285 200 322 214 q 208 186 249 186 q 105 209 140 186 q 58 274 69 232 q 47 371 47 315 l 47 821 l 178 821 l 178 371 q 194 301 178 325 q 256 276 210 276 q 310 287 292 276 q 336 303 329 297 l 336 821 l 469 821 l 469 0 l 336 0 z "},"D":{"ha":571,"x_min":69,"x_max":513,"o":"m 69 0 l 69 821 l 342 821 q 435 804 397 821 q 492 753 472 788 q 513 663 513 718 l 513 176 q 489 69 513 108 q 423 15 465 31 q 324 0 381 0 l 69 0 m 207 71 l 303 71 q 358 91 338 71 q 379 167 379 111 l 379 647 q 358 724 379 703 q 303 744 338 744 l 207 744 l 207 71 z "},"Ď":{"ha":571,"x_min":69,"x_max":513,"o":"m 69 0 l 69 821 l 342 821 q 435 804 397 821 q 492 753 472 788 q 513 663 513 718 l 513 176 q 489 69 513 108 q 423 15 465 31 q 324 0 381 0 l 69 0 m 207 71 l 303 71 q 358 91 338 71 q 379 167 379 111 l 379 647 q 358 724 379 703 q 303 744 338 744 l 207 744 l 207 71 m 246 875 l 119 1003 l 206 1003 l 286 935 l 367 1003 l 451 1003 l 324 875 l 246 875 z "},"Đ":{"ha":608,"x_min":21,"x_max":550,"o":"m 92 0 l 92 821 l 379 821 q 474 804 436 821 q 531 753 511 788 q 550 663 550 718 l 550 176 q 527 69 550 108 q 462 15 504 31 q 361 0 419 0 l 92 0 m 21 363 l 21 442 l 294 442 l 294 363 l 21 363 m 229 71 l 332 71 q 396 91 374 71 q 418 167 418 111 l 418 647 q 396 724 418 703 q 332 744 374 744 l 229 744 l 229 71 z "},"Д":{"ha":813,"x_min":40,"x_max":772,"o":"m 40 -154 l 40 85 l 113 85 q 162 117 140 88 q 189 203 183 147 q 201 320 194 256 q 213 453 207 385 q 224 589 219 522 q 233 715 229 656 q 240 821 238 775 l 639 821 l 639 85 l 772 85 l 772 -154 l 661 -154 l 661 -24 l 151 -24 l 151 -154 l 40 -154 m 283 85 l 508 85 l 508 726 l 365 726 q 345 472 354 599 q 325 218 336 346 q 314 142 322 182 q 283 85 306 103 z "},"Δ":{"ha":756,"x_min":47,"x_max":710,"o":"m 47 0 l 313 813 l 450 813 l 710 0 l 47 0 m 204 103 l 543 103 l 375 651 l 204 103 z "},"Ђ":{"ha":633,"x_min":14,"x_max":586,"o":"m 150 0 l 150 726 l 14 726 l 14 821 l 421 821 l 421 726 l 283 726 l 283 515 q 334 560 297 539 q 425 581 371 581 q 515 564 479 581 q 568 510 550 547 q 586 411 586 472 l 586 231 q 572 105 586 151 q 533 35 558 58 q 474 6 508 13 q 400 0 440 0 q 371 3 388 0 q 344 10 354 7 l 344 72 q 359 71 351 71 q 374 71 367 71 q 437 101 418 71 q 456 196 456 132 l 456 401 q 439 474 456 450 q 371 499 422 499 q 311 481 331 499 q 283 444 292 464 l 283 0 l 150 0 z "},"Ѕ":{"ha":533,"x_min":42,"x_max":493,"o":"m 261 -10 q 143 11 193 -10 q 67 85 93 32 q 42 233 42 138 l 42 281 q 110 281 75 281 q 178 281 144 281 l 178 222 q 189 132 178 164 q 219 88 200 100 q 264 76 239 76 q 328 103 304 76 q 353 206 353 131 q 336 289 353 261 q 284 334 319 317 q 193 374 249 351 q 114 422 147 394 q 64 493 81 450 q 47 600 47 536 q 67 727 47 678 q 136 799 88 776 q 267 822 185 822 q 428 774 372 822 q 483 635 483 726 l 483 539 q 419 539 451 539 q 353 539 386 539 l 353 596 q 333 688 353 660 q 268 717 313 717 q 202 690 222 717 q 182 604 182 663 q 201 527 182 554 q 252 485 221 500 q 317 457 283 469 q 418 408 379 433 q 475 342 457 383 q 493 224 493 300 q 465 85 493 136 q 384 13 436 35 q 261 -10 332 -10 z "},"Џ":{"ha":536,"x_min":50,"x_max":485,"o":"m 224 -137 l 224 0 l 50 0 l 50 821 l 189 821 l 189 94 l 347 94 l 347 821 l 485 821 l 485 0 l 311 0 l 311 -137 l 224 -137 z "},"E":{"ha":468,"x_min":69,"x_max":439,"o":"m 69 0 l 69 821 l 439 821 l 439 726 l 208 726 l 208 478 l 399 478 l 399 374 l 208 374 l 208 92 l 439 92 l 439 0 l 69 0 z "},"É":{"ha":468,"x_min":69,"x_max":439,"o":"m 69 0 l 69 821 l 439 821 l 439 726 l 208 726 l 208 478 l 399 478 l 399 374 l 208 374 l 208 92 l 439 92 l 439 0 l 69 0 m 176 881 l 286 1006 l 410 1006 l 253 881 l 176 881 z "},"Ě":{"ha":468,"x_min":69,"x_max":439,"o":"m 69 0 l 69 821 l 439 821 l 439 726 l 208 726 l 208 478 l 399 478 l 399 374 l 208 374 l 208 92 l 439 92 l 439 0 l 69 0 m 214 875 l 88 1003 l 174 1003 l 254 935 l 335 1003 l 419 1003 l 292 875 l 214 875 z "},"Ê":{"ha":468,"x_min":69,"x_max":439,"o":"m 69 0 l 69 821 l 439 821 l 439 726 l 208 726 l 208 478 l 399 478 l 399 374 l 208 374 l 208 92 l 439 92 l 439 0 l 69 0 m 85 875 l 214 1008 l 292 1008 l 422 876 l 339 876 l 254 949 l 171 875 l 85 875 z "},"Ế":{"ha":468,"x_min":69,"x_max":561,"o":"m 69 0 l 69 821 l 439 821 l 439 726 l 208 726 l 208 478 l 399 478 l 399 374 l 208 374 l 208 92 l 439 92 l 439 0 l 69 0 m 124 869 l 217 976 l 289 976 l 383 869 l 307 869 l 254 921 l 203 869 l 124 869 m 382 940 l 438 1040 l 563 1040 l 464 940 l 382 940 z "},"Ệ":{"ha":468,"x_min":69,"x_max":439,"o":"m 69 0 l 69 821 l 439 821 l 439 726 l 208 726 l 208 478 l 399 478 l 399 374 l 208 374 l 208 92 l 439 92 l 439 0 l 69 0 m 253 -168 q 211 -151 228 -168 q 194 -112 194 -135 q 211 -72 194 -89 q 253 -56 228 -56 q 295 -72 278 -56 q 313 -112 313 -89 q 295 -151 313 -135 q 253 -168 278 -168 m 85 875 l 214 1008 l 292 1008 l 422 876 l 339 876 l 254 949 l 171 875 l 85 875 z "},"Ề":{"ha":468,"x_min":69,"x_max":493,"o":"m 69 0 l 69 821 l 439 821 l 439 726 l 208 726 l 208 478 l 399 478 l 399 374 l 208 374 l 208 92 l 439 92 l 439 0 l 69 0 m 124 869 l 217 976 l 289 976 l 383 869 l 307 869 l 254 921 l 203 869 l 124 869 m 411 939 l 314 1039 l 438 1039 l 493 939 l 411 939 z "},"Ể":{"ha":468,"x_min":69,"x_max":504,"o":"m 69 0 l 69 821 l 439 821 l 439 726 l 208 726 l 208 478 l 399 478 l 399 374 l 208 374 l 208 92 l 439 92 l 439 0 l 69 0 m 124 869 l 217 976 l 289 976 l 383 869 l 307 869 l 254 921 l 203 869 l 124 869 m 390 935 l 390 946 q 401 967 390 960 q 424 981 413 975 q 436 999 436 988 l 436 1004 q 431 1021 436 1015 q 417 1026 425 1026 q 399 1006 401 1026 l 344 1014 q 365 1056 347 1042 q 422 1071 383 1071 q 486 1058 468 1071 q 504 1007 504 1046 l 504 1003 q 493 974 504 982 q 471 960 482 965 q 460 944 460 956 l 460 935 l 390 935 z "},"Ễ":{"ha":468,"x_min":69,"x_max":439,"o":"m 69 0 l 69 821 l 439 821 l 439 726 l 208 726 l 208 478 l 399 478 l 399 374 l 208 374 l 208 92 l 439 92 l 439 0 l 69 0 m 124 869 l 217 976 l 289 976 l 383 869 l 307 869 l 254 921 l 203 869 l 124 869 m 300 1000 q 272 1006 285 1000 q 246 1019 258 1013 q 222 1031 233 1026 q 200 1036 211 1036 q 181 1026 189 1036 q 171 1001 172 1017 l 136 1001 q 156 1069 138 1044 q 201 1094 174 1094 q 231 1090 217 1094 q 258 1076 244 1086 q 281 1066 269 1071 q 301 1061 292 1061 q 323 1070 315 1061 q 332 1092 331 1079 l 372 1092 q 360 1042 372 1063 q 333 1010 349 1021 q 300 1000 317 1000 z "},"Ë":{"ha":468,"x_min":69,"x_max":439,"o":"m 69 0 l 69 821 l 439 821 l 439 726 l 208 726 l 208 478 l 399 478 l 399 374 l 208 374 l 208 92 l 439 92 l 439 0 l 69 0 m 176 883 q 135 900 151 883 q 118 940 118 917 q 135 980 118 964 q 176 996 151 996 q 217 980 201 996 q 233 940 233 964 q 217 900 233 917 q 176 883 201 883 m 331 883 q 289 900 306 883 q 272 940 272 917 q 289 980 272 964 q 331 996 306 996 q 372 980 356 996 q 389 940 389 964 q 372 900 389 917 q 331 883 356 883 z "},"Ė":{"ha":468,"x_min":69,"x_max":439,"o":"m 69 0 l 69 821 l 439 821 l 439 726 l 208 726 l 208 478 l 399 478 l 399 374 l 208 374 l 208 92 l 439 92 l 439 0 l 69 0 m 267 885 q 217 905 238 885 q 196 954 197 925 q 217 1002 196 982 q 267 1022 238 1022 q 317 1002 296 1022 q 338 953 338 982 q 317 905 339 925 q 267 885 296 885 z "},"Ẹ":{"ha":468,"x_min":69,"x_max":439,"o":"m 69 0 l 69 821 l 439 821 l 439 726 l 208 726 l 208 478 l 399 478 l 399 374 l 208 374 l 208 92 l 439 92 l 439 0 l 69 0 m 253 -168 q 211 -151 228 -168 q 194 -112 194 -135 q 211 -72 194 -89 q 253 -56 228 -56 q 295 -72 278 -56 q 313 -112 313 -89 q 295 -151 313 -135 q 253 -168 278 -168 z "},"Ф":{"ha":704,"x_min":43,"x_max":661,"o":"m 286 -29 l 286 94 l 244 94 q 94 136 146 94 q 43 278 43 178 l 43 553 q 88 675 43 632 q 226 718 132 718 l 286 718 l 286 821 l 418 821 l 418 718 l 475 718 q 616 677 571 718 q 661 550 661 636 l 661 279 q 609 134 661 174 q 457 94 557 94 l 418 94 l 418 -29 l 286 -29 m 265 165 l 286 165 q 286 403 286 285 q 286 642 286 522 l 265 642 q 199 617 222 642 q 176 538 176 593 l 176 269 q 199 190 176 214 q 265 165 221 165 m 418 165 l 436 165 q 504 188 481 165 q 528 269 528 210 l 528 536 q 504 619 528 596 q 436 642 481 642 l 418 642 q 418 403 418 522 q 418 165 418 285 z "},"È":{"ha":468,"x_min":69,"x_max":439,"o":"m 69 0 l 69 821 l 439 821 l 439 726 l 208 726 l 208 478 l 399 478 l 399 374 l 208 374 l 208 92 l 439 92 l 439 0 l 69 0 m 243 881 l 94 1001 l 221 1001 l 326 881 l 243 881 z "},"Ẻ":{"ha":468,"x_min":69,"x_max":439,"o":"m 69 0 l 69 821 l 439 821 l 439 726 l 208 726 l 208 478 l 399 478 l 399 374 l 208 374 l 208 92 l 439 92 l 439 0 l 69 0 m 215 871 l 215 890 q 231 920 215 910 q 261 940 246 931 q 276 967 276 950 l 276 974 q 269 997 276 986 q 244 1008 263 1008 q 217 976 221 1008 l 156 986 q 183 1039 160 1021 q 251 1057 207 1057 q 327 1041 301 1057 q 353 976 353 1025 l 353 971 q 336 928 353 940 q 303 910 319 917 q 286 886 286 903 l 286 871 l 215 871 z "},"Л":{"ha":607,"x_min":17,"x_max":557,"o":"m 17 0 l 17 69 q 64 99 43 69 q 89 175 85 128 l 133 821 l 557 821 l 557 0 l 424 0 l 424 726 l 264 726 l 221 139 q 215 94 218 118 q 201 49 213 69 q 167 15 190 28 q 100 0 143 1 l 17 0 z "},"М":{"ha":740,"x_min":69,"x_max":672,"o":"m 69 0 l 69 821 l 233 821 l 371 238 l 510 821 l 672 821 l 672 0 l 554 0 l 554 633 l 417 0 l 325 0 l 188 633 l 188 0 l 69 0 z "},"Ē":{"ha":468,"x_min":69,"x_max":439,"o":"m 69 0 l 69 821 l 439 821 l 439 726 l 208 726 l 208 478 l 399 478 l 399 374 l 208 374 l 208 92 l 439 92 l 439 0 l 69 0 m 115 901 l 115 968 l 390 968 l 390 901 l 115 901 z "},"Н":{"ha":579,"x_min":69,"x_max":510,"o":"m 69 0 l 69 821 l 201 821 l 201 476 l 378 476 l 378 821 l 510 821 l 510 0 l 378 0 l 378 376 l 201 376 l 201 0 l 69 0 z "},"Ŋ":{"ha":578,"x_min":69,"x_max":508,"o":"m 332 -251 q 302 -251 321 -251 q 271 -250 283 -251 l 271 -157 l 314 -158 q 373 -143 357 -158 q 389 -82 389 -128 l 389 3 l 188 524 l 188 0 l 69 0 l 71 821 l 186 821 l 389 268 l 390 821 l 508 821 l 507 -56 q 492 -174 507 -132 q 438 -234 476 -217 q 332 -251 400 -251 z "},"Ę":{"ha":468,"x_min":69,"x_max":439,"o":"m 69 0 l 69 821 l 439 821 l 439 726 l 208 726 l 208 478 l 399 478 l 399 374 l 208 374 l 208 92 l 439 92 l 439 0 l 69 0 m 331 -196 q 253 -170 283 -196 q 224 -110 224 -144 q 253 -39 224 -71 q 326 1 283 -7 l 383 0 q 328 -40 346 -14 q 310 -92 310 -67 q 327 -132 310 -118 q 363 -146 344 -146 q 382 -143 374 -146 q 394 -139 390 -140 l 411 -175 q 384 -188 403 -181 q 331 -196 365 -196 z "},"Р":{"ha":540,"x_min":69,"x_max":508,"o":"m 69 0 l 69 821 l 347 821 q 467 786 425 821 q 508 683 508 751 l 508 538 q 495 440 508 485 q 445 367 482 394 q 339 339 408 339 l 208 339 l 208 0 l 69 0 m 208 414 l 293 414 q 356 447 335 414 q 376 553 376 479 l 376 626 q 358 719 376 692 q 308 747 340 747 l 208 747 l 208 414 z "},"Э":{"ha":542,"x_min":47,"x_max":492,"o":"m 268 -17 q 151 -1 201 -17 q 74 61 101 14 q 47 207 47 108 l 47 268 l 181 268 l 181 160 q 192 99 181 119 q 223 71 203 78 q 267 64 243 64 q 313 71 293 64 q 342 99 332 78 q 353 160 353 119 l 353 358 l 157 358 l 157 449 l 353 449 l 353 650 q 342 711 353 690 q 313 739 332 732 q 267 746 293 746 q 222 740 242 746 q 191 713 201 733 q 181 653 181 693 l 181 522 l 47 522 l 47 647 q 74 761 47 721 q 151 817 101 801 q 267 833 200 833 q 383 817 333 833 q 463 762 433 801 q 492 647 492 722 l 492 207 q 463 62 492 110 q 384 -1 435 14 q 268 -17 333 -17 z "},"С":{"ha":553,"x_min":58,"x_max":501,"o":"m 281 -17 q 166 -1 217 -17 q 87 62 115 14 q 58 206 58 110 l 58 649 q 87 763 58 724 q 166 818 115 803 q 282 833 217 833 q 397 817 349 833 q 474 762 446 801 q 501 649 501 722 l 501 488 l 368 488 l 368 653 q 357 716 368 696 q 326 743 346 736 q 282 750 307 750 q 238 743 257 750 q 207 716 218 736 q 196 653 196 696 l 196 160 q 207 97 196 118 q 238 69 218 76 q 282 63 257 63 q 327 69 308 63 q 357 97 346 76 q 368 160 368 118 l 368 307 l 501 307 l 501 207 q 474 61 501 108 q 397 -1 446 14 q 281 -17 349 -17 z "},"Ð":{"ha":608,"x_min":21,"x_max":550,"o":"m 92 0 l 92 821 l 379 821 q 474 804 436 821 q 531 753 511 788 q 550 663 550 718 l 550 176 q 527 69 550 108 q 462 15 504 31 q 361 0 419 0 l 92 0 m 21 363 l 21 442 l 294 442 l 294 363 l 21 363 m 229 71 l 332 71 q 396 91 374 71 q 418 167 418 111 l 418 647 q 396 724 418 703 q 332 744 374 744 l 229 744 l 229 71 z "},"Ẽ":{"ha":468,"x_min":69,"x_max":439,"o":"m 69 0 l 69 821 l 439 821 l 439 726 l 208 726 l 208 478 l 399 478 l 399 374 l 208 374 l 208 92 l 439 92 l 439 0 l 69 0 m 313 886 q 276 893 292 886 q 240 913 260 900 q 213 928 228 921 q 181 936 197 936 q 153 924 164 936 q 139 888 142 911 l 97 888 q 122 967 99 936 q 182 999 144 999 q 221 991 203 999 q 256 972 239 983 q 285 957 271 964 q 313 950 299 950 q 343 963 333 950 q 357 996 353 975 l 403 996 q 388 936 401 961 q 355 899 375 911 q 313 886 335 886 z "},"F":{"ha":460,"x_min":69,"x_max":439,"o":"m 69 0 l 69 821 l 439 821 l 439 726 l 208 726 l 208 478 l 399 478 l 399 374 l 208 374 l 208 0 l 69 0 z "},"G":{"ha":556,"x_min":58,"x_max":501,"o":"m 240 -15 q 151 -1 193 -15 q 84 58 110 14 q 58 189 58 101 l 58 647 q 86 762 58 722 q 164 816 114 801 q 279 831 214 831 q 394 815 344 831 q 473 760 444 800 q 501 647 501 721 l 501 536 l 372 536 l 372 653 q 360 715 372 694 q 328 743 349 736 q 281 750 308 750 q 235 743 256 750 q 202 715 214 736 q 190 653 190 694 l 190 160 q 202 97 190 118 q 235 69 214 76 q 281 63 256 63 q 347 87 321 63 q 372 160 372 111 l 372 326 l 290 326 l 290 403 l 501 403 l 501 0 l 401 0 l 394 69 q 388 58 392 64 q 381 47 383 51 q 331 3 364 22 q 240 -15 299 -15 z "},"Ğ":{"ha":556,"x_min":58,"x_max":501,"o":"m 240 -15 q 151 -1 193 -15 q 84 58 110 14 q 58 189 58 101 l 58 647 q 86 762 58 722 q 164 816 114 801 q 279 831 214 831 q 394 815 344 831 q 473 760 444 800 q 501 647 501 721 l 501 536 l 372 536 l 372 653 q 360 715 372 694 q 328 743 349 736 q 281 750 308 750 q 235 743 256 750 q 202 715 214 736 q 190 653 190 694 l 190 160 q 202 97 190 118 q 235 69 214 76 q 281 63 256 63 q 347 87 321 63 q 372 160 372 111 l 372 326 l 290 326 l 290 403 l 501 403 l 501 0 l 401 0 l 394 69 q 388 58 392 64 q 381 47 383 51 q 331 3 364 22 q 240 -15 299 -15 m 276 876 q 185 899 217 876 q 141 952 153 921 q 128 1008 129 983 l 201 1008 q 226 957 204 974 q 276 940 247 940 q 330 956 308 940 q 354 1008 351 972 l 428 1008 q 411 946 426 976 q 363 896 396 915 q 276 876 331 876 z "},"Ģ":{"ha":556,"x_min":58,"x_max":501,"o":"m 240 -15 q 151 -1 193 -15 q 84 58 110 14 q 58 189 58 101 l 58 647 q 86 762 58 722 q 164 816 114 801 q 279 831 214 831 q 394 815 344 831 q 473 760 444 800 q 501 647 501 721 l 501 536 l 372 536 l 372 653 q 360 715 372 694 q 328 743 349 736 q 281 750 308 750 q 235 743 256 750 q 202 715 214 736 q 190 653 190 694 l 190 160 q 202 97 190 118 q 235 69 214 76 q 281 63 256 63 q 347 87 321 63 q 372 160 372 111 l 372 326 l 290 326 l 290 403 l 501 403 l 501 0 l 401 0 l 394 69 q 388 58 392 64 q 381 47 383 51 q 331 3 364 22 q 240 -15 299 -15 m 213 -249 q 242 -197 231 -221 q 254 -157 254 -172 q 246 -140 254 -147 q 228 -124 238 -133 q 219 -99 219 -115 q 236 -66 219 -81 q 278 -51 253 -51 q 323 -67 306 -51 q 340 -107 340 -83 q 328 -151 340 -125 q 301 -202 317 -176 q 267 -249 285 -228 l 213 -249 z "},"Ġ":{"ha":556,"x_min":58,"x_max":501,"o":"m 240 -15 q 151 -1 193 -15 q 84 58 110 14 q 58 189 58 101 l 58 647 q 86 762 58 722 q 164 816 114 801 q 279 831 214 831 q 394 815 344 831 q 473 760 444 800 q 501 647 501 721 l 501 536 l 372 536 l 372 653 q 360 715 372 694 q 328 743 349 736 q 281 750 308 750 q 235 743 256 750 q 202 715 214 736 q 190 653 190 694 l 190 160 q 202 97 190 118 q 235 69 214 76 q 281 63 256 63 q 347 87 321 63 q 372 160 372 111 l 372 326 l 290 326 l 290 403 l 501 403 l 501 0 l 401 0 l 394 69 q 388 58 392 64 q 381 47 383 51 q 331 3 364 22 q 240 -15 299 -15 m 292 885 q 242 905 263 885 q 221 954 222 925 q 242 1002 221 982 q 292 1022 263 1022 q 342 1002 321 1022 q 363 953 363 982 q 342 905 364 925 q 292 885 321 885 z "},"Г":{"ha":442,"x_min":50,"x_max":421,"o":"m 50 0 l 50 821 l 421 821 l 421 726 l 189 726 l 189 0 l 50 0 z "},"ẞ":{"ha":1094,"x_min":63,"x_max":1032,"o":"m 799 -10 q 679 11 728 -10 q 605 85 631 32 q 579 233 579 138 l 579 281 q 649 281 614 281 q 717 281 683 281 l 717 222 q 728 132 717 164 q 758 88 739 100 q 803 76 776 76 q 867 103 843 76 q 892 206 892 131 q 875 289 892 261 q 823 334 858 317 q 732 374 788 351 q 652 422 685 394 q 603 493 619 450 q 586 600 586 536 q 606 727 586 678 q 675 799 626 776 q 806 822 724 822 q 967 774 911 822 q 1022 635 1022 726 l 1022 539 q 958 539 990 539 q 892 539 925 539 l 892 596 q 872 688 892 660 q 807 717 851 717 q 740 690 760 717 q 721 604 721 663 q 740 527 721 554 q 791 485 760 500 q 856 457 822 469 q 957 408 918 433 q 1014 342 996 383 q 1032 224 1032 300 q 1002 85 1032 136 q 920 13 972 35 q 799 -10 868 -10 m 281 -10 q 163 11 211 -10 q 88 85 114 32 q 63 233 63 138 l 63 281 q 131 281 97 281 q 200 281 165 281 l 200 222 q 211 132 200 164 q 241 88 222 100 q 285 76 260 76 q 351 103 326 76 q 375 206 375 131 q 358 289 375 261 q 306 334 342 317 q 215 374 271 351 q 135 422 168 394 q 85 493 101 450 q 68 600 68 536 q 89 727 68 678 q 158 799 110 776 q 288 822 206 822 q 449 774 393 822 q 506 635 506 726 l 506 539 q 440 539 472 539 q 375 539 407 539 l 375 596 q 355 688 375 660 q 289 717 335 717 q 224 690 243 717 q 204 604 204 663 q 223 527 204 554 q 274 485 242 500 q 339 457 306 469 q 440 408 401 433 q 497 342 479 383 q 515 224 515 300 q 485 85 515 136 q 403 13 456 35 q 281 -10 351 -10 z "},"Ѓ":{"ha":442,"x_min":50,"x_max":421,"o":"m 50 0 l 50 821 l 421 821 l 421 726 l 189 726 l 189 0 l 50 0 m 144 881 l 254 1006 l 378 1006 l 221 881 l 144 881 z "},"H":{"ha":579,"x_min":69,"x_max":510,"o":"m 69 0 l 69 821 l 201 821 l 201 476 l 378 476 l 378 821 l 510 821 l 510 0 l 378 0 l 378 376 l 201 376 l 201 0 l 69 0 z "},"Х":{"ha":485,"x_min":18,"x_max":467,"o":"m 18 0 l 143 421 l 26 821 l 158 821 l 242 519 l 328 821 l 467 821 l 344 419 l 464 0 l 331 0 l 243 301 l 158 0 l 18 0 z "},"Ъ":{"ha":564,"x_min":10,"x_max":513,"o":"m 92 0 l 92 726 l 10 726 l 10 821 l 224 821 l 224 606 l 351 606 q 438 590 401 606 q 493 538 474 574 q 513 438 513 501 l 513 211 q 501 105 513 146 q 467 41 490 64 q 411 9 444 18 q 335 0 378 0 l 92 0 m 224 71 l 306 71 q 356 85 339 71 q 377 132 372 100 q 382 215 382 164 l 382 407 q 378 468 382 443 q 358 508 374 493 q 304 524 342 524 l 224 524 l 224 71 z "},"Ħ":{"ha":579,"x_min":24,"x_max":572,"o":"m 24 657 l 24 721 l 572 721 l 572 657 l 24 657 m 69 0 l 69 821 l 201 821 l 201 476 l 378 476 l 378 821 l 510 821 l 510 0 l 378 0 l 378 376 l 201 376 l 201 0 l 69 0 z "},"I":{"ha":271,"x_min":69,"x_max":201,"o":"m 69 0 l 69 821 l 201 821 l 201 0 l 69 0 z "},"І":{"ha":271,"x_min":69,"x_max":201,"o":"m 69 0 l 69 821 l 201 821 l 201 0 l 69 0 z "},"Я":{"ha":579,"x_min":29,"x_max":511,"o":"m 511 0 l 372 0 l 372 361 l 304 361 q 274 349 286 361 q 255 318 263 338 q 240 274 247 299 l 175 0 l 29 0 l 110 283 q 146 365 125 339 q 213 396 167 392 l 213 396 q 103 442 140 400 q 65 553 65 485 l 65 683 q 108 786 65 751 q 226 821 150 821 l 511 821 l 511 0 m 372 454 l 372 747 l 268 747 q 216 727 236 747 q 196 660 196 707 l 196 556 q 218 477 196 500 q 283 454 240 454 l 372 454 z "},"Í":{"ha":271,"x_min":60,"x_max":293,"o":"m 69 0 l 69 821 l 201 821 l 201 0 l 69 0 m 60 881 l 169 1006 l 293 1006 l 136 881 l 60 881 z "},"Ǐ":{"ha":271,"x_min":-31,"x_max":301,"o":"m 69 0 l 69 821 l 201 821 l 201 0 l 69 0 m 96 875 l -31 1003 l 56 1003 l 136 935 l 217 1003 l 301 1003 l 174 875 l 96 875 z "},"Î":{"ha":271,"x_min":-33,"x_max":304,"o":"m 69 0 l 69 821 l 201 821 l 201 0 l 69 0 m -33 875 l 96 1008 l 174 1008 l 304 876 l 221 876 l 136 949 l 53 875 l -33 875 z "},"Ï":{"ha":271,"x_min":0,"x_max":271,"o":"m 69 0 l 69 821 l 201 821 l 201 0 l 69 0 m 58 883 q 17 900 33 883 q 0 940 0 917 q 17 980 0 964 q 58 996 33 996 q 99 980 83 996 q 115 940 115 964 q 99 900 115 917 q 58 883 83 883 m 213 883 q 171 900 188 883 q 154 940 154 917 q 171 980 154 964 q 213 996 188 996 q 254 980 238 996 q 271 940 271 964 q 254 900 271 917 q 213 883 238 883 z "},"İ":{"ha":271,"x_min":69,"x_max":221,"o":"m 69 0 l 69 821 l 201 821 l 201 0 l 69 0 m 149 885 q 99 905 119 885 q 78 954 79 925 q 99 1002 78 982 q 149 1022 119 1022 q 199 1002 178 1022 q 219 953 219 982 q 199 905 221 925 q 149 885 178 885 z "},"Ị":{"ha":271,"x_min":69,"x_max":201,"o":"m 69 0 l 69 821 l 201 821 l 201 0 l 69 0 m 135 -168 q 93 -151 110 -168 q 76 -112 76 -135 q 93 -72 76 -89 q 135 -56 110 -56 q 177 -72 160 -56 q 194 -112 194 -89 q 177 -151 194 -135 q 135 -168 160 -168 z "},"Е":{"ha":468,"x_min":69,"x_max":439,"o":"m 69 0 l 69 821 l 439 821 l 439 726 l 208 726 l 208 478 l 399 478 l 399 374 l 208 374 l 208 92 l 439 92 l 439 0 l 69 0 z "},"Ѐ":{"ha":468,"x_min":69,"x_max":439,"o":"m 69 0 l 69 821 l 439 821 l 439 726 l 208 726 l 208 478 l 399 478 l 399 374 l 208 374 l 208 92 l 439 92 l 439 0 l 69 0 m 249 881 l 100 1001 l 226 1001 l 332 881 l 249 881 z "},"Ì":{"ha":271,"x_min":-22,"x_max":210,"o":"m 69 0 l 69 821 l 201 821 l 201 0 l 69 0 m 126 881 l -22 1001 l 104 1001 l 210 881 l 126 881 z "},"Ỉ":{"ha":271,"x_min":39,"x_max":235,"o":"m 69 0 l 69 821 l 201 821 l 201 0 l 69 0 m 97 871 l 97 890 q 113 920 97 910 q 143 940 128 931 q 158 967 158 950 l 158 974 q 151 997 158 986 q 126 1008 144 1008 q 99 976 103 1008 l 38 986 q 65 1039 42 1021 q 133 1057 89 1057 q 209 1041 183 1057 q 235 976 235 1025 l 235 971 q 218 928 235 940 q 185 910 201 917 q 168 886 168 903 l 168 871 l 97 871 z "},"И":{"ha":540,"x_min":50,"x_max":489,"o":"m 50 0 l 50 821 l 168 821 l 168 267 l 372 821 l 489 821 l 489 0 l 371 0 l 371 524 l 169 0 l 50 0 z "},"Ѝ":{"ha":540,"x_min":50,"x_max":489,"o":"m 50 0 l 50 821 l 168 821 l 168 267 l 372 821 l 489 821 l 489 0 l 371 0 l 371 524 l 169 0 l 50 0 m 261 881 l 113 1001 l 239 1001 l 344 881 l 261 881 z "},"Й":{"ha":540,"x_min":50,"x_max":489,"o":"m 50 0 l 50 821 l 168 821 l 168 267 l 372 821 l 489 821 l 489 0 l 371 0 l 371 524 l 169 0 l 50 0 m 269 876 q 178 899 210 876 q 134 952 146 921 q 121 1008 122 983 l 194 1008 q 219 957 197 974 q 269 940 240 940 q 323 956 301 940 q 347 1008 344 972 l 421 1008 q 404 946 419 976 q 356 896 389 915 q 269 876 324 876 z "},"Ī":{"ha":271,"x_min":-1,"x_max":274,"o":"m 69 0 l 69 821 l 201 821 l 201 0 l 69 0 m -1 901 l -1 968 l 274 968 l 274 901 l -1 901 z "},"Ё":{"ha":468,"x_min":69,"x_max":439,"o":"m 69 0 l 69 821 l 439 821 l 439 726 l 208 726 l 208 478 l 399 478 l 399 374 l 208 374 l 208 92 l 439 92 l 439 0 l 69 0 m 181 883 q 139 900 156 883 q 122 940 122 917 q 139 980 122 964 q 181 996 156 996 q 222 980 206 996 q 238 940 238 964 q 222 900 238 917 q 181 883 206 883 m 335 883 q 293 900 310 883 q 276 940 276 917 q 293 980 276 964 q 335 996 310 996 q 376 980 360 996 q 393 940 393 964 q 376 900 393 917 q 335 883 360 883 z "},"Į":{"ha":271,"x_min":42,"x_max":229,"o":"m 69 0 l 69 821 l 201 821 l 201 0 l 69 0 m 149 -196 q 72 -170 101 -196 q 42 -110 42 -144 q 72 -39 42 -71 q 144 1 101 -7 l 201 0 q 146 -40 164 -14 q 128 -92 128 -67 q 145 -132 128 -118 q 181 -146 163 -146 q 200 -143 192 -146 q 213 -139 208 -140 l 229 -175 q 202 -188 221 -181 q 149 -196 183 -196 z "},"Ĩ":{"ha":271,"x_min":-21,"x_max":285,"o":"m 69 0 l 69 821 l 201 821 l 201 0 l 69 0 m 194 886 q 158 893 174 886 q 122 913 142 900 q 94 928 110 921 q 63 936 79 936 q 35 924 46 936 q 21 888 24 911 l -21 888 q 3 967 -19 936 q 64 999 26 999 q 103 991 85 999 q 138 972 121 983 q 167 957 153 964 q 194 950 181 950 q 225 963 215 950 q 239 996 235 975 l 285 996 q 270 936 283 961 q 237 899 257 911 q 194 886 217 886 z "},"Ю":{"ha":824,"x_min":50,"x_max":772,"o":"m 551 -17 q 436 -1 486 -17 q 357 62 386 14 q 328 207 328 110 l 328 376 l 183 376 l 183 0 l 50 0 l 50 821 l 183 821 l 183 476 l 328 476 l 328 647 q 357 763 328 722 q 437 818 386 803 q 553 833 488 833 q 669 817 619 833 q 745 762 718 801 q 772 647 772 722 l 772 208 q 745 62 772 110 q 669 -1 718 14 q 551 -17 619 -17 m 553 63 q 597 69 578 63 q 628 97 617 76 q 639 157 639 117 l 639 656 q 628 716 639 696 q 597 743 617 736 q 553 750 578 750 q 508 743 528 750 q 477 716 488 736 q 467 656 467 696 l 467 157 q 477 97 467 117 q 508 69 488 76 q 553 63 528 63 z "},"J":{"ha":325,"x_min":8,"x_max":260,"o":"m 71 -1 q 40 -1 60 -1 q 8 0 21 -1 l 8 93 l 53 92 q 111 107 96 92 q 126 168 126 122 l 126 821 l 260 821 l 260 194 q 243 76 260 119 q 185 16 226 33 q 71 -1 144 -1 z "},"Ј":{"ha":325,"x_min":8,"x_max":260,"o":"m 71 -1 q 40 -1 60 -1 q 8 0 21 -1 l 8 93 l 53 92 q 111 107 96 92 q 126 168 126 122 l 126 821 l 260 821 l 260 194 q 243 76 260 119 q 185 16 226 33 q 71 -1 144 -1 z "},"K":{"ha":551,"x_min":69,"x_max":538,"o":"m 392 0 l 214 426 l 388 821 l 531 821 l 344 426 l 538 0 l 392 0 m 69 0 l 69 821 l 201 821 l 201 0 l 69 0 z "},"К":{"ha":567,"x_min":50,"x_max":544,"o":"m 50 0 l 50 821 l 183 821 l 183 458 l 235 458 l 396 821 l 539 821 l 357 426 l 544 0 l 399 0 l 242 368 l 183 368 l 183 0 l 50 0 z "},"Ķ":{"ha":551,"x_min":69,"x_max":538,"o":"m 392 0 l 214 426 l 388 821 l 531 821 l 344 426 l 538 0 l 392 0 m 69 0 l 69 821 l 201 821 l 201 0 l 69 0 m 222 -249 q 252 -197 240 -221 q 264 -157 264 -172 q 256 -140 264 -147 q 238 -124 247 -133 q 229 -99 229 -115 q 246 -66 229 -81 q 288 -51 263 -51 q 333 -67 315 -51 q 350 -107 350 -83 q 338 -151 350 -125 q 310 -202 326 -176 q 276 -249 294 -228 l 222 -249 z "},"Ќ":{"ha":567,"x_min":50,"x_max":544,"o":"m 50 0 l 50 821 l 183 821 l 183 458 l 235 458 l 396 821 l 539 821 l 357 426 l 544 0 l 399 0 l 242 368 l 183 368 l 183 0 l 50 0 m 207 881 l 317 1006 l 440 1006 l 283 881 l 207 881 z "},"L":{"ha":414,"x_min":69,"x_max":404,"o":"m 69 0 l 69 821 l 200 821 l 200 92 l 404 92 l 404 0 l 69 0 z "},"Ĺ":{"ha":414,"x_min":69,"x_max":404,"o":"m 69 0 l 69 821 l 200 821 l 200 92 l 404 92 l 404 0 l 69 0 m 93 881 l 203 1006 l 326 1006 l 169 881 l 93 881 z "},"Ľ":{"ha":435,"x_min":69,"x_max":417,"o":"m 69 0 l 69 821 l 200 821 l 200 92 l 404 92 l 404 0 l 69 0 m 304 651 l 335 844 l 417 844 l 353 651 l 304 651 z "},"Ļ":{"ha":414,"x_min":69,"x_max":404,"o":"m 69 0 l 69 821 l 200 821 l 200 92 l 404 92 l 404 0 l 69 0 m 167 -249 q 197 -197 185 -221 q 208 -157 208 -172 q 200 -140 208 -147 q 183 -124 192 -133 q 174 -99 174 -115 q 190 -66 174 -81 q 232 -51 207 -51 q 277 -67 260 -51 q 294 -107 294 -83 q 283 -151 294 -125 q 255 -202 271 -176 q 221 -249 239 -228 l 167 -249 z "},"Љ":{"ha":896,"x_min":17,"x_max":844,"o":"m 17 0 l 17 69 q 64 99 43 69 q 89 175 85 128 l 133 821 l 557 821 l 557 0 l 424 0 l 424 726 l 264 726 l 221 139 q 215 94 218 118 q 201 49 213 69 q 167 15 190 28 q 100 0 143 1 l 17 0 m 557 71 l 640 71 q 690 85 674 71 q 711 132 706 100 q 717 215 717 164 l 717 408 q 712 468 717 443 q 691 508 707 493 q 638 524 675 524 l 557 524 l 557 71 m 424 0 l 424 819 l 554 819 l 554 606 l 682 606 q 768 590 732 606 q 824 538 804 574 q 844 438 844 501 l 844 211 q 833 105 844 146 q 799 41 821 64 q 743 9 776 18 q 665 0 710 0 l 424 0 z "},"Ł":{"ha":503,"x_min":43,"x_max":457,"o":"m 124 0 l 124 231 l 43 194 l 43 257 l 124 293 l 124 817 l 254 817 l 254 350 l 371 404 l 371 343 l 254 289 l 254 92 l 457 92 l 457 0 l 124 0 z "},"M":{"ha":740,"x_min":69,"x_max":672,"o":"m 69 0 l 69 821 l 233 821 l 371 238 l 510 821 l 672 821 l 672 0 l 554 0 l 554 633 l 417 0 l 325 0 l 188 633 l 188 0 l 69 0 z "},"N":{"ha":576,"x_min":69,"x_max":507,"o":"m 69 0 l 69 821 l 185 821 l 389 268 l 389 821 l 507 821 l 507 0 l 390 0 l 188 524 l 188 0 l 69 0 z "},"Ń":{"ha":576,"x_min":69,"x_max":507,"o":"m 69 0 l 69 821 l 185 821 l 389 268 l 389 821 l 507 821 l 507 0 l 390 0 l 188 524 l 188 0 l 69 0 m 217 881 l 326 1006 l 450 1006 l 293 881 l 217 881 z "},"Ň":{"ha":576,"x_min":69,"x_max":507,"o":"m 69 0 l 69 821 l 185 821 l 389 268 l 389 821 l 507 821 l 507 0 l 390 0 l 188 524 l 188 0 l 69 0 m 253 875 l 126 1003 l 213 1003 l 293 935 l 374 1003 l 458 1003 l 331 875 l 253 875 z "},"Ņ":{"ha":576,"x_min":69,"x_max":507,"o":"m 69 0 l 69 821 l 185 821 l 389 268 l 389 821 l 507 821 l 507 0 l 390 0 l 188 524 l 188 0 l 69 0 m 221 -249 q 251 -197 239 -221 q 263 -157 263 -172 q 254 -140 263 -147 q 237 -124 246 -133 q 228 -99 228 -115 q 244 -66 228 -81 q 286 -51 261 -51 q 331 -67 314 -51 q 349 -107 349 -83 q 337 -151 349 -125 q 309 -202 325 -176 q 275 -249 293 -228 l 221 -249 z "},"Њ":{"ha":838,"x_min":50,"x_max":782,"o":"m 50 0 l 50 821 l 183 821 l 183 475 l 360 475 l 360 821 l 493 821 l 493 606 l 621 606 q 707 590 671 606 q 763 538 743 574 q 782 438 782 501 l 782 211 q 771 105 782 146 q 737 41 760 64 q 681 9 714 18 q 603 0 647 0 l 360 0 l 360 376 l 183 376 l 183 0 l 50 0 m 493 71 l 575 71 q 625 85 608 71 q 647 131 642 100 q 651 213 651 163 l 651 386 q 647 463 651 433 q 626 508 643 493 q 574 524 610 524 l 493 524 l 493 71 z "},"Ñ":{"ha":576,"x_min":69,"x_max":507,"o":"m 69 0 l 69 821 l 185 821 l 389 268 l 389 821 l 507 821 l 507 0 l 390 0 l 188 524 l 188 0 l 69 0 m 351 886 q 315 893 331 886 q 279 913 299 900 q 251 928 267 921 q 219 936 236 936 q 192 924 203 936 q 178 888 181 911 l 136 888 q 160 967 138 936 q 221 999 183 999 q 260 991 242 999 q 294 972 278 983 q 324 957 310 964 q 351 950 338 950 q 382 963 372 950 q 396 996 392 975 l 442 996 q 427 936 440 961 q 394 899 414 911 q 351 886 374 886 z "},"O":{"ha":560,"x_min":58,"x_max":501,"o":"m 278 -17 q 163 -1 213 -17 q 86 62 114 14 q 58 206 58 110 l 58 649 q 86 763 58 724 q 164 818 114 803 q 279 833 214 833 q 394 817 344 833 q 472 762 443 801 q 501 649 501 722 l 501 207 q 472 61 501 108 q 393 -1 443 14 q 278 -17 343 -17 m 278 63 q 325 70 304 63 q 357 99 346 78 q 368 160 368 119 l 368 653 q 357 713 368 692 q 325 742 346 735 q 278 750 304 750 q 231 742 251 750 q 200 713 211 735 q 189 653 189 692 l 189 160 q 200 99 189 119 q 231 70 211 78 q 278 63 251 63 z "},"О":{"ha":560,"x_min":58,"x_max":501,"o":"m 278 -17 q 163 -1 213 -17 q 86 62 114 14 q 58 206 58 110 l 58 649 q 86 763 58 724 q 164 818 114 803 q 279 833 214 833 q 394 817 344 833 q 472 762 443 801 q 501 649 501 722 l 501 207 q 472 61 501 108 q 393 -1 443 14 q 278 -17 343 -17 m 278 63 q 325 70 304 63 q 357 99 346 78 q 368 160 368 119 l 368 653 q 357 713 368 692 q 325 742 346 735 q 278 750 304 750 q 231 742 251 750 q 200 713 211 735 q 189 653 189 692 l 189 160 q 200 99 189 119 q 231 70 211 78 q 278 63 251 63 z "},"Œ":{"ha":783,"x_min":58,"x_max":753,"o":"m 278 -17 q 164 -1 214 -17 q 86 62 114 14 q 58 206 58 110 l 58 649 q 87 763 58 724 q 165 818 115 803 q 279 833 215 833 q 387 817 340 833 q 460 762 433 801 q 486 649 486 722 l 486 207 q 460 61 486 108 q 386 -1 433 14 q 278 -17 339 -17 m 279 63 q 326 70 306 63 q 357 99 346 78 q 368 160 368 119 l 368 653 q 357 713 368 692 q 325 742 346 735 q 279 750 304 750 q 233 742 253 750 q 201 713 213 735 q 189 653 189 692 l 189 160 q 201 99 189 119 q 233 70 213 78 q 279 63 253 63 m 369 0 l 369 821 l 753 821 l 753 726 l 501 726 l 501 478 l 714 478 l 714 374 l 501 374 l 501 92 l 753 92 l 753 0 l 369 0 z "},"Ó":{"ha":560,"x_min":58,"x_max":501,"o":"m 278 -17 q 163 -1 213 -17 q 86 62 114 14 q 58 206 58 110 l 58 649 q 86 763 58 724 q 164 818 114 803 q 279 833 214 833 q 394 817 344 833 q 472 762 443 801 q 501 649 501 722 l 501 207 q 472 61 501 108 q 393 -1 443 14 q 278 -17 343 -17 m 278 63 q 325 70 304 63 q 357 99 346 78 q 368 160 368 119 l 368 653 q 357 713 368 692 q 325 742 346 735 q 278 750 304 750 q 231 742 251 750 q 200 713 211 735 q 189 653 189 692 l 189 160 q 200 99 189 119 q 231 70 211 78 q 278 63 251 63 m 204 881 l 314 1006 l 438 1006 l 281 881 l 204 881 z "},"Ǒ":{"ha":560,"x_min":58,"x_max":501,"o":"m 278 -17 q 163 -1 213 -17 q 86 62 114 14 q 58 206 58 110 l 58 649 q 86 763 58 724 q 164 818 114 803 q 279 833 214 833 q 394 817 344 833 q 472 762 443 801 q 501 649 501 722 l 501 207 q 472 61 501 108 q 393 -1 443 14 q 278 -17 343 -17 m 278 63 q 325 70 304 63 q 357 99 346 78 q 368 160 368 119 l 368 653 q 357 713 368 692 q 325 742 346 735 q 278 750 304 750 q 231 742 251 750 q 200 713 211 735 q 189 653 189 692 l 189 160 q 200 99 189 119 q 231 70 211 78 q 278 63 251 63 m 240 875 l 114 1003 l 200 1003 l 281 935 l 361 1003 l 446 1003 l 318 875 l 240 875 z "},"Ô":{"ha":560,"x_min":58,"x_max":501,"o":"m 278 -17 q 163 -1 213 -17 q 86 62 114 14 q 58 206 58 110 l 58 649 q 86 763 58 724 q 164 818 114 803 q 279 833 214 833 q 394 817 344 833 q 472 762 443 801 q 501 649 501 722 l 501 207 q 472 61 501 108 q 393 -1 443 14 q 278 -17 343 -17 m 278 63 q 325 70 304 63 q 357 99 346 78 q 368 160 368 119 l 368 653 q 357 713 368 692 q 325 742 346 735 q 278 750 304 750 q 231 742 251 750 q 200 713 211 735 q 189 653 189 692 l 189 160 q 200 99 189 119 q 231 70 211 78 q 278 63 251 63 m 111 875 l 240 1008 l 318 1008 l 449 876 l 365 876 l 281 949 l 197 875 l 111 875 z "},"Ố":{"ha":560,"x_min":58,"x_max":589,"o":"m 278 -17 q 163 -1 213 -17 q 86 62 114 14 q 58 206 58 110 l 58 649 q 86 763 58 724 q 164 818 114 803 q 279 833 214 833 q 394 817 344 833 q 472 762 443 801 q 501 649 501 722 l 501 207 q 472 61 501 108 q 393 -1 443 14 q 278 -17 343 -17 m 278 63 q 325 70 304 63 q 357 99 346 78 q 368 160 368 119 l 368 653 q 357 713 368 692 q 325 742 346 735 q 278 750 304 750 q 231 742 251 750 q 200 713 211 735 q 189 653 189 692 l 189 160 q 200 99 189 119 q 231 70 211 78 q 278 63 251 63 m 150 869 l 243 976 l 315 976 l 410 869 l 333 869 l 281 921 l 229 869 l 150 869 m 408 940 l 464 1040 l 589 1040 l 490 940 l 408 940 z "},"Ộ":{"ha":560,"x_min":58,"x_max":501,"o":"m 278 -17 q 163 -1 213 -17 q 86 62 114 14 q 58 206 58 110 l 58 649 q 86 763 58 724 q 164 818 114 803 q 279 833 214 833 q 394 817 344 833 q 472 762 443 801 q 501 649 501 722 l 501 207 q 472 61 501 108 q 393 -1 443 14 q 278 -17 343 -17 m 278 63 q 325 70 304 63 q 357 99 346 78 q 368 160 368 119 l 368 653 q 357 713 368 692 q 325 742 346 735 q 278 750 304 750 q 231 742 251 750 q 200 713 211 735 q 189 653 189 692 l 189 160 q 200 99 189 119 q 231 70 211 78 q 278 63 251 63 m 279 -168 q 238 -151 254 -168 q 221 -112 221 -135 q 238 -72 221 -89 q 279 -56 254 -56 q 322 -72 304 -56 q 339 -112 339 -89 q 322 -151 339 -135 q 279 -168 304 -168 m 111 875 l 240 1008 l 318 1008 l 449 876 l 365 876 l 281 949 l 197 875 l 111 875 z "},"Ồ":{"ha":560,"x_min":58,"x_max":519,"o":"m 278 -17 q 163 -1 213 -17 q 86 62 114 14 q 58 206 58 110 l 58 649 q 86 763 58 724 q 164 818 114 803 q 279 833 214 833 q 394 817 344 833 q 472 762 443 801 q 501 649 501 722 l 501 207 q 472 61 501 108 q 393 -1 443 14 q 278 -17 343 -17 m 278 63 q 325 70 304 63 q 357 99 346 78 q 368 160 368 119 l 368 653 q 357 713 368 692 q 325 742 346 735 q 278 750 304 750 q 231 742 251 750 q 200 713 211 735 q 189 653 189 692 l 189 160 q 200 99 189 119 q 231 70 211 78 q 278 63 251 63 m 150 869 l 243 976 l 315 976 l 410 869 l 333 869 l 281 921 l 229 869 l 150 869 m 438 939 l 340 1039 l 464 1039 l 519 939 l 438 939 z "},"Ổ":{"ha":560,"x_min":58,"x_max":531,"o":"m 278 -17 q 163 -1 213 -17 q 86 62 114 14 q 58 206 58 110 l 58 649 q 86 763 58 724 q 164 818 114 803 q 279 833 214 833 q 394 817 344 833 q 472 762 443 801 q 501 649 501 722 l 501 207 q 472 61 501 108 q 393 -1 443 14 q 278 -17 343 -17 m 278 63 q 325 70 304 63 q 357 99 346 78 q 368 160 368 119 l 368 653 q 357 713 368 692 q 325 742 346 735 q 278 750 304 750 q 231 742 251 750 q 200 713 211 735 q 189 653 189 692 l 189 160 q 200 99 189 119 q 231 70 211 78 q 278 63 251 63 m 150 869 l 243 976 l 315 976 l 410 869 l 333 869 l 281 921 l 229 869 l 150 869 m 417 935 l 417 946 q 428 967 417 960 q 451 981 439 975 q 463 999 463 988 l 463 1004 q 457 1021 463 1015 q 443 1026 451 1026 q 425 1006 428 1026 l 371 1014 q 392 1056 374 1042 q 449 1071 410 1071 q 513 1058 494 1071 q 531 1007 531 1046 l 531 1003 q 519 974 531 982 q 497 960 508 965 q 486 944 486 956 l 486 935 l 417 935 z "},"Ỗ":{"ha":560,"x_min":58,"x_max":501,"o":"m 278 -17 q 163 -1 213 -17 q 86 62 114 14 q 58 206 58 110 l 58 649 q 86 763 58 724 q 164 818 114 803 q 279 833 214 833 q 394 817 344 833 q 472 762 443 801 q 501 649 501 722 l 501 207 q 472 61 501 108 q 393 -1 443 14 q 278 -17 343 -17 m 278 63 q 325 70 304 63 q 357 99 346 78 q 368 160 368 119 l 368 653 q 357 713 368 692 q 325 742 346 735 q 278 750 304 750 q 231 742 251 750 q 200 713 211 735 q 189 653 189 692 l 189 160 q 200 99 189 119 q 231 70 211 78 q 278 63 251 63 m 150 869 l 243 976 l 315 976 l 410 869 l 333 869 l 281 921 l 229 869 l 150 869 m 326 1000 q 298 1006 311 1000 q 272 1019 285 1013 q 249 1031 260 1026 q 226 1036 238 1036 q 207 1026 215 1036 q 197 1001 199 1017 l 163 1001 q 182 1069 164 1044 q 228 1094 200 1094 q 257 1090 243 1094 q 285 1076 271 1086 q 307 1066 296 1071 q 328 1061 318 1061 q 349 1070 342 1061 q 358 1092 357 1079 l 399 1092 q 387 1042 399 1063 q 359 1010 375 1021 q 326 1000 343 1000 z "},"Ö":{"ha":560,"x_min":58,"x_max":501,"o":"m 278 -17 q 163 -1 213 -17 q 86 62 114 14 q 58 206 58 110 l 58 649 q 86 763 58 724 q 164 818 114 803 q 279 833 214 833 q 394 817 344 833 q 472 762 443 801 q 501 649 501 722 l 501 207 q 472 61 501 108 q 393 -1 443 14 q 278 -17 343 -17 m 278 63 q 325 70 304 63 q 357 99 346 78 q 368 160 368 119 l 368 653 q 357 713 368 692 q 325 742 346 735 q 278 750 304 750 q 231 742 251 750 q 200 713 211 735 q 189 653 189 692 l 189 160 q 200 99 189 119 q 231 70 211 78 q 278 63 251 63 m 203 883 q 161 900 178 883 q 144 940 144 917 q 161 980 144 964 q 203 996 178 996 q 244 980 228 996 q 260 940 260 964 q 244 900 260 917 q 203 883 228 883 m 357 883 q 315 900 332 883 q 299 940 299 917 q 315 980 299 964 q 357 996 332 996 q 399 980 382 996 q 415 940 415 964 q 399 900 415 917 q 357 883 382 883 z "},"Ọ":{"ha":560,"x_min":58,"x_max":501,"o":"m 278 -17 q 163 -1 213 -17 q 86 62 114 14 q 58 206 58 110 l 58 649 q 86 763 58 724 q 164 818 114 803 q 279 833 214 833 q 394 817 344 833 q 472 762 443 801 q 501 649 501 722 l 501 207 q 472 61 501 108 q 393 -1 443 14 q 278 -17 343 -17 m 278 63 q 325 70 304 63 q 357 99 346 78 q 368 160 368 119 l 368 653 q 357 713 368 692 q 325 742 346 735 q 278 750 304 750 q 231 742 251 750 q 200 713 211 735 q 189 653 189 692 l 189 160 q 200 99 189 119 q 231 70 211 78 q 278 63 251 63 m 279 -168 q 238 -151 254 -168 q 221 -112 221 -135 q 238 -72 221 -89 q 279 -56 254 -56 q 322 -72 304 -56 q 339 -112 339 -89 q 322 -151 339 -135 q 279 -168 304 -168 z "},"Ò":{"ha":560,"x_min":58,"x_max":501,"o":"m 278 -17 q 163 -1 213 -17 q 86 62 114 14 q 58 206 58 110 l 58 649 q 86 763 58 724 q 164 818 114 803 q 279 833 214 833 q 394 817 344 833 q 472 762 443 801 q 501 649 501 722 l 501 207 q 472 61 501 108 q 393 -1 443 14 q 278 -17 343 -17 m 278 63 q 325 70 304 63 q 357 99 346 78 q 368 160 368 119 l 368 653 q 357 713 368 692 q 325 742 346 735 q 278 750 304 750 q 231 742 251 750 q 200 713 211 735 q 189 653 189 692 l 189 160 q 200 99 189 119 q 231 70 211 78 q 278 63 251 63 m 271 881 l 122 1001 l 249 1001 l 354 881 l 271 881 z "},"Ỏ":{"ha":560,"x_min":58,"x_max":501,"o":"m 278 -17 q 163 -1 213 -17 q 86 62 114 14 q 58 206 58 110 l 58 649 q 86 763 58 724 q 164 818 114 803 q 279 833 214 833 q 394 817 344 833 q 472 762 443 801 q 501 649 501 722 l 501 207 q 472 61 501 108 q 393 -1 443 14 q 278 -17 343 -17 m 278 63 q 325 70 304 63 q 357 99 346 78 q 368 160 368 119 l 368 653 q 357 713 368 692 q 325 742 346 735 q 278 750 304 750 q 231 742 251 750 q 200 713 211 735 q 189 653 189 692 l 189 160 q 200 99 189 119 q 231 70 211 78 q 278 63 251 63 m 242 871 l 242 890 q 257 920 242 910 q 288 940 272 931 q 303 967 303 950 l 303 974 q 296 997 303 986 q 271 1008 289 1008 q 243 976 247 1008 l 182 986 q 210 1039 186 1021 q 278 1057 233 1057 q 353 1041 328 1057 q 379 976 379 1025 l 379 971 q 363 928 379 940 q 329 910 346 917 q 313 886 313 903 l 313 871 l 242 871 z "},"Ơ":{"ha":560,"x_min":58,"x_max":519,"o":"m 278 -17 q 163 -1 213 -17 q 86 62 114 14 q 58 206 58 110 l 58 649 q 86 763 58 724 q 164 818 114 803 q 279 833 214 833 q 394 817 344 833 q 472 762 443 801 q 501 649 501 722 l 501 207 q 472 61 501 108 q 393 -1 443 14 q 278 -17 343 -17 m 278 63 q 325 70 304 63 q 357 99 346 78 q 368 160 368 119 l 368 653 q 357 713 368 692 q 325 742 346 735 q 278 750 304 750 q 231 742 251 750 q 200 713 211 735 q 189 653 189 692 l 189 160 q 200 99 189 119 q 231 70 211 78 q 278 63 251 63 m 349 761 l 346 821 l 367 821 q 432 885 432 821 l 432 908 l 518 908 l 518 888 q 475 791 518 821 q 349 761 432 761 z "},"Ớ":{"ha":560,"x_min":58,"x_max":519,"o":"m 278 -17 q 163 -1 213 -17 q 86 62 114 14 q 58 206 58 110 l 58 649 q 86 763 58 724 q 164 818 114 803 q 279 833 214 833 q 394 817 344 833 q 472 762 443 801 q 501 649 501 722 l 501 207 q 472 61 501 108 q 393 -1 443 14 q 278 -17 343 -17 m 278 63 q 325 70 304 63 q 357 99 346 78 q 368 160 368 119 l 368 653 q 357 713 368 692 q 325 742 346 735 q 278 750 304 750 q 231 742 251 750 q 200 713 211 735 q 189 653 189 692 l 189 160 q 200 99 189 119 q 231 70 211 78 q 278 63 251 63 m 349 761 l 346 821 l 367 821 q 432 885 432 821 l 432 908 l 518 908 l 518 888 q 475 791 518 821 q 349 761 432 761 m 204 881 l 314 1006 l 438 1006 l 281 881 l 204 881 z "},"Ợ":{"ha":560,"x_min":58,"x_max":519,"o":"m 278 -17 q 163 -1 213 -17 q 86 62 114 14 q 58 206 58 110 l 58 649 q 86 763 58 724 q 164 818 114 803 q 279 833 214 833 q 394 817 344 833 q 472 762 443 801 q 501 649 501 722 l 501 207 q 472 61 501 108 q 393 -1 443 14 q 278 -17 343 -17 m 278 63 q 325 70 304 63 q 357 99 346 78 q 368 160 368 119 l 368 653 q 357 713 368 692 q 325 742 346 735 q 278 750 304 750 q 231 742 251 750 q 200 713 211 735 q 189 653 189 692 l 189 160 q 200 99 189 119 q 231 70 211 78 q 278 63 251 63 m 349 761 l 346 821 l 367 821 q 432 885 432 821 l 432 908 l 518 908 l 518 888 q 475 791 518 821 q 349 761 432 761 m 279 -168 q 238 -151 254 -168 q 221 -112 221 -135 q 238 -72 221 -89 q 279 -56 254 -56 q 322 -72 304 -56 q 339 -112 339 -89 q 322 -151 339 -135 q 279 -168 304 -168 z "},"Ờ":{"ha":560,"x_min":58,"x_max":519,"o":"m 278 -17 q 163 -1 213 -17 q 86 62 114 14 q 58 206 58 110 l 58 649 q 86 763 58 724 q 164 818 114 803 q 279 833 214 833 q 394 817 344 833 q 472 762 443 801 q 501 649 501 722 l 501 207 q 472 61 501 108 q 393 -1 443 14 q 278 -17 343 -17 m 278 63 q 325 70 304 63 q 357 99 346 78 q 368 160 368 119 l 368 653 q 357 713 368 692 q 325 742 346 735 q 278 750 304 750 q 231 742 251 750 q 200 713 211 735 q 189 653 189 692 l 189 160 q 200 99 189 119 q 231 70 211 78 q 278 63 251 63 m 349 761 l 346 821 l 367 821 q 432 885 432 821 l 432 908 l 518 908 l 518 888 q 475 791 518 821 q 349 761 432 761 m 271 881 l 122 1001 l 249 1001 l 354 881 l 271 881 z "},"Ở":{"ha":560,"x_min":58,"x_max":519,"o":"m 278 -17 q 163 -1 213 -17 q 86 62 114 14 q 58 206 58 110 l 58 649 q 86 763 58 724 q 164 818 114 803 q 279 833 214 833 q 394 817 344 833 q 472 762 443 801 q 501 649 501 722 l 501 207 q 472 61 501 108 q 393 -1 443 14 q 278 -17 343 -17 m 278 63 q 325 70 304 63 q 357 99 346 78 q 368 160 368 119 l 368 653 q 357 713 368 692 q 325 742 346 735 q 278 750 304 750 q 231 742 251 750 q 200 713 211 735 q 189 653 189 692 l 189 160 q 200 99 189 119 q 231 70 211 78 q 278 63 251 63 m 349 761 l 346 821 l 367 821 q 432 885 432 821 l 432 908 l 518 908 l 518 888 q 475 791 518 821 q 349 761 432 761 m 242 871 l 242 890 q 257 920 242 910 q 288 940 272 931 q 303 967 303 950 l 303 974 q 296 997 303 986 q 271 1008 289 1008 q 243 976 247 1008 l 182 986 q 210 1039 186 1021 q 278 1057 233 1057 q 353 1041 328 1057 q 379 976 379 1025 l 379 971 q 363 928 379 940 q 329 910 346 917 q 313 886 313 903 l 313 871 l 242 871 z "},"Ỡ":{"ha":560,"x_min":58,"x_max":519,"o":"m 278 -17 q 163 -1 213 -17 q 86 62 114 14 q 58 206 58 110 l 58 649 q 86 763 58 724 q 164 818 114 803 q 279 833 214 833 q 394 817 344 833 q 472 762 443 801 q 501 649 501 722 l 501 207 q 472 61 501 108 q 393 -1 443 14 q 278 -17 343 -17 m 278 63 q 325 70 304 63 q 357 99 346 78 q 368 160 368 119 l 368 653 q 357 713 368 692 q 325 742 346 735 q 278 750 304 750 q 231 742 251 750 q 200 713 211 735 q 189 653 189 692 l 189 160 q 200 99 189 119 q 231 70 211 78 q 278 63 251 63 m 349 761 l 346 821 l 367 821 q 432 885 432 821 l 432 908 l 518 908 l 518 888 q 475 791 518 821 q 349 761 432 761 m 339 886 q 302 893 318 886 q 267 913 286 900 q 239 928 254 921 q 207 936 224 936 q 179 924 190 936 q 165 888 168 911 l 124 888 q 148 967 125 936 q 208 999 171 999 q 247 991 229 999 q 282 972 265 983 q 311 957 297 964 q 339 950 325 950 q 369 963 360 950 q 383 996 379 975 l 429 996 q 415 936 428 961 q 381 899 401 911 q 339 886 361 886 z "},"Ő":{"ha":560,"x_min":58,"x_max":501,"o":"m 278 -17 q 163 -1 213 -17 q 86 62 114 14 q 58 206 58 110 l 58 649 q 86 763 58 724 q 164 818 114 803 q 279 833 214 833 q 394 817 344 833 q 472 762 443 801 q 501 649 501 722 l 501 207 q 472 61 501 108 q 393 -1 443 14 q 278 -17 343 -17 m 278 63 q 325 70 304 63 q 357 99 346 78 q 368 160 368 119 l 368 653 q 357 713 368 692 q 325 742 346 735 q 278 750 304 750 q 231 742 251 750 q 200 713 211 735 q 189 653 189 692 l 189 160 q 200 99 189 119 q 231 70 211 78 q 278 63 251 63 m 181 874 l 210 1008 l 315 1008 l 233 874 l 181 874 m 299 874 l 343 1008 l 449 1008 l 360 874 l 299 874 z "},"Ō":{"ha":560,"x_min":58,"x_max":501,"o":"m 278 -17 q 163 -1 213 -17 q 86 62 114 14 q 58 206 58 110 l 58 649 q 86 763 58 724 q 164 818 114 803 q 279 833 214 833 q 394 817 344 833 q 472 762 443 801 q 501 649 501 722 l 501 207 q 472 61 501 108 q 393 -1 443 14 q 278 -17 343 -17 m 278 63 q 325 70 304 63 q 357 99 346 78 q 368 160 368 119 l 368 653 q 357 713 368 692 q 325 742 346 735 q 278 750 304 750 q 231 742 251 750 q 200 713 211 735 q 189 653 189 692 l 189 160 q 200 99 189 119 q 231 70 211 78 q 278 63 251 63 m 143 901 l 143 968 l 418 968 l 418 901 l 143 901 z "},"Ω":{"ha":833,"x_min":60,"x_max":807,"o":"m 60 0 l 60 100 l 278 94 l 256 108 q 160 206 197 154 q 105 316 122 258 q 88 433 88 374 q 107 574 88 510 q 168 685 126 638 q 276 758 210 732 q 436 785 342 785 q 594 758 529 785 q 700 683 660 731 q 760 574 740 636 q 779 442 779 513 q 760 319 779 378 q 704 208 742 260 q 610 108 667 156 l 586 94 l 807 100 l 807 0 l 482 0 l 482 76 q 565 158 532 117 q 617 241 599 199 q 644 327 636 283 q 651 415 651 371 q 629 561 651 497 q 558 663 607 625 q 435 700 510 700 q 310 663 360 700 q 238 559 261 625 q 214 407 214 493 q 222 326 214 368 q 248 240 229 283 q 300 155 267 196 q 385 76 333 114 l 385 0 l 60 0 z "},"Ø":{"ha":582,"x_min":40,"x_max":529,"o":"m 40 -21 l 464 821 l 529 821 l 104 -21 l 40 -21 m 290 -17 q 175 -1 225 -17 q 96 62 125 14 q 67 206 67 110 l 67 649 q 96 763 67 724 q 176 818 125 803 q 292 833 226 833 q 407 817 358 833 q 483 762 456 801 q 510 649 510 722 l 510 207 q 483 61 510 108 q 407 -1 456 14 q 290 -17 358 -17 m 292 63 q 336 69 317 63 q 367 97 356 76 q 378 160 378 118 l 378 653 q 367 715 378 694 q 336 743 356 736 q 292 750 317 750 q 247 743 267 750 q 217 715 228 736 q 206 653 206 694 l 206 160 q 217 97 206 118 q 247 69 228 76 q 292 63 267 63 z "},"Õ":{"ha":560,"x_min":58,"x_max":501,"o":"m 278 -17 q 163 -1 213 -17 q 86 62 114 14 q 58 206 58 110 l 58 649 q 86 763 58 724 q 164 818 114 803 q 279 833 214 833 q 394 817 344 833 q 472 762 443 801 q 501 649 501 722 l 501 207 q 472 61 501 108 q 393 -1 443 14 q 278 -17 343 -17 m 278 63 q 325 70 304 63 q 357 99 346 78 q 368 160 368 119 l 368 653 q 357 713 368 692 q 325 742 346 735 q 278 750 304 750 q 231 742 251 750 q 200 713 211 735 q 189 653 189 692 l 189 160 q 200 99 189 119 q 231 70 211 78 q 278 63 251 63 m 339 886 q 302 893 318 886 q 267 913 286 900 q 239 928 254 921 q 207 936 224 936 q 179 924 190 936 q 165 888 168 911 l 124 888 q 148 967 125 936 q 208 999 171 999 q 247 991 229 999 q 282 972 265 983 q 311 957 297 964 q 339 950 325 950 q 369 963 360 950 q 383 996 379 975 l 429 996 q 415 936 428 961 q 381 899 401 911 q 339 886 361 886 z "},"P":{"ha":540,"x_min":69,"x_max":508,"o":"m 69 0 l 69 821 l 347 821 q 467 786 425 821 q 508 683 508 751 l 508 538 q 495 440 508 485 q 445 367 482 394 q 339 339 408 339 l 208 339 l 208 0 l 69 0 m 208 414 l 293 414 q 356 447 335 414 q 376 553 376 479 l 376 626 q 358 719 376 692 q 308 747 340 747 l 208 747 l 208 414 z "},"П":{"ha":539,"x_min":50,"x_max":488,"o":"m 50 0 l 50 821 l 488 821 l 488 0 l 349 0 l 349 726 l 190 726 l 190 0 l 50 0 z "},"Q":{"ha":565,"x_min":58,"x_max":507,"o":"m 410 -168 l 321 -11 q 301 -13 311 -12 q 279 -14 292 -14 q 165 1 214 -14 q 87 65 115 17 q 58 208 58 113 l 58 649 q 88 763 58 724 q 168 818 117 803 q 286 833 219 833 q 402 817 353 833 q 479 762 451 801 q 507 649 507 722 l 507 210 q 485 81 507 126 q 425 15 464 36 l 501 -115 l 410 -168 m 285 65 q 331 72 311 65 q 363 100 351 79 q 374 163 374 121 l 374 653 q 363 715 374 694 q 331 743 351 736 q 285 750 311 750 q 238 743 258 750 q 207 715 218 736 q 196 653 196 694 l 196 163 q 207 100 196 121 q 238 72 218 79 q 285 65 258 65 z "},"R":{"ha":579,"x_min":69,"x_max":550,"o":"m 69 0 l 69 821 l 353 821 q 473 786 431 821 q 515 683 515 751 l 515 553 q 478 442 515 485 q 367 396 440 400 l 367 396 q 434 365 414 392 q 471 283 454 339 l 550 0 l 404 0 l 339 274 q 325 318 333 299 q 306 349 317 338 q 275 361 294 361 l 207 361 l 207 0 l 69 0 m 207 454 l 296 454 q 362 477 339 454 q 385 556 385 500 l 385 660 q 364 727 385 707 q 313 747 343 747 l 207 747 l 207 454 z "},"Ŕ":{"ha":579,"x_min":69,"x_max":550,"o":"m 69 0 l 69 821 l 353 821 q 473 786 431 821 q 515 683 515 751 l 515 553 q 478 442 515 485 q 367 396 440 400 l 367 396 q 434 365 414 392 q 471 283 454 339 l 550 0 l 404 0 l 339 274 q 325 318 333 299 q 306 349 317 338 q 275 361 294 361 l 207 361 l 207 0 l 69 0 m 207 454 l 296 454 q 362 477 339 454 q 385 556 385 500 l 385 660 q 364 727 385 707 q 313 747 343 747 l 207 747 l 207 454 m 213 881 l 322 1006 l 446 1006 l 289 881 l 213 881 z "},"Ř":{"ha":579,"x_min":69,"x_max":550,"o":"m 69 0 l 69 821 l 353 821 q 473 786 431 821 q 515 683 515 751 l 515 553 q 478 442 515 485 q 367 396 440 400 l 367 396 q 434 365 414 392 q 471 283 454 339 l 550 0 l 404 0 l 339 274 q 325 318 333 299 q 306 349 317 338 q 275 361 294 361 l 207 361 l 207 0 l 69 0 m 207 454 l 296 454 q 362 477 339 454 q 385 556 385 500 l 385 660 q 364 727 385 707 q 313 747 343 747 l 207 747 l 207 454 m 250 875 l 124 1003 l 210 1003 l 290 935 l 371 1003 l 456 1003 l 328 875 l 250 875 z "},"Ŗ":{"ha":579,"x_min":69,"x_max":550,"o":"m 69 0 l 69 821 l 353 821 q 473 786 431 821 q 515 683 515 751 l 515 553 q 478 442 515 485 q 367 396 440 400 l 367 396 q 434 365 414 392 q 471 283 454 339 l 550 0 l 404 0 l 339 274 q 325 318 333 299 q 306 349 317 338 q 275 361 294 361 l 207 361 l 207 0 l 69 0 m 207 454 l 296 454 q 362 477 339 454 q 385 556 385 500 l 385 660 q 364 727 385 707 q 313 747 343 747 l 207 747 l 207 454 m 231 -249 q 260 -197 249 -221 q 272 -157 272 -172 q 264 -140 272 -147 q 247 -124 256 -133 q 238 -99 238 -115 q 254 -66 238 -81 q 296 -51 271 -51 q 341 -67 324 -51 q 358 -107 358 -83 q 347 -151 358 -125 q 319 -202 335 -176 q 285 -249 303 -228 l 231 -249 z "},"S":{"ha":533,"x_min":42,"x_max":493,"o":"m 261 -10 q 143 11 193 -10 q 67 85 93 32 q 42 233 42 138 l 42 281 q 110 281 75 281 q 178 281 144 281 l 178 222 q 189 132 178 164 q 219 88 200 100 q 264 76 239 76 q 328 103 304 76 q 353 206 353 131 q 336 289 353 261 q 284 334 319 317 q 193 374 249 351 q 114 422 147 394 q 64 493 81 450 q 47 600 47 536 q 67 727 47 678 q 136 799 88 776 q 267 822 185 822 q 428 774 372 822 q 483 635 483 726 l 483 539 q 419 539 451 539 q 353 539 386 539 l 353 596 q 333 688 353 660 q 268 717 313 717 q 202 690 222 717 q 182 604 182 663 q 201 527 182 554 q 252 485 221 500 q 317 457 283 469 q 418 408 379 433 q 475 342 457 383 q 493 224 493 300 q 465 85 493 136 q 384 13 436 35 q 261 -10 332 -10 z "},"Ś":{"ha":533,"x_min":42,"x_max":493,"o":"m 261 -10 q 143 11 193 -10 q 67 85 93 32 q 42 233 42 138 l 42 281 q 110 281 75 281 q 178 281 144 281 l 178 222 q 189 132 178 164 q 219 88 200 100 q 264 76 239 76 q 328 103 304 76 q 353 206 353 131 q 336 289 353 261 q 284 334 319 317 q 193 374 249 351 q 114 422 147 394 q 64 493 81 450 q 47 600 47 536 q 67 727 47 678 q 136 799 88 776 q 267 822 185 822 q 428 774 372 822 q 483 635 483 726 l 483 539 q 419 539 451 539 q 353 539 386 539 l 353 596 q 333 688 353 660 q 268 717 313 717 q 202 690 222 717 q 182 604 182 663 q 201 527 182 554 q 252 485 221 500 q 317 457 283 469 q 418 408 379 433 q 475 342 457 383 q 493 224 493 300 q 465 85 493 136 q 384 13 436 35 q 261 -10 332 -10 m 190 881 l 300 1006 l 424 1006 l 267 881 l 190 881 z "},"Š":{"ha":533,"x_min":42,"x_max":493,"o":"m 261 -10 q 143 11 193 -10 q 67 85 93 32 q 42 233 42 138 l 42 281 q 110 281 75 281 q 178 281 144 281 l 178 222 q 189 132 178 164 q 219 88 200 100 q 264 76 239 76 q 328 103 304 76 q 353 206 353 131 q 336 289 353 261 q 284 334 319 317 q 193 374 249 351 q 114 422 147 394 q 64 493 81 450 q 47 600 47 536 q 67 727 47 678 q 136 799 88 776 q 267 822 185 822 q 428 774 372 822 q 483 635 483 726 l 483 539 q 419 539 451 539 q 353 539 386 539 l 353 596 q 333 688 353 660 q 268 717 313 717 q 202 690 222 717 q 182 604 182 663 q 201 527 182 554 q 252 485 221 500 q 317 457 283 469 q 418 408 379 433 q 475 342 457 383 q 493 224 493 300 q 465 85 493 136 q 384 13 436 35 q 261 -10 332 -10 m 228 875 l 101 1003 l 188 1003 l 268 935 l 349 1003 l 433 1003 l 306 875 l 228 875 z "},"Ş":{"ha":533,"x_min":42,"x_max":493,"o":"m 261 -10 q 143 11 193 -10 q 67 85 93 32 q 42 233 42 138 l 42 281 q 110 281 75 281 q 178 281 144 281 l 178 222 q 189 132 178 164 q 219 88 200 100 q 264 76 239 76 q 328 103 304 76 q 353 206 353 131 q 336 289 353 261 q 284 334 319 317 q 193 374 249 351 q 114 422 147 394 q 64 493 81 450 q 47 600 47 536 q 67 727 47 678 q 136 799 88 776 q 267 822 185 822 q 428 774 372 822 q 483 635 483 726 l 483 539 q 419 539 451 539 q 353 539 386 539 l 353 596 q 333 688 353 660 q 268 717 313 717 q 202 690 222 717 q 182 604 182 663 q 201 527 182 554 q 252 485 221 500 q 317 457 283 469 q 418 408 379 433 q 475 342 457 383 q 493 224 493 300 q 465 85 493 136 q 384 13 436 35 q 261 -10 332 -10 m 261 -215 q 215 -206 236 -215 q 185 -192 194 -197 l 201 -149 q 226 -161 210 -156 q 256 -167 243 -167 q 292 -156 279 -167 q 304 -126 304 -144 q 294 -103 304 -111 q 268 -94 283 -94 q 251 -98 258 -94 q 238 -106 243 -101 l 199 -85 l 243 0 l 294 0 l 257 -72 l 249 -68 q 271 -59 258 -62 q 299 -56 283 -56 q 357 -78 336 -56 q 378 -126 378 -101 q 347 -190 378 -164 q 261 -215 317 -215 z "},"Ș":{"ha":533,"x_min":42,"x_max":493,"o":"m 261 -10 q 143 11 193 -10 q 67 85 93 32 q 42 233 42 138 l 42 281 q 110 281 75 281 q 178 281 144 281 l 178 222 q 189 132 178 164 q 219 88 200 100 q 264 76 239 76 q 328 103 304 76 q 353 206 353 131 q 336 289 353 261 q 284 334 319 317 q 193 374 249 351 q 114 422 147 394 q 64 493 81 450 q 47 600 47 536 q 67 727 47 678 q 136 799 88 776 q 267 822 185 822 q 428 774 372 822 q 483 635 483 726 l 483 539 q 419 539 451 539 q 353 539 386 539 l 353 596 q 333 688 353 660 q 268 717 313 717 q 202 690 222 717 q 182 604 182 663 q 201 527 182 554 q 252 485 221 500 q 317 457 283 469 q 418 408 379 433 q 475 342 457 383 q 493 224 493 300 q 465 85 493 136 q 384 13 436 35 q 261 -10 332 -10 m 200 -249 q 230 -197 218 -221 q 242 -157 242 -172 q 233 -140 242 -147 q 216 -124 225 -133 q 207 -99 207 -115 q 224 -66 207 -81 q 265 -51 240 -51 q 310 -67 293 -51 q 328 -107 328 -83 q 316 -151 328 -125 q 288 -202 304 -176 q 254 -249 272 -228 l 200 -249 z "},"Ш":{"ha":842,"x_min":50,"x_max":792,"o":"m 50 0 l 50 821 l 189 821 l 189 94 l 351 94 l 351 821 l 490 821 l 490 94 l 653 94 l 653 821 l 792 821 l 792 0 l 50 0 z "},"Щ":{"ha":904,"x_min":50,"x_max":861,"o":"m 754 -122 l 754 0 l 50 0 l 50 821 l 189 821 l 189 94 l 351 94 l 351 821 l 490 821 l 490 94 l 653 94 l 653 821 l 792 821 l 792 63 l 861 63 l 861 -122 l 754 -122 z "},"Ь":{"ha":522,"x_min":50,"x_max":472,"o":"m 50 0 l 50 819 l 181 819 l 181 606 l 308 606 q 396 590 360 606 q 452 538 432 574 q 472 438 472 501 l 472 211 q 460 105 472 146 q 426 41 449 64 q 369 9 403 18 q 293 0 336 0 l 50 0 m 181 71 l 265 71 q 314 85 297 71 q 336 132 331 100 q 342 215 342 164 l 342 408 q 337 468 342 443 q 315 508 332 493 q 263 524 299 524 l 181 524 l 181 71 z "},"T":{"ha":425,"x_min":14,"x_max":411,"o":"m 144 0 l 144 726 l 14 726 l 14 821 l 411 821 l 411 726 l 278 726 l 278 0 l 144 0 z "},"Ŧ":{"ha":436,"x_min":14,"x_max":411,"o":"m 76 532 l 76 604 l 356 604 l 356 532 l 76 532 m 144 0 l 144 726 l 14 726 l 14 821 l 411 821 l 411 726 l 278 726 l 278 0 l 144 0 z "},"Ť":{"ha":425,"x_min":14,"x_max":411,"o":"m 144 0 l 144 726 l 14 726 l 14 821 l 411 821 l 411 726 l 278 726 l 278 0 l 144 0 m 172 875 l 46 1003 l 132 1003 l 213 935 l 293 1003 l 378 1003 l 250 875 l 172 875 z "},"Ţ":{"ha":425,"x_min":14,"x_max":411,"o":"m 144 0 l 144 726 l 14 726 l 14 821 l 411 821 l 411 726 l 278 726 l 278 0 l 144 0 m 206 -215 q 160 -206 181 -215 q 129 -192 139 -197 l 146 -149 q 171 -161 154 -156 q 200 -167 188 -167 q 236 -156 224 -167 q 249 -126 249 -144 q 238 -103 249 -111 q 213 -94 228 -94 q 195 -98 203 -94 q 182 -106 188 -101 l 143 -85 l 188 0 l 239 0 l 201 -72 l 193 -68 q 215 -59 203 -62 q 243 -56 228 -56 q 301 -78 281 -56 q 322 -126 322 -101 q 292 -190 322 -164 q 206 -215 261 -215 z "},"Ț":{"ha":425,"x_min":14,"x_max":411,"o":"m 144 0 l 144 726 l 14 726 l 14 821 l 411 821 l 411 726 l 278 726 l 278 0 l 144 0 m 146 -249 q 176 -197 164 -221 q 188 -157 188 -172 q 179 -140 188 -147 q 162 -124 171 -133 q 153 -99 153 -115 q 169 -66 153 -81 q 211 -51 186 -51 q 256 -67 239 -51 q 274 -107 274 -83 q 262 -151 274 -125 q 234 -202 250 -176 q 200 -249 218 -228 l 146 -249 z "},"Т":{"ha":425,"x_min":14,"x_max":411,"o":"m 144 0 l 144 726 l 14 726 l 14 821 l 411 821 l 411 726 l 278 726 l 278 0 l 144 0 z "},"Þ":{"ha":540,"x_min":50,"x_max":490,"o":"m 50 0 l 50 821 l 190 821 l 190 674 l 328 674 q 448 638 406 674 q 490 535 490 603 l 490 389 q 476 292 490 336 q 426 219 463 247 q 321 190 389 190 l 189 190 l 189 0 l 50 0 m 189 265 l 274 265 q 338 298 317 265 q 358 404 358 331 l 358 478 q 340 572 358 544 q 290 600 322 600 l 189 600 l 189 265 z "},"Ц":{"ha":606,"x_min":50,"x_max":563,"o":"m 456 -122 l 456 0 l 50 0 l 50 821 l 190 821 l 190 94 l 353 94 l 353 821 l 493 821 l 493 64 l 563 64 l 563 -122 l 456 -122 z "},"Ћ":{"ha":626,"x_min":17,"x_max":576,"o":"m 153 0 l 153 726 l 17 726 l 17 821 l 424 821 l 424 726 l 286 726 l 286 547 q 333 584 299 567 q 415 601 368 601 q 519 578 485 601 q 565 514 553 556 q 576 417 576 472 l 576 0 l 446 0 l 446 417 q 440 467 446 446 q 417 500 433 489 q 367 511 400 511 q 313 496 332 511 q 286 464 293 481 l 286 0 l 153 0 z "},"U":{"ha":569,"x_min":65,"x_max":503,"o":"m 285 -17 q 197 -10 238 -17 q 128 18 157 -3 q 82 81 99 39 q 65 193 65 122 l 65 821 l 199 821 l 199 158 q 210 101 199 121 q 242 74 222 81 q 285 67 261 67 q 328 74 308 67 q 359 101 347 81 q 371 158 371 121 l 371 821 l 503 821 l 503 194 q 487 81 503 124 q 442 18 471 39 q 372 -10 413 -3 q 285 -17 332 -17 z "},"У":{"ha":478,"x_min":10,"x_max":468,"o":"m 135 -17 q 73 -12 103 -17 q 24 -4 43 -8 l 24 67 q 46 63 33 64 q 72 61 58 61 q 113 67 92 61 q 142 97 133 74 q 150 128 147 111 q 153 168 153 144 l 10 821 l 146 821 l 243 268 l 243 268 l 343 821 l 468 821 l 329 190 q 262 31 306 78 q 135 -17 218 -17 z "},"Ú":{"ha":569,"x_min":65,"x_max":503,"o":"m 285 -17 q 197 -10 238 -17 q 128 18 157 -3 q 82 81 99 39 q 65 193 65 122 l 65 821 l 199 821 l 199 158 q 210 101 199 121 q 242 74 222 81 q 285 67 261 67 q 328 74 308 67 q 359 101 347 81 q 371 158 371 121 l 371 821 l 503 821 l 503 194 q 487 81 503 124 q 442 18 471 39 q 372 -10 413 -3 q 285 -17 332 -17 m 207 881 l 317 1006 l 440 1006 l 283 881 l 207 881 z "},"Ǔ":{"ha":569,"x_min":65,"x_max":503,"o":"m 285 -17 q 197 -10 238 -17 q 128 18 157 -3 q 82 81 99 39 q 65 193 65 122 l 65 821 l 199 821 l 199 158 q 210 101 199 121 q 242 74 222 81 q 285 67 261 67 q 328 74 308 67 q 359 101 347 81 q 371 158 371 121 l 371 821 l 503 821 l 503 194 q 487 81 503 124 q 442 18 471 39 q 372 -10 413 -3 q 285 -17 332 -17 m 244 875 l 118 1003 l 204 1003 l 285 935 l 365 1003 l 450 1003 l 322 875 l 244 875 z "},"Û":{"ha":569,"x_min":65,"x_max":503,"o":"m 285 -17 q 197 -10 238 -17 q 128 18 157 -3 q 82 81 99 39 q 65 193 65 122 l 65 821 l 199 821 l 199 158 q 210 101 199 121 q 242 74 222 81 q 285 67 261 67 q 328 74 308 67 q 359 101 347 81 q 371 158 371 121 l 371 821 l 503 821 l 503 194 q 487 81 503 124 q 442 18 471 39 q 372 -10 413 -3 q 285 -17 332 -17 m 115 875 l 244 1008 l 322 1008 l 453 876 l 369 876 l 285 949 l 201 875 l 115 875 z "},"Ü":{"ha":569,"x_min":65,"x_max":503,"o":"m 285 -17 q 197 -10 238 -17 q 128 18 157 -3 q 82 81 99 39 q 65 193 65 122 l 65 821 l 199 821 l 199 158 q 210 101 199 121 q 242 74 222 81 q 285 67 261 67 q 328 74 308 67 q 359 101 347 81 q 371 158 371 121 l 371 821 l 503 821 l 503 194 q 487 81 503 124 q 442 18 471 39 q 372 -10 413 -3 q 285 -17 332 -17 m 207 883 q 165 900 182 883 q 149 940 149 917 q 165 980 149 964 q 207 996 182 996 q 248 980 232 996 q 264 940 264 964 q 248 900 264 917 q 207 883 232 883 m 361 883 q 319 900 336 883 q 303 940 303 917 q 319 980 303 964 q 361 996 336 996 q 403 980 386 996 q 419 940 419 964 q 403 900 419 917 q 361 883 386 883 z "},"Ǘ":{"ha":569,"x_min":65,"x_max":503,"o":"m 285 -17 q 197 -10 238 -17 q 128 18 157 -3 q 82 81 99 39 q 65 193 65 122 l 65 821 l 199 821 l 199 158 q 210 101 199 121 q 242 74 222 81 q 285 67 261 67 q 328 74 308 67 q 359 101 347 81 q 371 158 371 121 l 371 821 l 503 821 l 503 194 q 487 81 503 124 q 442 18 471 39 q 372 -10 413 -3 q 285 -17 332 -17 m 207 883 q 165 900 182 883 q 149 940 149 917 q 165 980 149 964 q 207 996 182 996 q 248 980 232 996 q 264 940 264 964 q 248 900 264 917 q 207 883 232 883 m 361 883 q 319 900 336 883 q 303 940 303 917 q 319 980 303 964 q 361 996 336 996 q 403 980 386 996 q 419 940 419 964 q 403 900 419 917 q 361 883 386 883 m 207 1024 l 317 1149 l 440 1149 l 283 1024 l 207 1024 z "},"Ǚ":{"ha":569,"x_min":65,"x_max":503,"o":"m 285 -17 q 197 -10 238 -17 q 128 18 157 -3 q 82 81 99 39 q 65 193 65 122 l 65 821 l 199 821 l 199 158 q 210 101 199 121 q 242 74 222 81 q 285 67 261 67 q 328 74 308 67 q 359 101 347 81 q 371 158 371 121 l 371 821 l 503 821 l 503 194 q 487 81 503 124 q 442 18 471 39 q 372 -10 413 -3 q 285 -17 332 -17 m 207 883 q 165 900 182 883 q 149 940 149 917 q 165 980 149 964 q 207 996 182 996 q 248 980 232 996 q 264 940 264 964 q 248 900 264 917 q 207 883 232 883 m 361 883 q 319 900 336 883 q 303 940 303 917 q 319 980 303 964 q 361 996 336 996 q 403 980 386 996 q 419 940 419 964 q 403 900 419 917 q 361 883 386 883 m 244 1018 l 118 1146 l 204 1146 l 285 1078 l 365 1146 l 450 1146 l 322 1018 l 244 1018 z "},"Ǜ":{"ha":569,"x_min":65,"x_max":503,"o":"m 285 -17 q 197 -10 238 -17 q 128 18 157 -3 q 82 81 99 39 q 65 193 65 122 l 65 821 l 199 821 l 199 158 q 210 101 199 121 q 242 74 222 81 q 285 67 261 67 q 328 74 308 67 q 359 101 347 81 q 371 158 371 121 l 371 821 l 503 821 l 503 194 q 487 81 503 124 q 442 18 471 39 q 372 -10 413 -3 q 285 -17 332 -17 m 207 883 q 165 900 182 883 q 149 940 149 917 q 165 980 149 964 q 207 996 182 996 q 248 980 232 996 q 264 940 264 964 q 248 900 264 917 q 207 883 232 883 m 361 883 q 319 900 336 883 q 303 940 303 917 q 319 980 303 964 q 361 996 336 996 q 403 980 386 996 q 419 940 419 964 q 403 900 419 917 q 361 883 386 883 m 275 1024 l 126 1144 l 253 1144 l 358 1024 l 275 1024 z "},"Ǖ":{"ha":569,"x_min":65,"x_max":503,"o":"m 285 -17 q 197 -10 238 -17 q 128 18 157 -3 q 82 81 99 39 q 65 193 65 122 l 65 821 l 199 821 l 199 158 q 210 101 199 121 q 242 74 222 81 q 285 67 261 67 q 328 74 308 67 q 359 101 347 81 q 371 158 371 121 l 371 821 l 503 821 l 503 194 q 487 81 503 124 q 442 18 471 39 q 372 -10 413 -3 q 285 -17 332 -17 m 207 883 q 165 900 182 883 q 149 940 149 917 q 165 980 149 964 q 207 996 182 996 q 248 980 232 996 q 264 940 264 964 q 248 900 264 917 q 207 883 232 883 m 361 883 q 319 900 336 883 q 303 940 303 917 q 319 980 303 964 q 361 996 336 996 q 403 980 386 996 q 419 940 419 964 q 403 900 419 917 q 361 883 386 883 m 147 1044 l 147 1111 l 422 1111 l 422 1044 l 147 1044 z "},"Ụ":{"ha":569,"x_min":65,"x_max":503,"o":"m 285 -17 q 197 -10 238 -17 q 128 18 157 -3 q 82 81 99 39 q 65 193 65 122 l 65 821 l 199 821 l 199 158 q 210 101 199 121 q 242 74 222 81 q 285 67 261 67 q 328 74 308 67 q 359 101 347 81 q 371 158 371 121 l 371 821 l 503 821 l 503 194 q 487 81 503 124 q 442 18 471 39 q 372 -10 413 -3 q 285 -17 332 -17 m 283 -168 q 242 -151 258 -168 q 225 -112 225 -135 q 242 -72 225 -89 q 283 -56 258 -56 q 326 -72 308 -56 q 343 -112 343 -89 q 326 -151 343 -135 q 283 -168 308 -168 z "},"Ù":{"ha":569,"x_min":65,"x_max":503,"o":"m 285 -17 q 197 -10 238 -17 q 128 18 157 -3 q 82 81 99 39 q 65 193 65 122 l 65 821 l 199 821 l 199 158 q 210 101 199 121 q 242 74 222 81 q 285 67 261 67 q 328 74 308 67 q 359 101 347 81 q 371 158 371 121 l 371 821 l 503 821 l 503 194 q 487 81 503 124 q 442 18 471 39 q 372 -10 413 -3 q 285 -17 332 -17 m 275 881 l 126 1001 l 253 1001 l 358 881 l 275 881 z "},"Ủ":{"ha":569,"x_min":65,"x_max":503,"o":"m 285 -17 q 197 -10 238 -17 q 128 18 157 -3 q 82 81 99 39 q 65 193 65 122 l 65 821 l 199 821 l 199 158 q 210 101 199 121 q 242 74 222 81 q 285 67 261 67 q 328 74 308 67 q 359 101 347 81 q 371 158 371 121 l 371 821 l 503 821 l 503 194 q 487 81 503 124 q 442 18 471 39 q 372 -10 413 -3 q 285 -17 332 -17 m 246 871 l 246 890 q 261 920 246 910 q 292 940 276 931 q 307 967 307 950 l 307 974 q 300 997 307 986 q 275 1008 293 1008 q 247 976 251 1008 l 186 986 q 214 1039 190 1021 q 282 1057 238 1057 q 358 1041 332 1057 q 383 976 383 1025 l 383 971 q 367 928 383 940 q 333 910 350 917 q 317 886 317 903 l 317 871 l 246 871 z "},"Ư":{"ha":569,"x_min":65,"x_max":568,"o":"m 285 -17 q 197 -10 238 -17 q 128 18 157 -3 q 82 81 99 39 q 65 193 65 122 l 65 821 l 199 821 l 199 158 q 210 101 199 121 q 242 74 222 81 q 285 67 261 67 q 328 74 308 67 q 359 101 347 81 q 371 158 371 121 l 371 821 l 503 821 l 503 194 q 487 81 503 124 q 442 18 471 39 q 372 -10 413 -3 q 285 -17 332 -17 m 399 761 l 396 821 l 417 821 q 482 885 482 821 l 482 908 l 568 908 l 568 888 q 525 791 568 821 q 399 761 482 761 z "},"Ứ":{"ha":569,"x_min":65,"x_max":568,"o":"m 285 -17 q 197 -10 238 -17 q 128 18 157 -3 q 82 81 99 39 q 65 193 65 122 l 65 821 l 199 821 l 199 158 q 210 101 199 121 q 242 74 222 81 q 285 67 261 67 q 328 74 308 67 q 359 101 347 81 q 371 158 371 121 l 371 821 l 503 821 l 503 194 q 487 81 503 124 q 442 18 471 39 q 372 -10 413 -3 q 285 -17 332 -17 m 399 761 l 396 821 l 417 821 q 482 885 482 821 l 482 908 l 568 908 l 568 888 q 525 791 568 821 q 399 761 482 761 m 207 881 l 317 1006 l 440 1006 l 283 881 l 207 881 z "},"Ự":{"ha":569,"x_min":65,"x_max":568,"o":"m 285 -17 q 197 -10 238 -17 q 128 18 157 -3 q 82 81 99 39 q 65 193 65 122 l 65 821 l 199 821 l 199 158 q 210 101 199 121 q 242 74 222 81 q 285 67 261 67 q 328 74 308 67 q 359 101 347 81 q 371 158 371 121 l 371 821 l 503 821 l 503 194 q 487 81 503 124 q 442 18 471 39 q 372 -10 413 -3 q 285 -17 332 -17 m 399 761 l 396 821 l 417 821 q 482 885 482 821 l 482 908 l 568 908 l 568 888 q 525 791 568 821 q 399 761 482 761 m 283 -168 q 242 -151 258 -168 q 225 -112 225 -135 q 242 -72 225 -89 q 283 -56 258 -56 q 326 -72 308 -56 q 343 -112 343 -89 q 326 -151 343 -135 q 283 -168 308 -168 z "},"Ừ":{"ha":569,"x_min":65,"x_max":568,"o":"m 285 -17 q 197 -10 238 -17 q 128 18 157 -3 q 82 81 99 39 q 65 193 65 122 l 65 821 l 199 821 l 199 158 q 210 101 199 121 q 242 74 222 81 q 285 67 261 67 q 328 74 308 67 q 359 101 347 81 q 371 158 371 121 l 371 821 l 503 821 l 503 194 q 487 81 503 124 q 442 18 471 39 q 372 -10 413 -3 q 285 -17 332 -17 m 399 761 l 396 821 l 417 821 q 482 885 482 821 l 482 908 l 568 908 l 568 888 q 525 791 568 821 q 399 761 482 761 m 275 881 l 126 1001 l 253 1001 l 358 881 l 275 881 z "},"Ử":{"ha":569,"x_min":65,"x_max":568,"o":"m 285 -17 q 197 -10 238 -17 q 128 18 157 -3 q 82 81 99 39 q 65 193 65 122 l 65 821 l 199 821 l 199 158 q 210 101 199 121 q 242 74 222 81 q 285 67 261 67 q 328 74 308 67 q 359 101 347 81 q 371 158 371 121 l 371 821 l 503 821 l 503 194 q 487 81 503 124 q 442 18 471 39 q 372 -10 413 -3 q 285 -17 332 -17 m 399 761 l 396 821 l 417 821 q 482 885 482 821 l 482 908 l 568 908 l 568 888 q 525 791 568 821 q 399 761 482 761 m 246 871 l 246 890 q 261 920 246 910 q 292 940 276 931 q 307 967 307 950 l 307 974 q 300 997 307 986 q 275 1008 293 1008 q 247 976 251 1008 l 186 986 q 214 1039 190 1021 q 282 1057 238 1057 q 358 1041 332 1057 q 383 976 383 1025 l 383 971 q 367 928 383 940 q 333 910 350 917 q 317 886 317 903 l 317 871 l 246 871 z "},"Ữ":{"ha":569,"x_min":65,"x_max":568,"o":"m 285 -17 q 197 -10 238 -17 q 128 18 157 -3 q 82 81 99 39 q 65 193 65 122 l 65 821 l 199 821 l 199 158 q 210 101 199 121 q 242 74 222 81 q 285 67 261 67 q 328 74 308 67 q 359 101 347 81 q 371 158 371 121 l 371 821 l 503 821 l 503 194 q 487 81 503 124 q 442 18 471 39 q 372 -10 413 -3 q 285 -17 332 -17 m 399 761 l 396 821 l 417 821 q 482 885 482 821 l 482 908 l 568 908 l 568 888 q 525 791 568 821 q 399 761 482 761 m 343 886 q 306 893 322 886 q 271 913 290 900 q 243 928 258 921 q 211 936 228 936 q 183 924 194 936 q 169 888 172 911 l 128 888 q 152 967 129 936 q 213 999 175 999 q 251 991 233 999 q 286 972 269 983 q 315 957 301 964 q 343 950 329 950 q 374 963 364 950 q 388 996 383 975 l 433 996 q 419 936 432 961 q 385 899 406 911 q 343 886 365 886 z "},"Ű":{"ha":569,"x_min":65,"x_max":503,"o":"m 285 -17 q 197 -10 238 -17 q 128 18 157 -3 q 82 81 99 39 q 65 193 65 122 l 65 821 l 199 821 l 199 158 q 210 101 199 121 q 242 74 222 81 q 285 67 261 67 q 328 74 308 67 q 359 101 347 81 q 371 158 371 121 l 371 821 l 503 821 l 503 194 q 487 81 503 124 q 442 18 471 39 q 372 -10 413 -3 q 285 -17 332 -17 m 183 874 l 213 1008 l 318 1008 l 236 874 l 183 874 m 301 874 l 346 1008 l 451 1008 l 363 874 l 301 874 z "},"Ū":{"ha":569,"x_min":65,"x_max":503,"o":"m 285 -17 q 197 -10 238 -17 q 128 18 157 -3 q 82 81 99 39 q 65 193 65 122 l 65 821 l 199 821 l 199 158 q 210 101 199 121 q 242 74 222 81 q 285 67 261 67 q 328 74 308 67 q 359 101 347 81 q 371 158 371 121 l 371 821 l 503 821 l 503 194 q 487 81 503 124 q 442 18 471 39 q 372 -10 413 -3 q 285 -17 332 -17 m 147 901 l 147 968 l 422 968 l 422 901 l 147 901 z "},"Ų":{"ha":569,"x_min":65,"x_max":503,"o":"m 285 -17 q 197 -10 238 -17 q 128 18 157 -3 q 82 81 99 39 q 65 193 65 122 l 65 821 l 199 821 l 199 158 q 210 101 199 121 q 242 74 222 81 q 285 67 261 67 q 328 74 308 67 q 359 101 347 81 q 371 158 371 121 l 371 821 l 503 821 l 503 194 q 487 81 503 124 q 442 18 471 39 q 372 -10 413 -3 q 285 -17 332 -17 m 301 -196 q 224 -170 254 -196 q 194 -110 194 -144 q 224 -39 194 -71 q 297 1 254 -7 l 354 0 q 299 -40 317 -14 q 281 -92 281 -67 q 298 -132 281 -118 q 333 -146 315 -146 q 353 -143 344 -146 q 365 -139 361 -140 l 382 -175 q 355 -188 374 -181 q 301 -196 336 -196 z "},"Ů":{"ha":569,"x_min":65,"x_max":503,"o":"m 285 -17 q 197 -10 238 -17 q 128 18 157 -3 q 82 81 99 39 q 65 193 65 122 l 65 821 l 199 821 l 199 158 q 210 101 199 121 q 242 74 222 81 q 285 67 261 67 q 328 74 308 67 q 359 101 347 81 q 371 158 371 121 l 371 821 l 503 821 l 503 194 q 487 81 503 124 q 442 18 471 39 q 372 -10 413 -3 q 285 -17 332 -17 m 283 858 q 201 890 233 858 q 168 968 168 922 q 201 1046 168 1014 q 283 1078 233 1078 q 367 1045 335 1078 q 400 967 400 1013 q 365 890 400 922 q 283 858 331 858 m 283 914 q 326 929 310 914 q 342 967 342 944 q 326 1008 342 993 q 283 1024 310 1024 q 242 1008 257 1024 q 226 967 226 993 q 242 929 226 944 q 283 914 257 914 z "},"Ў":{"ha":478,"x_min":10,"x_max":468,"o":"m 135 -17 q 73 -12 103 -17 q 24 -4 43 -8 l 24 67 q 46 63 33 64 q 72 61 58 61 q 113 67 92 61 q 142 97 133 74 q 150 128 147 111 q 153 168 153 144 l 10 821 l 146 821 l 243 268 l 243 268 l 343 821 l 468 821 l 329 190 q 262 31 306 78 q 135 -17 218 -17 m 238 876 q 146 899 178 876 q 102 952 114 921 q 89 1008 90 983 l 163 1008 q 187 957 165 974 q 238 940 208 940 q 291 956 269 940 q 315 1008 313 972 l 389 1008 q 372 946 388 976 q 324 896 357 915 q 238 876 292 876 z "},"Ũ":{"ha":569,"x_min":65,"x_max":503,"o":"m 285 -17 q 197 -10 238 -17 q 128 18 157 -3 q 82 81 99 39 q 65 193 65 122 l 65 821 l 199 821 l 199 158 q 210 101 199 121 q 242 74 222 81 q 285 67 261 67 q 328 74 308 67 q 359 101 347 81 q 371 158 371 121 l 371 821 l 503 821 l 503 194 q 487 81 503 124 q 442 18 471 39 q 372 -10 413 -3 q 285 -17 332 -17 m 343 886 q 306 893 322 886 q 271 913 290 900 q 243 928 258 921 q 211 936 228 936 q 183 924 194 936 q 169 888 172 911 l 128 888 q 152 967 129 936 q 213 999 175 999 q 251 991 233 999 q 286 972 269 983 q 315 957 301 964 q 343 950 329 950 q 374 963 364 950 q 388 996 383 975 l 433 996 q 419 936 432 961 q 385 899 406 911 q 343 886 365 886 z "},"V":{"ha":511,"x_min":22,"x_max":489,"o":"m 164 0 l 22 821 l 158 821 l 257 149 l 256 149 l 357 821 l 489 821 l 346 0 l 164 0 z "},"В":{"ha":567,"x_min":69,"x_max":515,"o":"m 69 0 l 69 821 l 346 821 q 463 786 421 821 q 504 683 504 751 l 504 588 q 494 520 504 550 q 463 471 483 490 q 420 446 444 453 q 375 438 396 439 l 375 438 q 424 432 400 438 q 467 410 447 426 q 502 360 489 390 q 515 285 515 329 l 515 171 q 492 65 515 101 q 428 14 469 28 q 331 0 388 0 l 69 0 m 203 71 l 301 71 q 344 79 326 71 q 371 111 361 88 q 381 179 381 135 l 381 283 q 356 360 381 342 q 293 379 332 379 l 203 379 l 203 71 m 203 465 l 290 465 q 354 490 332 465 q 376 572 376 515 l 376 660 q 356 726 376 706 q 306 747 336 747 l 203 747 l 203 465 z "},"W":{"ha":804,"x_min":22,"x_max":782,"o":"m 149 0 l 22 821 l 158 821 l 246 175 l 347 821 l 457 821 l 556 175 l 646 821 l 782 821 l 656 0 l 501 0 l 401 533 l 304 0 l 149 0 z "},"Ẃ":{"ha":804,"x_min":22,"x_max":782,"o":"m 149 0 l 22 821 l 158 821 l 246 175 l 347 821 l 457 821 l 556 175 l 646 821 l 782 821 l 656 0 l 501 0 l 401 533 l 304 0 l 149 0 m 326 881 l 436 1006 l 560 1006 l 403 881 l 326 881 z "},"Ŵ":{"ha":804,"x_min":22,"x_max":782,"o":"m 149 0 l 22 821 l 158 821 l 246 175 l 347 821 l 457 821 l 556 175 l 646 821 l 782 821 l 656 0 l 501 0 l 401 533 l 304 0 l 149 0 m 233 875 l 363 1008 l 440 1008 l 571 876 l 488 876 l 403 949 l 319 875 l 233 875 z "},"Ẅ":{"ha":804,"x_min":22,"x_max":782,"o":"m 149 0 l 22 821 l 158 821 l 246 175 l 347 821 l 457 821 l 556 175 l 646 821 l 782 821 l 656 0 l 501 0 l 401 533 l 304 0 l 149 0 m 325 883 q 283 900 300 883 q 267 940 267 917 q 283 980 267 964 q 325 996 300 996 q 366 980 350 996 q 382 940 382 964 q 366 900 382 917 q 325 883 350 883 m 479 883 q 438 900 454 883 q 421 940 421 917 q 438 980 421 964 q 479 996 454 996 q 521 980 504 996 q 538 940 538 964 q 521 900 538 917 q 479 883 504 883 z "},"Ẁ":{"ha":804,"x_min":22,"x_max":782,"o":"m 149 0 l 22 821 l 158 821 l 246 175 l 347 821 l 457 821 l 556 175 l 646 821 l 782 821 l 656 0 l 501 0 l 401 533 l 304 0 l 149 0 m 393 881 l 244 1001 l 371 1001 l 476 881 l 393 881 z "},"X":{"ha":485,"x_min":18,"x_max":467,"o":"m 18 0 l 143 421 l 26 821 l 158 821 l 242 519 l 328 821 l 467 821 l 344 419 l 464 0 l 331 0 l 243 301 l 158 0 l 18 0 z "},"Y":{"ha":482,"x_min":17,"x_max":464,"o":"m 171 0 l 171 353 l 17 821 l 150 821 l 235 540 l 243 497 l 250 540 l 342 821 l 464 821 l 303 346 l 303 0 l 171 0 z "},"Ý":{"ha":482,"x_min":17,"x_max":464,"o":"m 171 0 l 171 353 l 17 821 l 150 821 l 235 540 l 243 497 l 250 540 l 342 821 l 464 821 l 303 346 l 303 0 l 171 0 m 169 881 l 279 1006 l 403 1006 l 246 881 l 169 881 z "},"Ѣ":{"ha":590,"x_min":22,"x_max":540,"o":"m 119 0 l 119 819 l 250 819 l 250 606 l 378 606 q 465 590 428 606 q 521 538 501 574 q 540 438 540 501 l 540 211 q 528 105 540 146 q 494 41 517 64 q 439 9 472 18 q 361 0 406 0 l 119 0 m 250 71 l 333 71 q 383 85 367 71 q 404 132 399 100 q 410 215 410 164 l 410 408 q 405 468 410 443 q 383 508 400 493 q 331 524 367 524 l 250 524 l 250 71 m 22 693 l 22 760 l 443 760 l 443 693 l 22 693 z "},"Ŷ":{"ha":482,"x_min":17,"x_max":464,"o":"m 171 0 l 171 353 l 17 821 l 150 821 l 235 540 l 243 497 l 250 540 l 342 821 l 464 821 l 303 346 l 303 0 l 171 0 m 76 875 l 206 1008 l 283 1008 l 414 876 l 331 876 l 246 949 l 163 875 l 76 875 z "},"Ÿ":{"ha":482,"x_min":17,"x_max":464,"o":"m 171 0 l 171 353 l 17 821 l 150 821 l 235 540 l 243 497 l 250 540 l 342 821 l 464 821 l 303 346 l 303 0 l 171 0 m 169 883 q 128 900 144 883 q 111 940 111 917 q 128 980 111 964 q 169 996 144 996 q 210 980 194 996 q 226 940 226 964 q 210 900 226 917 q 169 883 194 883 m 324 883 q 282 900 299 883 q 265 940 265 917 q 282 980 265 964 q 324 996 299 996 q 365 980 349 996 q 382 940 382 964 q 365 900 382 917 q 324 883 349 883 z "},"Ỵ":{"ha":482,"x_min":17,"x_max":464,"o":"m 171 0 l 171 353 l 17 821 l 150 821 l 235 540 l 243 497 l 250 540 l 342 821 l 464 821 l 303 346 l 303 0 l 171 0 m 240 -168 q 199 -151 215 -168 q 182 -112 182 -135 q 199 -72 182 -89 q 240 -56 215 -56 q 283 -72 265 -56 q 300 -112 300 -89 q 283 -151 300 -135 q 240 -168 265 -168 z "},"Ы":{"ha":743,"x_min":50,"x_max":692,"o":"m 50 0 l 50 819 l 181 819 l 181 606 l 308 606 q 396 590 360 606 q 452 538 432 574 q 472 438 472 501 l 472 211 q 460 105 472 146 q 426 41 449 64 q 369 9 403 18 q 293 0 336 0 l 50 0 m 181 71 l 265 71 q 314 85 297 71 q 336 132 331 100 q 342 215 342 164 l 342 408 q 337 468 342 443 q 315 508 332 493 q 263 524 299 524 l 181 524 l 181 71 m 558 0 l 558 821 l 692 821 l 692 0 l 558 0 z "},"Ỳ":{"ha":482,"x_min":17,"x_max":464,"o":"m 171 0 l 171 353 l 17 821 l 150 821 l 235 540 l 243 497 l 250 540 l 342 821 l 464 821 l 303 346 l 303 0 l 171 0 m 236 881 l 88 1001 l 214 1001 l 319 881 l 236 881 z "},"Ỷ":{"ha":482,"x_min":17,"x_max":464,"o":"m 171 0 l 171 353 l 17 821 l 150 821 l 235 540 l 243 497 l 250 540 l 342 821 l 464 821 l 303 346 l 303 0 l 171 0 m 207 871 l 207 890 q 222 920 207 910 q 253 940 238 931 q 268 967 268 950 l 268 974 q 261 997 268 986 q 236 1008 254 1008 q 208 976 213 1008 l 147 986 q 175 1039 151 1021 q 243 1057 199 1057 q 319 1041 293 1057 q 344 976 344 1025 l 344 971 q 328 928 344 940 q 294 910 311 917 q 278 886 278 903 l 278 871 l 207 871 z "},"Ї":{"ha":271,"x_min":0,"x_max":271,"o":"m 69 0 l 69 821 l 201 821 l 201 0 l 69 0 m 58 883 q 17 900 33 883 q 0 940 0 917 q 17 980 0 964 q 58 996 33 996 q 99 980 83 996 q 115 940 115 964 q 99 900 115 917 q 58 883 83 883 m 213 883 q 171 900 188 883 q 154 940 154 917 q 171 980 154 964 q 213 996 188 996 q 254 980 238 996 q 271 940 271 964 q 254 900 271 917 q 213 883 238 883 z "},"Ỹ":{"ha":482,"x_min":17,"x_max":464,"o":"m 171 0 l 171 353 l 17 821 l 150 821 l 235 540 l 243 497 l 250 540 l 342 821 l 464 821 l 303 346 l 303 0 l 171 0 m 304 886 q 267 893 283 886 q 232 913 251 900 q 204 928 219 921 q 172 936 189 936 q 144 924 156 936 q 131 888 133 911 l 89 888 q 113 967 90 936 q 174 999 136 999 q 213 991 194 999 q 247 972 231 983 q 276 957 263 964 q 304 950 290 950 q 335 963 325 950 q 349 996 344 975 l 394 996 q 380 936 393 961 q 347 899 367 911 q 304 886 326 886 z "},"Ѫ":{"ha":915,"x_min":32,"x_max":878,"o":"m 46 0 l 128 333 q 151 394 136 367 q 192 440 167 422 q 253 460 217 458 l 342 461 l 32 729 l 32 821 l 878 821 l 878 729 l 569 461 l 661 458 q 724 440 700 458 q 764 394 749 422 q 788 333 779 367 l 869 0 l 724 0 l 656 311 q 634 377 647 346 q 594 422 621 408 l 526 422 l 526 0 l 389 0 l 388 422 l 321 422 q 280 379 293 410 q 258 315 267 349 l 192 0 l 46 0 m 456 506 l 722 729 l 186 729 l 456 506 z "},"Z":{"ha":400,"x_min":22,"x_max":379,"o":"m 22 0 l 22 86 l 228 726 l 38 726 l 38 821 l 379 821 l 379 751 l 165 94 l 379 94 l 379 0 l 22 0 z "},"Ź":{"ha":400,"x_min":22,"x_max":379,"o":"m 22 0 l 22 86 l 228 726 l 38 726 l 38 821 l 379 821 l 379 751 l 165 94 l 379 94 l 379 0 l 22 0 m 139 881 l 249 1006 l 372 1006 l 215 881 l 139 881 z "},"Ž":{"ha":400,"x_min":22,"x_max":381,"o":"m 22 0 l 22 86 l 228 726 l 38 726 l 38 821 l 379 821 l 379 751 l 165 94 l 379 94 l 379 0 l 22 0 m 175 875 l 49 1003 l 135 1003 l 215 935 l 296 1003 l 381 1003 l 253 875 l 175 875 z "},"Ż":{"ha":400,"x_min":22,"x_max":379,"o":"m 22 0 l 22 86 l 228 726 l 38 726 l 38 821 l 379 821 l 379 751 l 165 94 l 379 94 l 379 0 l 22 0 m 228 885 q 178 905 199 885 q 157 954 158 925 q 178 1002 157 982 q 228 1022 199 1022 q 278 1002 257 1022 q 299 953 299 982 q 278 905 300 925 q 228 885 257 885 z "},"З":{"ha":558,"x_min":38,"x_max":494,"o":"m 265 -10 q 135 15 186 -10 q 61 86 85 40 q 38 193 38 132 l 38 283 l 171 283 l 171 225 q 193 123 171 158 q 264 86 215 88 q 332 118 308 86 q 356 203 356 150 l 356 282 q 321 358 356 333 q 224 383 286 382 l 153 383 l 153 461 l 225 461 q 279 469 254 461 q 321 494 304 478 q 344 528 338 510 q 351 567 351 546 l 351 621 q 331 697 351 665 q 264 729 311 729 q 194 694 214 729 q 175 599 175 658 l 175 560 l 40 560 l 40 631 q 95 775 40 725 q 265 825 150 825 q 438 778 385 825 q 490 642 490 732 l 490 586 q 455 472 490 515 q 356 418 419 429 q 458 367 422 411 q 494 251 494 322 l 494 193 q 472 82 494 128 q 399 13 449 36 q 265 -10 349 -10 z "},"Ж":{"ha":897,"x_min":39,"x_max":860,"o":"m 39 0 l 231 426 l 46 821 l 197 821 l 343 463 l 382 463 l 382 821 l 515 821 l 515 463 l 556 463 l 700 821 l 854 821 l 668 426 l 860 0 l 710 0 l 556 388 l 515 388 l 515 0 l 382 0 l 382 388 l 343 388 l 189 0 l 39 0 z "},"a":{"ha":508,"x_min":43,"x_max":458,"o":"m 183 -11 q 117 -1 149 -11 q 65 40 86 8 q 43 136 43 71 l 43 218 q 83 327 43 286 q 201 400 122 368 q 274 435 247 419 q 314 471 301 450 q 326 528 326 492 l 326 563 q 316 603 326 589 q 290 623 306 617 q 253 629 274 629 q 192 601 207 629 q 178 513 178 574 l 178 454 l 60 454 l 60 525 q 74 616 60 576 q 129 678 88 656 q 253 701 171 701 q 381 685 338 701 q 442 634 425 668 q 458 547 458 600 l 458 0 l 328 0 l 328 79 q 273 13 314 36 q 183 -11 232 -11 m 238 76 q 305 110 285 76 q 325 206 325 144 l 325 399 q 290 368 315 382 q 242 339 265 354 q 189 295 207 318 q 171 232 171 272 l 171 167 q 180 109 171 129 q 205 83 189 89 q 238 76 221 76 z "},"а":{"ha":508,"x_min":43,"x_max":458,"o":"m 183 -11 q 117 -1 149 -11 q 65 40 86 8 q 43 136 43 71 l 43 218 q 83 327 43 286 q 201 400 122 368 q 274 435 247 419 q 314 471 301 450 q 326 528 326 492 l 326 563 q 316 603 326 589 q 290 623 306 617 q 253 629 274 629 q 192 601 207 629 q 178 513 178 574 l 178 454 l 60 454 l 60 525 q 74 616 60 576 q 129 678 88 656 q 253 701 171 701 q 381 685 338 701 q 442 634 425 668 q 458 547 458 600 l 458 0 l 328 0 l 328 79 q 273 13 314 36 q 183 -11 232 -11 m 238 76 q 305 110 285 76 q 325 206 325 144 l 325 399 q 290 368 315 382 q 242 339 265 354 q 189 295 207 318 q 171 232 171 272 l 171 167 q 180 109 171 129 q 205 83 189 89 q 238 76 221 76 z "},"á":{"ha":508,"x_min":43,"x_max":458,"o":"m 183 -11 q 117 -1 149 -11 q 65 40 86 8 q 43 136 43 71 l 43 218 q 83 327 43 286 q 201 400 122 368 q 274 435 247 419 q 314 471 301 450 q 326 528 326 492 l 326 563 q 316 603 326 589 q 290 623 306 617 q 253 629 274 629 q 192 601 207 629 q 178 513 178 574 l 178 454 l 60 454 l 60 525 q 74 616 60 576 q 129 678 88 656 q 253 701 171 701 q 381 685 338 701 q 442 634 425 668 q 458 547 458 600 l 458 0 l 328 0 l 328 79 q 273 13 314 36 q 183 -11 232 -11 m 238 76 q 305 110 285 76 q 325 206 325 144 l 325 399 q 290 368 315 382 q 242 339 265 354 q 189 295 207 318 q 171 232 171 272 l 171 167 q 180 109 171 129 q 205 83 189 89 q 238 76 221 76 m 197 760 l 276 894 l 406 894 l 279 760 l 197 760 z "},"ă":{"ha":508,"x_min":43,"x_max":458,"o":"m 183 -11 q 117 -1 149 -11 q 65 40 86 8 q 43 136 43 71 l 43 218 q 83 327 43 286 q 201 400 122 368 q 274 435 247 419 q 314 471 301 450 q 326 528 326 492 l 326 563 q 316 603 326 589 q 290 623 306 617 q 253 629 274 629 q 192 601 207 629 q 178 513 178 574 l 178 454 l 60 454 l 60 525 q 74 616 60 576 q 129 678 88 656 q 253 701 171 701 q 381 685 338 701 q 442 634 425 668 q 458 547 458 600 l 458 0 l 328 0 l 328 79 q 273 13 314 36 q 183 -11 232 -11 m 238 76 q 305 110 285 76 q 325 206 325 144 l 325 399 q 290 368 315 382 q 242 339 265 354 q 189 295 207 318 q 171 232 171 272 l 171 167 q 180 109 171 129 q 205 83 189 89 q 238 76 221 76 m 260 758 q 168 781 200 758 q 124 834 136 803 q 111 890 113 865 l 185 890 q 209 839 188 856 q 260 822 231 822 q 313 838 292 822 q 338 890 335 854 l 411 890 q 394 828 410 858 q 347 778 379 797 q 260 758 314 758 z "},"ắ":{"ha":508,"x_min":43,"x_max":458,"o":"m 183 -11 q 117 -1 149 -11 q 65 40 86 8 q 43 136 43 71 l 43 218 q 83 327 43 286 q 201 400 122 368 q 274 435 247 419 q 314 471 301 450 q 326 528 326 492 l 326 563 q 316 603 326 589 q 290 623 306 617 q 253 629 274 629 q 192 601 207 629 q 178 513 178 574 l 178 454 l 60 454 l 60 525 q 74 616 60 576 q 129 678 88 656 q 253 701 171 701 q 381 685 338 701 q 442 634 425 668 q 458 547 458 600 l 458 0 l 328 0 l 328 79 q 273 13 314 36 q 183 -11 232 -11 m 238 76 q 305 110 285 76 q 325 206 325 144 l 325 399 q 290 368 315 382 q 242 339 265 354 q 189 295 207 318 q 171 232 171 272 l 171 167 q 180 109 171 129 q 205 83 189 89 q 238 76 221 76 m 260 758 q 168 781 200 758 q 124 834 136 803 q 111 890 113 865 l 185 890 q 209 839 188 856 q 260 822 231 822 q 313 838 292 822 q 338 890 335 854 l 411 890 q 394 828 410 858 q 347 778 379 797 q 260 758 314 758 m 197 917 l 276 1051 l 406 1051 l 279 917 l 197 917 z "},"ặ":{"ha":508,"x_min":43,"x_max":458,"o":"m 183 -11 q 117 -1 149 -11 q 65 40 86 8 q 43 136 43 71 l 43 218 q 83 327 43 286 q 201 400 122 368 q 274 435 247 419 q 314 471 301 450 q 326 528 326 492 l 326 563 q 316 603 326 589 q 290 623 306 617 q 253 629 274 629 q 192 601 207 629 q 178 513 178 574 l 178 454 l 60 454 l 60 525 q 74 616 60 576 q 129 678 88 656 q 253 701 171 701 q 381 685 338 701 q 442 634 425 668 q 458 547 458 600 l 458 0 l 328 0 l 328 79 q 273 13 314 36 q 183 -11 232 -11 m 238 76 q 305 110 285 76 q 325 206 325 144 l 325 399 q 290 368 315 382 q 242 339 265 354 q 189 295 207 318 q 171 232 171 272 l 171 167 q 180 109 171 129 q 205 83 189 89 q 238 76 221 76 m 253 -168 q 211 -151 228 -168 q 194 -112 194 -135 q 211 -72 194 -89 q 253 -56 228 -56 q 295 -72 278 -56 q 313 -112 313 -89 q 295 -151 313 -135 q 253 -168 278 -168 m 260 758 q 168 781 200 758 q 124 834 136 803 q 111 890 113 865 l 185 890 q 209 839 188 856 q 260 822 231 822 q 313 838 292 822 q 338 890 335 854 l 411 890 q 394 828 410 858 q 347 778 379 797 q 260 758 314 758 z "},"ằ":{"ha":508,"x_min":43,"x_max":458,"o":"m 183 -11 q 117 -1 149 -11 q 65 40 86 8 q 43 136 43 71 l 43 218 q 83 327 43 286 q 201 400 122 368 q 274 435 247 419 q 314 471 301 450 q 326 528 326 492 l 326 563 q 316 603 326 589 q 290 623 306 617 q 253 629 274 629 q 192 601 207 629 q 178 513 178 574 l 178 454 l 60 454 l 60 525 q 74 616 60 576 q 129 678 88 656 q 253 701 171 701 q 381 685 338 701 q 442 634 425 668 q 458 547 458 600 l 458 0 l 328 0 l 328 79 q 273 13 314 36 q 183 -11 232 -11 m 238 76 q 305 110 285 76 q 325 206 325 144 l 325 399 q 290 368 315 382 q 242 339 265 354 q 189 295 207 318 q 171 232 171 272 l 171 167 q 180 109 171 129 q 205 83 189 89 q 238 76 221 76 m 260 758 q 168 781 200 758 q 124 834 136 803 q 111 890 113 865 l 185 890 q 209 839 188 856 q 260 822 231 822 q 313 838 292 822 q 338 890 335 854 l 411 890 q 394 828 410 858 q 347 778 379 797 q 260 758 314 758 m 246 917 l 121 1051 l 249 1051 l 329 917 l 246 917 z "},"ẳ":{"ha":508,"x_min":43,"x_max":458,"o":"m 183 -11 q 117 -1 149 -11 q 65 40 86 8 q 43 136 43 71 l 43 218 q 83 327 43 286 q 201 400 122 368 q 274 435 247 419 q 314 471 301 450 q 326 528 326 492 l 326 563 q 316 603 326 589 q 290 623 306 617 q 253 629 274 629 q 192 601 207 629 q 178 513 178 574 l 178 454 l 60 454 l 60 525 q 74 616 60 576 q 129 678 88 656 q 253 701 171 701 q 381 685 338 701 q 442 634 425 668 q 458 547 458 600 l 458 0 l 328 0 l 328 79 q 273 13 314 36 q 183 -11 232 -11 m 238 76 q 305 110 285 76 q 325 206 325 144 l 325 399 q 290 368 315 382 q 242 339 265 354 q 189 295 207 318 q 171 232 171 272 l 171 167 q 180 109 171 129 q 205 83 189 89 q 238 76 221 76 m 260 758 q 168 781 200 758 q 124 834 136 803 q 111 890 113 865 l 185 890 q 209 839 188 856 q 260 822 231 822 q 313 838 292 822 q 338 890 335 854 l 411 890 q 394 828 410 858 q 347 778 379 797 q 260 758 314 758 m 224 918 l 224 938 q 239 967 224 957 q 269 988 254 978 q 285 1014 285 997 l 285 1021 q 278 1044 285 1033 q 253 1056 271 1056 q 225 1024 229 1056 l 164 1033 q 192 1086 168 1068 q 260 1104 215 1104 q 335 1088 310 1104 q 361 1024 361 1072 l 361 1018 q 344 976 361 988 q 311 957 328 964 q 294 933 294 950 l 294 918 l 224 918 z "},"ẵ":{"ha":508,"x_min":43,"x_max":458,"o":"m 183 -11 q 117 -1 149 -11 q 65 40 86 8 q 43 136 43 71 l 43 218 q 83 327 43 286 q 201 400 122 368 q 274 435 247 419 q 314 471 301 450 q 326 528 326 492 l 326 563 q 316 603 326 589 q 290 623 306 617 q 253 629 274 629 q 192 601 207 629 q 178 513 178 574 l 178 454 l 60 454 l 60 525 q 74 616 60 576 q 129 678 88 656 q 253 701 171 701 q 381 685 338 701 q 442 634 425 668 q 458 547 458 600 l 458 0 l 328 0 l 328 79 q 273 13 314 36 q 183 -11 232 -11 m 238 76 q 305 110 285 76 q 325 206 325 144 l 325 399 q 290 368 315 382 q 242 339 265 354 q 189 295 207 318 q 171 232 171 272 l 171 167 q 180 109 171 129 q 205 83 189 89 q 238 76 221 76 m 260 758 q 168 781 200 758 q 124 834 136 803 q 111 890 113 865 l 185 890 q 209 839 188 856 q 260 822 231 822 q 313 838 292 822 q 338 890 335 854 l 411 890 q 394 828 410 858 q 347 778 379 797 q 260 758 314 758 m 322 924 q 285 931 301 924 q 250 950 269 938 q 222 966 238 958 q 190 974 207 974 q 163 961 174 974 q 149 925 151 949 l 107 925 q 131 1005 108 974 q 192 1036 154 1036 q 231 1028 213 1036 q 265 1010 249 1021 q 294 994 281 1001 q 322 988 308 988 q 353 1000 343 988 q 367 1033 363 1013 l 413 1033 q 398 974 411 999 q 365 936 385 949 q 322 924 344 924 z "},"ǎ":{"ha":508,"x_min":43,"x_max":458,"o":"m 183 -11 q 117 -1 149 -11 q 65 40 86 8 q 43 136 43 71 l 43 218 q 83 327 43 286 q 201 400 122 368 q 274 435 247 419 q 314 471 301 450 q 326 528 326 492 l 326 563 q 316 603 326 589 q 290 623 306 617 q 253 629 274 629 q 192 601 207 629 q 178 513 178 574 l 178 454 l 60 454 l 60 525 q 74 616 60 576 q 129 678 88 656 q 253 701 171 701 q 381 685 338 701 q 442 634 425 668 q 458 547 458 600 l 458 0 l 328 0 l 328 79 q 273 13 314 36 q 183 -11 232 -11 m 238 76 q 305 110 285 76 q 325 206 325 144 l 325 399 q 290 368 315 382 q 242 339 265 354 q 189 295 207 318 q 171 232 171 272 l 171 167 q 180 109 171 129 q 205 83 189 89 q 238 76 221 76 m 222 758 l 93 897 l 175 897 l 261 817 l 349 897 l 428 897 l 299 758 l 222 758 z "},"â":{"ha":508,"x_min":43,"x_max":458,"o":"m 183 -11 q 117 -1 149 -11 q 65 40 86 8 q 43 136 43 71 l 43 218 q 83 327 43 286 q 201 400 122 368 q 274 435 247 419 q 314 471 301 450 q 326 528 326 492 l 326 563 q 316 603 326 589 q 290 623 306 617 q 253 629 274 629 q 192 601 207 629 q 178 513 178 574 l 178 454 l 60 454 l 60 525 q 74 616 60 576 q 129 678 88 656 q 253 701 171 701 q 381 685 338 701 q 442 634 425 668 q 458 547 458 600 l 458 0 l 328 0 l 328 79 q 273 13 314 36 q 183 -11 232 -11 m 238 76 q 305 110 285 76 q 325 206 325 144 l 325 399 q 290 368 315 382 q 242 339 265 354 q 189 295 207 318 q 171 232 171 272 l 171 167 q 180 109 171 129 q 205 83 189 89 q 238 76 221 76 m 93 758 l 221 897 l 299 897 l 428 758 l 349 758 l 261 839 l 175 758 l 93 758 z "},"ấ":{"ha":508,"x_min":43,"x_max":629,"o":"m 183 -11 q 117 -1 149 -11 q 65 40 86 8 q 43 136 43 71 l 43 218 q 83 327 43 286 q 201 400 122 368 q 274 435 247 419 q 314 471 301 450 q 326 528 326 492 l 326 563 q 316 603 326 589 q 290 623 306 617 q 253 629 274 629 q 192 601 207 629 q 178 513 178 574 l 178 454 l 60 454 l 60 525 q 74 616 60 576 q 129 678 88 656 q 253 701 171 701 q 381 685 338 701 q 442 634 425 668 q 458 547 458 600 l 458 0 l 328 0 l 328 79 q 273 13 314 36 q 183 -11 232 -11 m 238 76 q 305 110 285 76 q 325 206 325 144 l 325 399 q 290 368 315 382 q 242 339 265 354 q 189 295 207 318 q 171 232 171 272 l 171 167 q 180 109 171 129 q 205 83 189 89 q 238 76 221 76 m 93 758 l 221 897 l 299 897 l 428 758 l 349 758 l 261 839 l 175 758 l 93 758 m 421 835 l 500 969 l 629 969 l 503 835 l 421 835 z "},"ậ":{"ha":508,"x_min":43,"x_max":458,"o":"m 183 -11 q 117 -1 149 -11 q 65 40 86 8 q 43 136 43 71 l 43 218 q 83 327 43 286 q 201 400 122 368 q 274 435 247 419 q 314 471 301 450 q 326 528 326 492 l 326 563 q 316 603 326 589 q 290 623 306 617 q 253 629 274 629 q 192 601 207 629 q 178 513 178 574 l 178 454 l 60 454 l 60 525 q 74 616 60 576 q 129 678 88 656 q 253 701 171 701 q 381 685 338 701 q 442 634 425 668 q 458 547 458 600 l 458 0 l 328 0 l 328 79 q 273 13 314 36 q 183 -11 232 -11 m 238 76 q 305 110 285 76 q 325 206 325 144 l 325 399 q 290 368 315 382 q 242 339 265 354 q 189 295 207 318 q 171 232 171 272 l 171 167 q 180 109 171 129 q 205 83 189 89 q 238 76 221 76 m 253 -168 q 211 -151 228 -168 q 194 -112 194 -135 q 211 -72 194 -89 q 253 -56 228 -56 q 295 -72 278 -56 q 313 -112 313 -89 q 295 -151 313 -135 q 253 -168 278 -168 m 93 758 l 221 897 l 299 897 l 428 758 l 349 758 l 261 839 l 175 758 l 93 758 z "},"ầ":{"ha":508,"x_min":43,"x_max":553,"o":"m 183 -11 q 117 -1 149 -11 q 65 40 86 8 q 43 136 43 71 l 43 218 q 83 327 43 286 q 201 400 122 368 q 274 435 247 419 q 314 471 301 450 q 326 528 326 492 l 326 563 q 316 603 326 589 q 290 623 306 617 q 253 629 274 629 q 192 601 207 629 q 178 513 178 574 l 178 454 l 60 454 l 60 525 q 74 616 60 576 q 129 678 88 656 q 253 701 171 701 q 381 685 338 701 q 442 634 425 668 q 458 547 458 600 l 458 0 l 328 0 l 328 79 q 273 13 314 36 q 183 -11 232 -11 m 238 76 q 305 110 285 76 q 325 206 325 144 l 325 399 q 290 368 315 382 q 242 339 265 354 q 189 295 207 318 q 171 232 171 272 l 171 167 q 180 109 171 129 q 205 83 189 89 q 238 76 221 76 m 93 758 l 221 897 l 299 897 l 428 758 l 349 758 l 261 839 l 175 758 l 93 758 m 471 835 l 346 969 l 474 969 l 554 835 l 471 835 z "},"ẩ":{"ha":508,"x_min":43,"x_max":585,"o":"m 183 -11 q 117 -1 149 -11 q 65 40 86 8 q 43 136 43 71 l 43 218 q 83 327 43 286 q 201 400 122 368 q 274 435 247 419 q 314 471 301 450 q 326 528 326 492 l 326 563 q 316 603 326 589 q 290 623 306 617 q 253 629 274 629 q 192 601 207 629 q 178 513 178 574 l 178 454 l 60 454 l 60 525 q 74 616 60 576 q 129 678 88 656 q 253 701 171 701 q 381 685 338 701 q 442 634 425 668 q 458 547 458 600 l 458 0 l 328 0 l 328 79 q 273 13 314 36 q 183 -11 232 -11 m 238 76 q 305 110 285 76 q 325 206 325 144 l 325 399 q 290 368 315 382 q 242 339 265 354 q 189 295 207 318 q 171 232 171 272 l 171 167 q 180 109 171 129 q 205 83 189 89 q 238 76 221 76 m 93 758 l 221 897 l 299 897 l 428 758 l 349 758 l 261 839 l 175 758 l 93 758 m 447 836 l 447 856 q 463 885 447 875 q 493 906 478 896 q 508 932 508 915 l 508 939 q 501 963 508 951 q 476 974 494 974 q 449 942 453 974 l 388 951 q 415 1004 392 986 q 483 1022 439 1022 q 559 1006 533 1022 q 585 942 585 990 l 585 936 q 568 894 585 906 q 535 875 551 882 q 518 851 518 868 l 518 836 l 447 836 z "},"ẫ":{"ha":508,"x_min":43,"x_max":458,"o":"m 183 -11 q 117 -1 149 -11 q 65 40 86 8 q 43 136 43 71 l 43 218 q 83 327 43 286 q 201 400 122 368 q 274 435 247 419 q 314 471 301 450 q 326 528 326 492 l 326 563 q 316 603 326 589 q 290 623 306 617 q 253 629 274 629 q 192 601 207 629 q 178 513 178 574 l 178 454 l 60 454 l 60 525 q 74 616 60 576 q 129 678 88 656 q 253 701 171 701 q 381 685 338 701 q 442 634 425 668 q 458 547 458 600 l 458 0 l 328 0 l 328 79 q 273 13 314 36 q 183 -11 232 -11 m 238 76 q 305 110 285 76 q 325 206 325 144 l 325 399 q 290 368 315 382 q 242 339 265 354 q 189 295 207 318 q 171 232 171 272 l 171 167 q 180 109 171 129 q 205 83 189 89 q 238 76 221 76 m 93 758 l 221 897 l 299 897 l 428 758 l 349 758 l 261 839 l 175 758 l 93 758 m 322 929 q 285 936 301 929 q 250 956 269 943 q 222 972 238 964 q 190 979 207 979 q 163 967 174 979 q 149 931 151 954 l 107 931 q 131 1010 108 979 q 192 1042 154 1042 q 231 1034 213 1042 q 265 1015 249 1026 q 294 1000 281 1007 q 322 993 308 993 q 353 1006 343 993 q 367 1039 363 1018 l 413 1039 q 398 979 411 1004 q 365 942 385 954 q 322 929 344 929 z "},"´":{"ha":233,"x_min":0,"x_max":208,"o":"m 0 760 l 79 894 l 208 894 l 82 760 l 0 760 z "},"́":{"ha":0,"x_min":0,"x_max":208,"o":"m 0 760 l 79 894 l 208 894 l 82 760 l 0 760 z "},"ä":{"ha":508,"x_min":43,"x_max":458,"o":"m 183 -11 q 117 -1 149 -11 q 65 40 86 8 q 43 136 43 71 l 43 218 q 83 327 43 286 q 201 400 122 368 q 274 435 247 419 q 314 471 301 450 q 326 528 326 492 l 326 563 q 316 603 326 589 q 290 623 306 617 q 253 629 274 629 q 192 601 207 629 q 178 513 178 574 l 178 454 l 60 454 l 60 525 q 74 616 60 576 q 129 678 88 656 q 253 701 171 701 q 381 685 338 701 q 442 634 425 668 q 458 547 458 600 l 458 0 l 328 0 l 328 79 q 273 13 314 36 q 183 -11 232 -11 m 238 76 q 305 110 285 76 q 325 206 325 144 l 325 399 q 290 368 315 382 q 242 339 265 354 q 189 295 207 318 q 171 232 171 272 l 171 167 q 180 109 171 129 q 205 83 189 89 q 238 76 221 76 m 183 765 q 142 782 158 765 q 125 822 125 799 q 142 862 125 846 q 183 878 158 878 q 224 862 208 878 q 240 822 240 846 q 224 782 240 799 q 183 765 208 765 m 338 765 q 296 782 313 765 q 279 822 279 799 q 296 862 279 846 q 338 878 313 878 q 379 862 363 878 q 396 822 396 846 q 379 782 396 799 q 338 765 363 765 z "},"ạ":{"ha":508,"x_min":43,"x_max":458,"o":"m 183 -11 q 117 -1 149 -11 q 65 40 86 8 q 43 136 43 71 l 43 218 q 83 327 43 286 q 201 400 122 368 q 274 435 247 419 q 314 471 301 450 q 326 528 326 492 l 326 563 q 316 603 326 589 q 290 623 306 617 q 253 629 274 629 q 192 601 207 629 q 178 513 178 574 l 178 454 l 60 454 l 60 525 q 74 616 60 576 q 129 678 88 656 q 253 701 171 701 q 381 685 338 701 q 442 634 425 668 q 458 547 458 600 l 458 0 l 328 0 l 328 79 q 273 13 314 36 q 183 -11 232 -11 m 238 76 q 305 110 285 76 q 325 206 325 144 l 325 399 q 290 368 315 382 q 242 339 265 354 q 189 295 207 318 q 171 232 171 272 l 171 167 q 180 109 171 129 q 205 83 189 89 q 238 76 221 76 m 253 -168 q 211 -151 228 -168 q 194 -112 194 -135 q 211 -72 194 -89 q 253 -56 228 -56 q 295 -72 278 -56 q 313 -112 313 -89 q 295 -151 313 -135 q 253 -168 278 -168 z "},"æ":{"ha":779,"x_min":43,"x_max":739,"o":"m 183 -7 q 142 -4 165 -7 q 96 12 118 -1 q 58 55 74 25 q 43 139 43 85 l 43 222 q 85 329 43 290 q 194 396 128 368 q 269 433 240 417 q 313 469 299 449 q 326 521 326 489 l 326 563 q 316 603 326 589 q 290 623 306 617 q 253 629 274 629 q 192 601 207 629 q 178 513 178 574 l 178 454 l 60 454 l 60 525 q 74 616 60 576 q 129 678 88 656 q 253 701 171 701 q 365 682 326 701 q 419 628 404 663 q 433 547 433 593 l 433 38 l 354 114 q 285 19 332 46 q 183 -7 238 -7 m 238 79 q 305 112 285 79 q 325 206 325 144 l 325 399 q 290 367 315 381 q 239 338 264 353 q 188 293 206 315 q 171 233 171 271 l 171 169 q 180 112 171 132 q 205 85 189 92 q 238 79 221 79 m 533 -3 q 450 3 486 -3 q 390 30 414 10 q 355 91 367 50 q 343 201 343 132 l 343 526 q 390 655 343 610 q 533 700 436 700 q 689 663 639 700 q 739 526 739 625 l 739 343 l 458 343 l 458 150 q 465 96 458 115 q 488 69 471 76 q 533 63 504 63 q 579 70 563 63 q 603 99 596 78 q 610 154 610 119 l 610 250 l 739 250 l 739 207 q 726 95 739 138 q 688 32 714 53 q 624 4 663 11 q 533 -3 586 -3 m 458 404 l 610 404 l 610 540 q 594 608 610 588 q 533 629 578 629 q 474 608 490 629 q 458 540 458 588 l 458 404 z "},"à":{"ha":508,"x_min":43,"x_max":458,"o":"m 183 -11 q 117 -1 149 -11 q 65 40 86 8 q 43 136 43 71 l 43 218 q 83 327 43 286 q 201 400 122 368 q 274 435 247 419 q 314 471 301 450 q 326 528 326 492 l 326 563 q 316 603 326 589 q 290 623 306 617 q 253 629 274 629 q 192 601 207 629 q 178 513 178 574 l 178 454 l 60 454 l 60 525 q 74 616 60 576 q 129 678 88 656 q 253 701 171 701 q 381 685 338 701 q 442 634 425 668 q 458 547 458 600 l 458 0 l 328 0 l 328 79 q 273 13 314 36 q 183 -11 232 -11 m 238 76 q 305 110 285 76 q 325 206 325 144 l 325 399 q 290 368 315 382 q 242 339 265 354 q 189 295 207 318 q 171 232 171 272 l 171 167 q 180 109 171 129 q 205 83 189 89 q 238 76 221 76 m 247 760 l 122 894 l 250 894 l 331 760 l 247 760 z "},"ả":{"ha":508,"x_min":43,"x_max":458,"o":"m 183 -11 q 117 -1 149 -11 q 65 40 86 8 q 43 136 43 71 l 43 218 q 83 327 43 286 q 201 400 122 368 q 274 435 247 419 q 314 471 301 450 q 326 528 326 492 l 326 563 q 316 603 326 589 q 290 623 306 617 q 253 629 274 629 q 192 601 207 629 q 178 513 178 574 l 178 454 l 60 454 l 60 525 q 74 616 60 576 q 129 678 88 656 q 253 701 171 701 q 381 685 338 701 q 442 634 425 668 q 458 547 458 600 l 458 0 l 328 0 l 328 79 q 273 13 314 36 q 183 -11 232 -11 m 238 76 q 305 110 285 76 q 325 206 325 144 l 325 399 q 290 368 315 382 q 242 339 265 354 q 189 295 207 318 q 171 232 171 272 l 171 167 q 180 109 171 129 q 205 83 189 89 q 238 76 221 76 m 224 761 l 224 781 q 239 810 224 800 q 269 831 254 821 q 285 857 285 840 l 285 864 q 278 888 285 876 q 253 899 271 899 q 225 867 229 899 l 164 876 q 192 929 168 911 q 260 947 215 947 q 335 931 310 947 q 361 867 361 915 l 361 861 q 344 819 361 831 q 311 800 328 807 q 294 776 294 793 l 294 761 l 224 761 z "},"ā":{"ha":508,"x_min":43,"x_max":458,"o":"m 183 -11 q 117 -1 149 -11 q 65 40 86 8 q 43 136 43 71 l 43 218 q 83 327 43 286 q 201 400 122 368 q 274 435 247 419 q 314 471 301 450 q 326 528 326 492 l 326 563 q 316 603 326 589 q 290 623 306 617 q 253 629 274 629 q 192 601 207 629 q 178 513 178 574 l 178 454 l 60 454 l 60 525 q 74 616 60 576 q 129 678 88 656 q 253 701 171 701 q 381 685 338 701 q 442 634 425 668 q 458 547 458 600 l 458 0 l 328 0 l 328 79 q 273 13 314 36 q 183 -11 232 -11 m 238 76 q 305 110 285 76 q 325 206 325 144 l 325 399 q 290 368 315 382 q 242 339 265 354 q 189 295 207 318 q 171 232 171 272 l 171 167 q 180 109 171 129 q 205 83 189 89 q 238 76 221 76 m 124 782 l 124 849 l 399 849 l 399 782 l 124 782 z "},"&":{"ha":653,"x_min":47,"x_max":606,"o":"m 261 -7 q 139 22 186 -7 q 69 101 92 50 q 47 222 47 153 q 77 346 47 294 q 165 413 107 397 q 140 469 151 435 q 131 549 129 504 q 176 664 133 622 q 306 706 218 706 q 388 699 349 706 q 457 686 428 693 q 497 674 486 679 l 497 576 q 468 584 493 578 q 409 597 443 590 q 339 603 375 603 q 281 587 301 603 q 253 547 260 571 q 252 495 246 522 q 274 443 258 468 q 292 417 279 433 q 320 381 304 400 q 351 344 336 363 q 380 310 367 325 q 400 288 393 296 l 401 421 l 606 421 l 606 338 l 489 338 q 488 284 489 306 q 487 247 488 263 q 483 213 486 231 q 551 155 517 182 q 606 117 585 128 l 606 -3 q 533 29 579 -1 q 442 100 488 60 q 398 35 426 58 q 334 2 369 11 q 261 -7 299 -7 m 267 83 q 335 106 310 83 q 368 164 361 128 q 281 258 324 211 q 211 340 239 306 q 168 306 185 331 q 151 233 151 282 q 181 122 149 160 q 267 83 214 83 z "},"ą":{"ha":508,"x_min":43,"x_max":486,"o":"m 183 -11 q 117 -1 149 -11 q 65 40 86 8 q 43 136 43 71 l 43 218 q 83 327 43 286 q 201 400 122 368 q 274 435 247 419 q 314 471 301 450 q 326 528 326 492 l 326 563 q 316 603 326 589 q 290 623 306 617 q 253 629 274 629 q 192 601 207 629 q 178 513 178 574 l 178 454 l 60 454 l 60 525 q 74 616 60 576 q 129 678 88 656 q 253 701 171 701 q 381 685 338 701 q 442 634 425 668 q 458 547 458 600 l 458 0 l 328 0 l 328 79 q 273 13 314 36 q 183 -11 232 -11 m 238 76 q 305 110 285 76 q 325 206 325 144 l 325 399 q 290 368 315 382 q 242 339 265 354 q 189 295 207 318 q 171 232 171 272 l 171 167 q 180 109 171 129 q 205 83 189 89 q 238 76 221 76 m 406 -196 q 328 -170 358 -196 q 299 -110 299 -144 q 328 -39 299 -71 q 401 1 358 -7 l 458 0 q 403 -40 421 -14 q 385 -92 385 -67 q 402 -132 385 -118 q 438 -146 419 -146 q 457 -143 449 -146 q 469 -139 465 -140 l 486 -175 q 459 -188 478 -181 q 406 -196 440 -196 z "},"≈":{"ha":707,"x_min":54,"x_max":651,"o":"m 488 435 q 396 451 439 436 q 308 481 353 465 q 213 499 264 497 q 151 479 175 500 q 125 433 128 458 l 54 433 q 78 513 57 479 q 136 565 100 546 q 219 583 172 585 q 308 568 265 582 q 394 540 350 554 q 485 524 438 526 q 550 541 529 522 q 574 582 571 560 l 651 582 q 624 488 650 521 q 562 444 599 454 q 488 435 525 433 m 488 142 q 396 158 439 143 q 308 189 353 174 q 213 206 264 204 q 151 187 175 207 q 125 140 128 167 l 54 140 q 78 220 57 186 q 136 274 100 254 q 219 292 172 293 q 308 276 265 290 q 394 247 350 261 q 485 232 438 233 q 550 249 529 231 q 574 290 571 268 l 651 290 q 624 196 650 229 q 562 151 599 163 q 488 142 525 140 z "},"å":{"ha":508,"x_min":43,"x_max":458,"o":"m 183 -11 q 117 -1 149 -11 q 65 40 86 8 q 43 136 43 71 l 43 218 q 83 327 43 286 q 201 400 122 368 q 274 435 247 419 q 314 471 301 450 q 326 528 326 492 l 326 563 q 316 603 326 589 q 290 623 306 617 q 253 629 274 629 q 192 601 207 629 q 178 513 178 574 l 178 454 l 60 454 l 60 525 q 74 616 60 576 q 129 678 88 656 q 253 701 171 701 q 381 685 338 701 q 442 634 425 668 q 458 547 458 600 l 458 0 l 328 0 l 328 79 q 273 13 314 36 q 183 -11 232 -11 m 238 76 q 305 110 285 76 q 325 206 325 144 l 325 399 q 290 368 315 382 q 242 339 265 354 q 189 295 207 318 q 171 232 171 272 l 171 167 q 180 109 171 129 q 205 83 189 89 q 238 76 221 76 m 260 753 q 177 785 210 753 q 144 863 144 817 q 177 940 144 908 q 260 972 210 972 q 344 940 311 972 q 376 861 376 907 q 342 785 376 817 q 260 753 307 753 m 260 808 q 302 824 286 808 q 318 861 318 839 q 302 903 318 888 q 260 918 286 918 q 218 903 233 918 q 203 861 203 888 q 218 824 203 839 q 260 808 233 808 z "},"^":{"ha":569,"x_min":54,"x_max":515,"o":"m 54 688 l 253 961 l 318 961 l 515 688 l 406 688 l 285 857 l 167 688 l 54 688 z "},"~":{"ha":707,"x_min":54,"x_max":651,"o":"m 488 706 q 396 722 439 707 q 308 753 353 738 q 213 769 264 768 q 151 751 175 771 q 125 706 128 731 l 54 706 q 78 785 57 750 q 136 838 100 819 q 219 856 172 857 q 308 841 265 856 q 394 812 350 826 q 485 796 438 797 q 550 813 529 794 q 574 854 571 832 l 651 854 q 624 760 650 793 q 562 717 599 728 q 488 706 525 706 z "},"*":{"ha":789,"x_min":58,"x_max":703,"o":"m 250 128 l 144 204 l 344 411 l 58 451 l 104 588 l 360 451 l 314 736 l 447 736 l 404 451 l 661 585 l 703 458 l 419 411 l 622 206 l 515 131 l 383 383 l 250 128 z "},"@":{"ha":1014,"x_min":67,"x_max":940,"o":"m 492 -93 q 235 -42 328 -93 q 104 108 142 10 q 67 349 67 207 q 169 698 67 574 q 497 824 271 822 q 725 783 625 825 q 883 649 825 740 q 940 411 940 558 q 917 240 940 313 q 851 129 893 168 q 749 90 808 90 q 674 112 706 90 q 624 167 642 133 q 603 239 606 200 l 633 233 q 565 144 608 171 q 463 118 522 118 q 356 150 396 118 q 317 263 317 182 q 328 331 317 301 q 377 383 340 360 q 488 426 414 407 q 544 449 521 435 q 574 475 567 464 q 583 494 581 483 q 585 515 585 504 q 568 565 585 549 q 508 581 551 581 q 442 562 461 581 q 424 503 424 543 l 424 461 l 331 461 l 331 507 q 345 583 331 553 q 398 626 360 613 q 507 640 436 640 q 619 624 581 640 q 673 576 658 608 q 688 494 688 544 l 688 253 q 710 170 688 194 q 765 146 732 146 q 817 169 793 146 q 855 249 840 193 q 869 397 869 304 q 831 593 869 510 q 711 722 792 676 q 507 768 631 768 q 301 728 383 768 q 179 595 219 688 q 139 346 139 503 q 165 153 139 228 q 240 38 192 78 q 356 -19 289 -3 q 503 -36 422 -35 q 575 -32 531 -36 q 669 -20 619 -28 q 763 -1 719 -12 q 832 22 807 10 l 832 -33 q 756 -59 806 -44 q 639 -83 706 -74 q 492 -93 572 -93 m 493 189 q 549 204 528 189 q 581 240 571 219 q 592 279 592 261 l 592 401 q 543 389 569 397 q 494 369 517 381 q 447 344 465 357 q 421 313 429 331 q 413 268 413 296 q 429 208 413 228 q 493 189 446 189 z "},"ã":{"ha":508,"x_min":43,"x_max":458,"o":"m 183 -11 q 117 -1 149 -11 q 65 40 86 8 q 43 136 43 71 l 43 218 q 83 327 43 286 q 201 400 122 368 q 274 435 247 419 q 314 471 301 450 q 326 528 326 492 l 326 563 q 316 603 326 589 q 290 623 306 617 q 253 629 274 629 q 192 601 207 629 q 178 513 178 574 l 178 454 l 60 454 l 60 525 q 74 616 60 576 q 129 678 88 656 q 253 701 171 701 q 381 685 338 701 q 442 634 425 668 q 458 547 458 600 l 458 0 l 328 0 l 328 79 q 273 13 314 36 q 183 -11 232 -11 m 238 76 q 305 110 285 76 q 325 206 325 144 l 325 399 q 290 368 315 382 q 242 339 265 354 q 189 295 207 318 q 171 232 171 272 l 171 167 q 180 109 171 129 q 205 83 189 89 q 238 76 221 76 m 324 767 q 287 774 303 767 q 251 793 271 781 q 224 809 239 801 q 192 817 208 817 q 164 804 175 817 q 150 768 153 792 l 108 768 q 133 848 110 817 q 193 879 156 879 q 232 872 214 879 q 267 853 250 864 q 296 838 282 844 q 324 831 310 831 q 354 843 344 831 q 368 876 364 856 l 414 876 q 399 817 413 842 q 366 779 386 792 q 324 767 346 767 z "},"b":{"ha":519,"x_min":60,"x_max":472,"o":"m 294 -10 q 199 14 231 -10 q 157 63 168 38 l 153 0 l 60 0 l 60 875 l 190 875 l 190 633 q 235 681 206 663 q 315 699 265 699 q 405 681 371 699 q 456 625 439 663 q 472 531 472 588 l 472 194 q 463 98 472 138 q 433 35 454 58 q 377 1 411 13 q 294 -10 343 -10 m 267 79 q 311 88 296 79 q 333 110 326 96 q 341 144 340 125 q 342 185 342 163 l 342 515 q 340 553 342 535 q 332 586 339 572 q 310 608 325 600 q 267 615 294 615 q 208 593 225 615 q 190 525 190 571 l 190 203 q 192 158 190 181 q 200 118 193 136 q 222 90 207 100 q 267 79 238 79 z "},"\\":{"ha":750,"x_min":54,"x_max":625,"o":"m 531 -62 l 54 875 l 150 875 l 625 -62 l 531 -62 z "},"|":{"ha":368,"x_min":126,"x_max":240,"o":"m 126 -335 l 126 875 l 240 875 l 240 -335 l 126 -335 z "},"б":{"ha":514,"x_min":47,"x_max":467,"o":"m 251 -10 q 141 7 186 -10 q 72 63 96 24 q 47 169 47 103 l 47 664 q 62 777 47 733 q 110 842 76 821 q 203 864 144 864 q 266 867 231 864 q 335 876 301 871 q 393 889 369 882 q 421 901 417 896 l 421 846 q 395 808 421 826 q 313 788 369 789 l 293 788 q 224 776 249 788 q 188 741 199 765 q 176 678 178 717 l 176 600 q 219 643 189 624 q 304 663 250 663 q 392 647 356 663 q 447 594 428 631 q 467 493 467 558 l 467 203 q 455 97 467 138 q 417 32 443 56 q 351 -1 392 8 q 251 -10 310 -10 m 257 68 q 309 81 292 68 q 332 118 326 94 q 338 172 338 142 l 338 481 q 332 532 338 510 q 310 567 326 554 q 258 579 293 579 q 213 572 229 579 q 188 551 196 564 q 178 522 181 538 q 176 492 176 507 l 176 172 q 182 118 176 142 q 205 81 188 94 q 257 68 222 68 z "},"{":{"ha":449,"x_min":83,"x_max":368,"o":"m 368 -189 q 212 -158 271 -186 q 127 -87 153 -131 q 101 6 101 -44 q 117 88 101 53 q 151 151 132 124 q 185 206 171 179 q 200 263 200 232 q 184 308 200 289 q 142 338 168 326 q 83 350 117 349 l 83 389 q 138 402 113 390 q 181 435 164 414 q 197 485 197 457 q 183 537 197 511 q 149 590 168 563 q 116 651 131 618 q 101 726 101 685 q 126 823 101 781 q 209 892 151 865 q 368 924 267 918 l 368 850 q 304 835 333 844 q 258 801 275 825 q 242 726 242 776 q 253 655 242 686 q 279 597 264 624 q 306 542 294 571 q 317 476 317 513 q 307 434 317 457 q 274 394 297 411 q 211 369 250 376 q 289 336 260 361 q 318 267 318 311 q 308 207 318 235 q 283 151 297 179 q 259 92 269 124 q 249 18 249 60 q 267 -60 249 -32 q 314 -102 286 -89 q 368 -118 342 -115 l 368 -189 z "},"}":{"ha":449,"x_min":81,"x_max":365,"o":"m 81 -189 l 81 -118 q 135 -102 107 -115 q 181 -60 163 -89 q 200 18 200 -32 q 190 92 200 60 q 165 151 179 124 q 142 207 151 179 q 132 267 132 235 q 161 336 132 311 q 239 369 190 361 q 176 394 200 376 q 142 434 153 411 q 132 476 132 457 q 144 542 132 513 q 170 597 156 571 q 197 655 185 624 q 208 726 208 686 q 191 801 208 776 q 145 835 174 825 q 81 850 117 844 l 81 924 q 240 892 182 918 q 323 823 299 865 q 347 726 347 781 q 333 651 347 685 q 299 590 318 618 q 266 537 281 563 q 251 485 251 511 q 268 435 251 457 q 311 402 285 414 q 365 389 338 390 l 365 350 q 307 338 333 349 q 265 308 281 326 q 249 263 249 289 q 264 206 249 232 q 299 151 279 179 q 333 88 318 124 q 347 6 347 53 q 322 -87 347 -44 q 238 -158 296 -131 q 81 -189 179 -186 z "},"[":{"ha":421,"x_min":63,"x_max":358,"o":"m 63 -79 l 63 875 l 358 875 l 358 804 l 185 804 l 185 -8 l 358 -8 l 358 -79 l 63 -79 z "},"]":{"ha":421,"x_min":63,"x_max":358,"o":"m 63 -79 l 63 -8 l 235 -8 l 235 804 l 63 804 l 63 875 l 358 875 l 358 -79 l 63 -79 z "},"˘":{"ha":343,"x_min":19,"x_max":319,"o":"m 168 763 q 76 785 108 763 q 33 838 44 807 q 19 894 21 869 l 93 894 q 117 843 96 860 q 168 826 139 826 q 222 842 200 826 q 246 894 243 858 l 319 894 q 303 832 318 863 q 255 782 288 801 q 168 763 222 763 z "},"̆":{"ha":0,"x_min":19,"x_max":319,"o":"m 168 763 q 76 785 108 763 q 33 838 44 807 q 19 894 21 869 l 93 894 q 117 843 96 860 q 168 826 139 826 q 222 842 200 826 q 246 894 243 858 l 319 894 q 303 832 318 863 q 255 782 288 801 q 168 763 222 763 z "},"¦":{"ha":317,"x_min":101,"x_max":215,"o":"m 101 -233 l 101 242 l 215 242 l 215 -233 l 101 -233 m 101 376 l 101 813 l 215 813 l 215 376 l 101 376 z "},"•":{"ha":528,"x_min":75,"x_max":454,"o":"m 265 199 q 169 224 213 199 q 101 293 126 250 q 75 389 75 336 q 101 484 75 442 q 169 552 126 526 q 265 578 213 578 q 360 552 318 578 q 428 484 403 526 q 454 389 454 442 q 428 293 454 336 q 360 224 403 250 q 265 199 318 199 z "},"c":{"ha":497,"x_min":47,"x_max":458,"o":"m 257 -11 q 140 4 186 -11 q 70 65 93 19 q 47 201 47 111 l 47 518 q 97 661 47 622 q 253 700 147 700 q 408 663 358 700 q 458 526 458 625 l 458 431 l 328 431 l 328 532 q 313 601 328 581 q 253 622 297 622 q 194 601 210 622 q 178 532 178 581 l 178 161 q 194 89 178 110 q 256 68 210 68 q 313 88 297 68 q 328 161 328 108 l 328 269 l 458 269 l 458 201 q 435 66 458 113 q 367 4 413 19 q 257 -11 322 -11 z "},"ć":{"ha":497,"x_min":47,"x_max":458,"o":"m 257 -11 q 140 4 186 -11 q 70 65 93 19 q 47 201 47 111 l 47 518 q 97 661 47 622 q 253 700 147 700 q 408 663 358 700 q 458 526 458 625 l 458 431 l 328 431 l 328 532 q 313 601 328 581 q 253 622 297 622 q 194 601 210 622 q 178 532 178 581 l 178 161 q 194 89 178 110 q 256 68 210 68 q 313 88 297 68 q 328 161 328 108 l 328 269 l 458 269 l 458 201 q 435 66 458 113 q 367 4 413 19 q 257 -11 322 -11 m 186 760 l 265 894 l 394 894 l 268 760 l 186 760 z "},"ˇ":{"ha":372,"x_min":6,"x_max":340,"o":"m 135 758 l 6 897 l 88 897 l 174 817 l 261 897 l 340 897 l 211 758 l 135 758 z "},"̌":{"ha":0,"x_min":6,"x_max":340,"o":"m 135 758 l 6 897 l 88 897 l 174 817 l 261 897 l 340 897 l 211 758 l 135 758 z "},"č":{"ha":497,"x_min":47,"x_max":458,"o":"m 257 -11 q 140 4 186 -11 q 70 65 93 19 q 47 201 47 111 l 47 518 q 97 661 47 622 q 253 700 147 700 q 408 663 358 700 q 458 526 458 625 l 458 431 l 328 431 l 328 532 q 313 601 328 581 q 253 622 297 622 q 194 601 210 622 q 178 532 178 581 l 178 161 q 194 89 178 110 q 256 68 210 68 q 313 88 297 68 q 328 161 328 108 l 328 269 l 458 269 l 458 201 q 435 66 458 113 q 367 4 413 19 q 257 -11 322 -11 m 211 758 l 82 897 l 164 897 l 250 817 l 338 897 l 417 897 l 288 758 l 211 758 z "},"ç":{"ha":497,"x_min":47,"x_max":458,"o":"m 257 -11 q 140 4 186 -11 q 70 65 93 19 q 47 201 47 111 l 47 518 q 97 661 47 622 q 253 700 147 700 q 408 663 358 700 q 458 526 458 625 l 458 431 l 328 431 l 328 532 q 313 601 328 581 q 253 622 297 622 q 194 601 210 622 q 178 532 178 581 l 178 161 q 194 89 178 110 q 256 68 210 68 q 313 88 297 68 q 328 161 328 108 l 328 269 l 458 269 l 458 201 q 435 66 458 113 q 367 4 413 19 q 257 -11 322 -11 m 243 -215 q 197 -206 218 -215 q 167 -192 176 -197 l 183 -149 q 208 -161 192 -156 q 238 -167 225 -167 q 274 -156 261 -167 q 286 -126 286 -144 q 276 -103 286 -111 q 250 -94 265 -94 q 233 -98 240 -94 q 219 -106 225 -101 l 181 -85 l 225 0 l 276 0 l 239 -72 l 231 -68 q 253 -59 240 -62 q 281 -56 265 -56 q 339 -78 318 -56 q 360 -126 360 -101 q 329 -190 360 -164 q 243 -215 299 -215 z "},"ċ":{"ha":497,"x_min":47,"x_max":458,"o":"m 257 -11 q 140 4 186 -11 q 70 65 93 19 q 47 201 47 111 l 47 518 q 97 661 47 622 q 253 700 147 700 q 408 663 358 700 q 458 526 458 625 l 458 431 l 328 431 l 328 532 q 313 601 328 581 q 253 622 297 622 q 194 601 210 622 q 178 532 178 581 l 178 161 q 194 89 178 110 q 256 68 210 68 q 313 88 297 68 q 328 161 328 108 l 328 269 l 458 269 l 458 201 q 435 66 458 113 q 367 4 413 19 q 257 -11 322 -11 m 250 765 q 201 785 221 765 q 179 835 181 806 q 200 883 179 863 q 250 903 221 903 q 300 883 279 903 q 321 833 321 863 q 301 785 322 806 q 250 765 279 765 z "},"¸":{"ha":254,"x_min":0,"x_max":193,"o":"m 76 -215 q 31 -206 51 -215 q 0 -192 10 -197 l 17 -149 q 42 -161 25 -156 q 71 -167 58 -167 q 107 -156 94 -167 q 119 -126 119 -144 q 109 -103 119 -111 q 83 -94 99 -94 q 66 -98 74 -94 q 53 -106 58 -101 l 14 -85 l 58 0 l 110 0 l 72 -72 l 64 -68 q 86 -59 74 -62 q 114 -56 99 -56 q 172 -78 151 -56 q 193 -126 193 -101 q 163 -190 193 -164 q 76 -215 132 -215 z "},"̧":{"ha":0,"x_min":0,"x_max":193,"o":"m 76 -215 q 31 -206 51 -215 q 0 -192 10 -197 l 17 -149 q 42 -161 25 -156 q 71 -167 58 -167 q 107 -156 94 -167 q 119 -126 119 -144 q 109 -103 119 -111 q 83 -94 99 -94 q 66 -98 74 -94 q 53 -106 58 -101 l 14 -85 l 58 0 l 110 0 l 72 -72 l 64 -68 q 86 -59 74 -62 q 114 -56 99 -56 q 172 -78 151 -56 q 193 -126 193 -101 q 163 -190 193 -164 q 76 -215 132 -215 z "},"¢":{"ha":499,"x_min":54,"x_max":444,"o":"m 210 -90 l 210 68 q 128 88 164 72 q 74 142 93 103 q 54 254 54 181 l 54 626 q 74 715 54 682 q 128 763 93 747 q 210 781 164 778 l 210 900 l 294 900 l 294 778 q 372 757 338 772 q 425 710 406 742 q 444 626 444 679 l 444 493 l 329 493 l 329 632 q 318 683 329 667 q 290 706 307 700 q 250 713 272 713 q 210 706 228 713 q 181 683 192 700 q 169 632 169 667 l 169 218 q 181 165 169 182 q 210 141 192 147 q 250 135 228 135 q 290 141 272 135 q 319 165 308 147 q 329 218 329 182 l 329 340 l 444 340 l 444 254 q 424 149 444 188 q 371 93 404 110 q 294 72 338 76 l 294 -90 l 210 -90 z "},"ч":{"ha":492,"x_min":36,"x_max":442,"o":"m 319 0 l 319 244 q 274 180 310 204 q 189 156 238 156 q 92 178 125 156 q 47 242 58 200 q 36 340 36 283 l 36 688 l 167 688 l 167 339 q 181 269 167 293 q 238 244 196 244 q 287 260 269 244 q 311 293 304 276 l 311 688 l 442 688 l 442 0 l 319 0 z "},"ˆ":{"ha":363,"x_min":14,"x_max":349,"o":"m 14 758 l 142 897 l 219 897 l 349 758 l 269 758 l 182 839 l 96 758 l 14 758 z "},"̂":{"ha":0,"x_min":14,"x_max":349,"o":"m 14 758 l 142 897 l 219 897 l 349 758 l 269 758 l 182 839 l 96 758 l 14 758 z "},":":{"ha":282,"x_min":69,"x_max":213,"o":"m 140 375 q 90 395 111 375 q 69 443 69 415 q 90 492 69 472 q 140 511 111 511 q 191 492 169 511 q 213 443 213 472 q 191 395 213 415 q 140 375 169 375 m 140 -11 q 90 9 111 -11 q 69 57 69 29 q 90 106 69 86 q 140 125 111 125 q 191 106 169 125 q 213 57 213 86 q 191 9 213 29 q 140 -11 169 -11 z "},",":{"ha":289,"x_min":71,"x_max":219,"o":"m 71 -190 q 104 -112 89 -149 q 119 -49 119 -76 q 110 -10 119 -24 q 90 15 100 3 q 79 51 79 28 q 99 97 79 78 q 150 117 118 117 q 201 96 182 117 q 219 43 219 75 q 206 -33 219 10 q 172 -116 193 -75 q 129 -190 151 -157 l 71 -190 z "},"̦":{"ha":0,"x_min":0,"x_max":128,"o":"m 0 -249 q 30 -197 18 -221 q 42 -157 42 -172 q 33 -140 42 -147 q 16 -124 25 -133 q 7 -99 7 -115 q 24 -66 7 -81 q 65 -51 40 -51 q 110 -67 93 -51 q 128 -107 128 -83 q 116 -151 128 -125 q 88 -202 104 -176 q 54 -249 72 -228 l 0 -249 z "},"̒":{"ha":0,"x_min":-4,"x_max":124,"o":"m 124 950 q 94 898 106 922 q 82 858 82 874 q 91 842 82 849 q 108 826 100 835 q 115 800 115 817 q 99 768 115 782 q 58 754 83 754 q 13 770 31 754 q -4 808 -4 786 q 8 853 -4 828 q 36 904 19 878 q 69 950 53 931 l 124 950 z "},"©":{"ha":833,"x_min":50,"x_max":829,"o":"m 440 42 q 289 72 360 42 q 164 156 218 101 q 80 281 110 210 q 50 432 50 351 q 80 584 50 514 q 164 708 110 654 q 289 791 218 761 q 440 821 360 821 q 592 791 521 821 q 716 708 663 761 q 799 584 769 654 q 829 432 829 514 q 799 281 829 351 q 716 156 769 210 q 592 72 663 101 q 440 42 521 42 m 440 94 q 571 121 510 94 q 678 194 632 147 q 749 303 724 242 q 775 433 775 364 q 730 601 775 525 q 609 723 685 678 q 440 768 533 768 q 310 742 371 768 q 203 669 250 715 q 131 563 157 624 q 104 432 104 501 q 131 303 104 364 q 203 194 157 242 q 310 121 250 147 q 440 94 371 94 m 444 211 q 363 222 396 211 q 315 262 331 232 q 299 351 299 292 l 299 556 q 333 650 299 625 q 442 675 368 675 q 550 651 515 675 q 585 561 585 626 l 585 499 l 496 499 l 496 567 q 485 609 496 596 q 442 622 474 622 q 399 609 410 622 q 388 567 388 596 l 388 324 q 399 277 388 290 q 443 264 410 264 q 485 276 474 264 q 496 324 496 289 l 496 396 l 585 396 l 585 351 q 569 263 585 293 q 522 222 553 232 q 444 211 490 211 z "},"¤":{"ha":693,"x_min":54,"x_max":639,"o":"m 124 132 l 60 196 l 181 315 q 155 364 164 339 q 146 417 146 389 q 179 521 146 474 l 54 646 l 115 708 l 244 581 q 343 607 292 607 q 444 581 396 607 l 571 706 l 633 643 l 510 519 q 542 417 542 472 q 511 318 542 364 l 639 190 l 576 128 l 446 258 q 395 237 421 244 q 343 229 369 229 q 244 254 289 229 l 124 132 m 343 319 q 413 348 385 319 q 442 417 442 376 q 413 488 442 458 q 343 517 385 517 q 274 488 301 517 q 246 417 246 460 q 274 348 246 376 q 343 319 301 319 z "},"d":{"ha":519,"x_min":47,"x_max":460,"o":"m 224 -10 q 143 1 176 -10 q 88 34 110 11 q 57 97 67 57 q 47 194 47 136 l 47 532 q 58 606 47 575 q 88 658 68 638 q 136 688 107 678 q 201 697 165 697 q 287 681 258 697 q 329 642 315 664 l 329 875 l 460 875 l 460 0 l 371 0 l 357 65 q 335 33 350 50 q 293 3 319 15 q 224 -10 267 -10 m 251 65 q 295 76 279 65 q 318 103 311 86 q 327 142 325 121 q 329 185 329 163 l 329 574 q 319 592 326 582 q 295 610 311 603 q 253 618 279 618 q 210 610 225 618 q 188 588 194 603 q 179 556 181 574 q 178 517 178 538 l 178 167 q 181 116 178 139 q 201 79 185 93 q 251 65 217 65 z "},"†":{"ha":522,"x_min":54,"x_max":468,"o":"m 203 -169 l 203 447 l 54 447 l 54 522 l 203 522 l 203 813 l 317 813 l 317 522 l 468 522 l 468 447 l 317 447 l 317 -169 l 203 -169 z "},"‡":{"ha":528,"x_min":54,"x_max":474,"o":"m 204 -169 l 204 196 l 54 196 l 54 279 l 204 279 l 204 460 l 54 460 l 54 543 l 204 543 l 204 846 l 321 846 l 321 543 l 474 543 l 474 460 l 321 460 l 321 279 l 474 279 l 474 196 l 321 196 l 321 -169 l 204 -169 z "},"ď":{"ha":597,"x_min":47,"x_max":608,"o":"m 224 -10 q 143 1 176 -10 q 88 34 110 11 q 57 97 67 57 q 47 194 47 136 l 47 532 q 58 606 47 575 q 88 658 68 638 q 136 688 107 678 q 201 697 165 697 q 287 681 258 697 q 329 642 315 664 l 329 875 l 460 875 l 460 0 l 371 0 l 357 65 q 335 33 350 50 q 293 3 319 15 q 224 -10 267 -10 m 251 65 q 295 76 279 65 q 318 103 311 86 q 327 142 325 121 q 329 185 329 163 l 329 574 q 319 592 326 582 q 295 610 311 603 q 253 618 279 618 q 210 610 225 618 q 188 588 194 603 q 179 556 181 574 q 178 517 178 538 l 178 167 q 181 116 178 139 q 201 79 185 93 q 251 65 217 65 m 496 682 l 526 875 l 608 875 l 544 682 l 496 682 z "},"đ":{"ha":513,"x_min":47,"x_max":506,"o":"m 192 743 l 192 796 l 506 796 l 506 743 l 192 743 m 224 -10 q 143 1 176 -10 q 88 34 110 11 q 57 97 67 57 q 47 194 47 136 l 47 532 q 58 606 47 575 q 88 658 68 638 q 136 688 107 678 q 201 697 165 697 q 287 681 258 697 q 329 642 315 664 l 329 875 l 460 875 l 460 0 l 371 0 l 357 65 q 335 33 350 50 q 293 3 319 15 q 224 -10 267 -10 m 251 65 q 295 76 279 65 q 318 103 311 86 q 327 142 325 121 q 329 185 329 163 l 329 574 q 319 592 326 582 q 295 610 311 603 q 253 618 279 618 q 210 610 225 618 q 188 588 194 603 q 179 556 181 574 q 178 517 178 538 l 178 167 q 181 116 178 139 q 201 79 185 93 q 251 65 217 65 z "},"д":{"ha":726,"x_min":28,"x_max":700,"o":"m 28 -154 l 28 78 l 82 78 q 117 93 99 81 q 149 133 135 106 q 168 204 164 160 l 219 688 l 590 688 l 590 78 l 700 78 l 700 -154 l 590 -154 l 590 -24 l 138 -24 l 138 -154 l 28 -154 m 256 78 l 451 78 l 451 592 l 339 592 l 297 218 q 285 138 293 181 q 256 78 276 94 z "},"°":{"ha":454,"x_min":54,"x_max":400,"o":"m 226 483 q 96 533 138 483 q 54 651 54 582 q 94 772 54 722 q 229 821 133 821 q 331 798 293 821 q 384 737 368 775 q 400 654 400 699 q 358 531 400 579 q 226 483 315 483 m 228 544 q 301 574 275 544 q 328 653 328 604 q 302 728 328 696 q 226 761 276 761 q 153 730 181 761 q 126 651 126 699 q 156 574 126 604 q 228 544 185 544 z "},"¨":{"ha":299,"x_min":0,"x_max":271,"o":"m 58 765 q 17 782 33 765 q 0 822 0 799 q 17 862 0 846 q 58 878 33 878 q 99 862 83 878 q 115 822 115 846 q 99 782 115 799 q 58 765 83 765 m 213 765 q 171 782 188 765 q 154 822 154 799 q 171 862 154 846 q 213 878 188 878 q 254 862 238 878 q 271 822 271 846 q 254 782 271 799 q 213 765 238 765 z "},"̈":{"ha":0,"x_min":0,"x_max":271,"o":"m 58 765 q 17 782 33 765 q 0 822 0 799 q 17 862 0 846 q 58 878 33 878 q 99 862 83 878 q 115 822 115 846 q 99 782 115 799 q 58 765 83 765 m 213 765 q 171 782 188 765 q 154 822 154 799 q 171 862 154 846 q 213 878 188 878 q 254 862 238 878 q 271 822 271 846 q 254 782 271 799 q 213 765 238 765 z "},"÷":{"ha":528,"x_min":63,"x_max":465,"o":"m 63 357 l 63 446 l 465 446 l 465 357 l 63 357 m 264 108 q 216 126 235 108 q 197 171 197 143 q 216 217 197 199 q 264 235 235 235 q 311 217 292 235 q 331 171 331 199 q 311 126 331 143 q 264 108 292 108 m 263 556 q 215 574 235 556 q 196 619 196 593 q 215 666 196 647 q 263 685 235 685 q 310 666 290 685 q 331 619 331 647 q 310 574 331 593 q 263 556 290 556 z "},"∕":{"ha":593,"x_min":24,"x_max":581,"o":"m 24 -189 l 485 988 l 581 988 l 118 -189 l 24 -189 z "},"ђ":{"ha":583,"x_min":18,"x_max":533,"o":"m 382 -128 q 327 -122 350 -128 q 289 -110 304 -117 l 296 -49 q 312 -56 303 -53 q 335 -58 321 -58 q 388 -28 374 -58 q 401 57 401 1 l 401 417 q 384 478 400 456 q 324 501 368 501 q 276 490 293 501 q 253 461 260 479 q 246 425 247 443 q 243 393 244 407 l 243 0 l 110 0 l 110 699 l 18 699 l 18 771 l 110 771 l 110 875 l 243 875 l 243 771 l 371 771 l 371 699 l 243 699 l 243 514 q 288 563 257 542 q 371 583 318 583 q 457 567 421 583 q 513 515 493 551 q 533 414 533 478 l 533 88 q 522 -23 533 19 q 490 -88 510 -65 q 442 -119 469 -111 q 382 -128 414 -128 z "},"$":{"ha":486,"x_min":43,"x_max":449,"o":"m 218 -83 l 218 69 q 110 96 149 74 q 58 162 72 118 q 43 271 43 206 l 43 322 l 168 322 l 168 246 q 171 192 168 217 q 190 155 174 168 q 243 142 206 142 q 293 155 278 142 q 313 188 308 168 q 317 226 317 208 l 317 274 q 303 331 317 308 q 265 369 290 353 q 200 400 239 385 q 128 437 161 417 q 76 490 96 457 q 57 574 57 522 l 57 614 q 93 731 57 688 q 218 782 129 775 l 218 917 l 290 917 l 290 783 q 414 731 379 776 q 449 593 449 685 l 449 539 l 329 539 l 329 614 q 312 690 329 668 q 256 711 294 711 q 198 690 213 711 q 183 635 183 668 l 183 588 q 201 528 183 550 q 249 492 219 506 q 317 463 279 478 q 383 428 353 447 q 431 378 413 410 q 449 292 449 346 l 449 254 q 436 167 449 207 q 390 102 424 128 q 290 71 356 76 l 290 -83 l 218 -83 z "},"˙":{"ha":144,"x_min":0,"x_max":143,"o":"m 71 765 q 22 785 42 765 q 0 835 1 806 q 21 883 0 863 q 71 903 42 903 q 121 883 100 903 q 142 833 142 863 q 122 785 143 806 q 71 765 100 765 z "},"̇":{"ha":0,"x_min":0,"x_max":143,"o":"m 71 765 q 22 785 42 765 q 0 835 1 806 q 21 883 0 863 q 71 903 42 903 q 121 883 100 903 q 142 833 142 863 q 122 785 143 806 q 71 765 100 765 z "},"̣":{"ha":0,"x_min":14,"x_max":132,"o":"m 72 -168 q 31 -151 47 -168 q 14 -112 14 -135 q 31 -72 14 -89 q 72 -56 47 -56 q 115 -72 97 -56 q 132 -112 132 -89 q 115 -151 132 -135 q 72 -168 97 -168 z "},"↓":{"ha":729,"x_min":54,"x_max":675,"o":"m 367 -1 l 54 361 l 118 425 l 313 222 l 315 1003 l 418 1001 l 417 225 l 613 425 l 675 361 l 367 -1 z "},"ѕ":{"ha":500,"x_min":39,"x_max":460,"o":"m 249 -14 q 138 1 181 -14 q 74 44 96 17 q 46 108 53 71 q 39 189 39 146 l 39 239 l 171 239 l 171 164 q 174 110 171 135 q 192 72 176 86 q 247 58 208 58 q 297 72 282 58 q 317 105 313 85 q 321 143 321 125 l 321 192 q 308 249 321 226 q 267 286 294 271 q 201 318 240 301 q 127 354 161 333 q 73 408 93 375 q 53 490 53 440 l 53 532 q 99 658 53 614 q 260 701 144 701 q 378 681 335 701 q 441 619 422 661 q 460 510 460 576 l 460 457 l 333 457 l 333 531 q 316 608 333 586 q 260 629 299 629 q 201 607 217 629 q 186 553 186 585 l 186 506 q 205 446 186 468 q 254 409 224 424 q 324 379 285 394 q 392 346 361 365 q 442 294 424 326 q 460 210 460 263 l 460 172 q 443 76 460 118 q 381 10 426 35 q 249 -14 335 -14 z "},"џ":{"ha":524,"x_min":50,"x_max":472,"o":"m 213 -147 l 213 0 l 50 0 l 50 688 l 181 688 l 181 94 l 342 94 l 342 688 l 472 688 l 472 0 l 308 0 l 308 -147 l 213 -147 z "},"e":{"ha":497,"x_min":47,"x_max":458,"o":"m 257 -11 q 140 5 186 -11 q 70 67 93 21 q 47 204 47 113 l 47 526 q 97 662 47 625 q 253 699 147 699 q 408 662 358 699 q 458 526 458 625 l 458 343 l 178 343 l 178 153 q 194 81 178 101 q 256 60 210 60 q 313 80 297 60 q 328 153 328 100 l 328 254 l 458 254 l 458 206 q 435 68 458 115 q 368 5 413 21 q 257 -11 324 -11 m 178 404 l 328 404 l 328 540 q 313 608 328 588 q 253 628 297 628 q 194 608 210 628 q 178 540 178 588 l 178 404 z "},"é":{"ha":497,"x_min":47,"x_max":458,"o":"m 257 -11 q 140 5 186 -11 q 70 67 93 21 q 47 204 47 113 l 47 526 q 97 662 47 625 q 253 699 147 699 q 408 662 358 699 q 458 526 458 625 l 458 343 l 178 343 l 178 153 q 194 81 178 101 q 256 60 210 60 q 313 80 297 60 q 328 153 328 100 l 328 254 l 458 254 l 458 206 q 435 68 458 115 q 368 5 413 21 q 257 -11 324 -11 m 178 404 l 328 404 l 328 540 q 313 608 328 588 q 253 628 297 628 q 194 608 210 628 q 178 540 178 588 l 178 404 m 186 760 l 265 894 l 394 894 l 268 760 l 186 760 z "},"ě":{"ha":497,"x_min":47,"x_max":458,"o":"m 257 -11 q 140 5 186 -11 q 70 67 93 21 q 47 204 47 113 l 47 526 q 97 662 47 625 q 253 699 147 699 q 408 662 358 699 q 458 526 458 625 l 458 343 l 178 343 l 178 153 q 194 81 178 101 q 256 60 210 60 q 313 80 297 60 q 328 153 328 100 l 328 254 l 458 254 l 458 206 q 435 68 458 115 q 368 5 413 21 q 257 -11 324 -11 m 178 404 l 328 404 l 328 540 q 313 608 328 588 q 253 628 297 628 q 194 608 210 628 q 178 540 178 588 l 178 404 m 211 758 l 82 897 l 164 897 l 250 817 l 338 897 l 417 897 l 288 758 l 211 758 z "},"ê":{"ha":497,"x_min":47,"x_max":458,"o":"m 257 -11 q 140 5 186 -11 q 70 67 93 21 q 47 204 47 113 l 47 526 q 97 662 47 625 q 253 699 147 699 q 408 662 358 699 q 458 526 458 625 l 458 343 l 178 343 l 178 153 q 194 81 178 101 q 256 60 210 60 q 313 80 297 60 q 328 153 328 100 l 328 254 l 458 254 l 458 206 q 435 68 458 115 q 368 5 413 21 q 257 -11 324 -11 m 178 404 l 328 404 l 328 540 q 313 608 328 588 q 253 628 297 628 q 194 608 210 628 q 178 540 178 588 l 178 404 m 82 758 l 210 897 l 288 897 l 417 758 l 338 758 l 250 839 l 164 758 l 82 758 z "},"ế":{"ha":497,"x_min":47,"x_max":618,"o":"m 257 -11 q 140 5 186 -11 q 70 67 93 21 q 47 204 47 113 l 47 526 q 97 662 47 625 q 253 699 147 699 q 408 662 358 699 q 458 526 458 625 l 458 343 l 178 343 l 178 153 q 194 81 178 101 q 256 60 210 60 q 313 80 297 60 q 328 153 328 100 l 328 254 l 458 254 l 458 206 q 435 68 458 115 q 368 5 413 21 q 257 -11 324 -11 m 178 404 l 328 404 l 328 540 q 313 608 328 588 q 253 628 297 628 q 194 608 210 628 q 178 540 178 588 l 178 404 m 82 758 l 210 897 l 288 897 l 417 758 l 338 758 l 250 839 l 164 758 l 82 758 m 410 835 l 489 969 l 618 969 l 492 835 l 410 835 z "},"ệ":{"ha":497,"x_min":47,"x_max":458,"o":"m 257 -11 q 140 5 186 -11 q 70 67 93 21 q 47 204 47 113 l 47 526 q 97 662 47 625 q 253 699 147 699 q 408 662 358 699 q 458 526 458 625 l 458 343 l 178 343 l 178 153 q 194 81 178 101 q 256 60 210 60 q 313 80 297 60 q 328 153 328 100 l 328 254 l 458 254 l 458 206 q 435 68 458 115 q 368 5 413 21 q 257 -11 324 -11 m 178 404 l 328 404 l 328 540 q 313 608 328 588 q 253 628 297 628 q 194 608 210 628 q 178 540 178 588 l 178 404 m 249 -168 q 207 -151 224 -168 q 190 -112 190 -135 q 207 -72 190 -89 q 249 -56 224 -56 q 291 -72 274 -56 q 308 -112 308 -89 q 291 -151 308 -135 q 249 -168 274 -168 m 82 758 l 210 897 l 288 897 l 417 758 l 338 758 l 250 839 l 164 758 l 82 758 z "},"ề":{"ha":497,"x_min":47,"x_max":542,"o":"m 257 -11 q 140 5 186 -11 q 70 67 93 21 q 47 204 47 113 l 47 526 q 97 662 47 625 q 253 699 147 699 q 408 662 358 699 q 458 526 458 625 l 458 343 l 178 343 l 178 153 q 194 81 178 101 q 256 60 210 60 q 313 80 297 60 q 328 153 328 100 l 328 254 l 458 254 l 458 206 q 435 68 458 115 q 368 5 413 21 q 257 -11 324 -11 m 178 404 l 328 404 l 328 540 q 313 608 328 588 q 253 628 297 628 q 194 608 210 628 q 178 540 178 588 l 178 404 m 82 758 l 210 897 l 288 897 l 417 758 l 338 758 l 250 839 l 164 758 l 82 758 m 458 835 l 333 969 l 461 969 l 542 835 l 458 835 z "},"ể":{"ha":497,"x_min":47,"x_max":574,"o":"m 257 -11 q 140 5 186 -11 q 70 67 93 21 q 47 204 47 113 l 47 526 q 97 662 47 625 q 253 699 147 699 q 408 662 358 699 q 458 526 458 625 l 458 343 l 178 343 l 178 153 q 194 81 178 101 q 256 60 210 60 q 313 80 297 60 q 328 153 328 100 l 328 254 l 458 254 l 458 206 q 435 68 458 115 q 368 5 413 21 q 257 -11 324 -11 m 178 404 l 328 404 l 328 540 q 313 608 328 588 q 253 628 297 628 q 194 608 210 628 q 178 540 178 588 l 178 404 m 82 758 l 210 897 l 288 897 l 417 758 l 338 758 l 250 839 l 164 758 l 82 758 m 436 836 l 436 856 q 451 885 436 875 q 482 906 467 896 q 497 932 497 915 l 497 939 q 490 963 497 951 q 465 974 483 974 q 438 942 442 974 l 376 951 q 404 1004 381 986 q 472 1022 428 1022 q 548 1006 522 1022 q 574 942 574 990 l 574 936 q 557 894 574 906 q 524 875 540 882 q 507 851 507 868 l 507 836 l 436 836 z "},"ễ":{"ha":497,"x_min":47,"x_max":458,"o":"m 257 -11 q 140 5 186 -11 q 70 67 93 21 q 47 204 47 113 l 47 526 q 97 662 47 625 q 253 699 147 699 q 408 662 358 699 q 458 526 458 625 l 458 343 l 178 343 l 178 153 q 194 81 178 101 q 256 60 210 60 q 313 80 297 60 q 328 153 328 100 l 328 254 l 458 254 l 458 206 q 435 68 458 115 q 368 5 413 21 q 257 -11 324 -11 m 178 404 l 328 404 l 328 540 q 313 608 328 588 q 253 628 297 628 q 194 608 210 628 q 178 540 178 588 l 178 404 m 82 758 l 210 897 l 288 897 l 417 758 l 338 758 l 250 839 l 164 758 l 82 758 m 311 929 q 274 936 290 929 q 239 956 258 943 q 211 972 226 964 q 179 979 196 979 q 151 967 163 979 q 138 931 140 954 l 96 931 q 120 1010 97 979 q 181 1042 143 1042 q 219 1034 201 1042 q 254 1015 238 1026 q 283 1000 269 1007 q 311 993 297 993 q 342 1006 332 993 q 356 1039 351 1018 l 401 1039 q 387 979 400 1004 q 353 942 374 954 q 311 929 333 929 z "},"ë":{"ha":497,"x_min":47,"x_max":458,"o":"m 257 -11 q 140 5 186 -11 q 70 67 93 21 q 47 204 47 113 l 47 526 q 97 662 47 625 q 253 699 147 699 q 408 662 358 699 q 458 526 458 625 l 458 343 l 178 343 l 178 153 q 194 81 178 101 q 256 60 210 60 q 313 80 297 60 q 328 153 328 100 l 328 254 l 458 254 l 458 206 q 435 68 458 115 q 368 5 413 21 q 257 -11 324 -11 m 178 404 l 328 404 l 328 540 q 313 608 328 588 q 253 628 297 628 q 194 608 210 628 q 178 540 178 588 l 178 404 m 172 765 q 131 782 147 765 q 114 822 114 799 q 131 862 114 846 q 172 878 147 878 q 213 862 197 878 q 229 822 229 846 q 213 782 229 799 q 172 765 197 765 m 326 765 q 285 782 301 765 q 268 822 268 799 q 285 862 268 846 q 326 878 301 878 q 368 862 351 878 q 385 822 385 846 q 368 782 385 799 q 326 765 351 765 z "},"ė":{"ha":497,"x_min":47,"x_max":458,"o":"m 257 -11 q 140 5 186 -11 q 70 67 93 21 q 47 204 47 113 l 47 526 q 97 662 47 625 q 253 699 147 699 q 408 662 358 699 q 458 526 458 625 l 458 343 l 178 343 l 178 153 q 194 81 178 101 q 256 60 210 60 q 313 80 297 60 q 328 153 328 100 l 328 254 l 458 254 l 458 206 q 435 68 458 115 q 368 5 413 21 q 257 -11 324 -11 m 178 404 l 328 404 l 328 540 q 313 608 328 588 q 253 628 297 628 q 194 608 210 628 q 178 540 178 588 l 178 404 m 250 765 q 201 785 221 765 q 179 835 181 806 q 200 883 179 863 q 250 903 221 903 q 300 883 279 903 q 321 833 321 863 q 301 785 322 806 q 250 765 279 765 z "},"ẹ":{"ha":497,"x_min":47,"x_max":458,"o":"m 257 -11 q 140 5 186 -11 q 70 67 93 21 q 47 204 47 113 l 47 526 q 97 662 47 625 q 253 699 147 699 q 408 662 358 699 q 458 526 458 625 l 458 343 l 178 343 l 178 153 q 194 81 178 101 q 256 60 210 60 q 313 80 297 60 q 328 153 328 100 l 328 254 l 458 254 l 458 206 q 435 68 458 115 q 368 5 413 21 q 257 -11 324 -11 m 178 404 l 328 404 l 328 540 q 313 608 328 588 q 253 628 297 628 q 194 608 210 628 q 178 540 178 588 l 178 404 m 249 -168 q 207 -151 224 -168 q 190 -112 190 -135 q 207 -72 190 -89 q 249 -56 224 -56 q 291 -72 274 -56 q 308 -112 308 -89 q 291 -151 308 -135 q 249 -168 274 -168 z "},"ф":{"ha":817,"x_min":47,"x_max":769,"o":"m 344 -160 l 344 26 q 296 0 325 10 q 224 -10 267 -10 q 83 42 119 -10 q 47 189 47 94 l 47 461 q 62 561 47 519 q 115 625 76 603 q 226 647 153 647 q 301 636 271 647 q 344 607 332 625 l 344 821 l 474 821 l 474 608 q 517 637 485 626 q 589 647 549 647 q 701 625 661 647 q 755 561 740 603 q 769 461 769 519 l 769 189 q 733 42 769 94 q 593 -10 696 -10 q 522 0 551 -10 q 474 26 493 10 l 474 -160 l 344 -160 m 256 61 q 308 75 289 61 q 336 111 328 89 q 344 156 344 133 l 344 463 q 338 520 344 494 q 313 561 332 546 q 257 576 294 576 q 203 563 219 576 q 182 522 186 549 q 178 458 178 496 l 178 165 q 184 111 178 135 q 207 74 190 88 q 256 61 224 61 m 565 61 q 613 74 597 61 q 635 111 629 88 q 642 165 642 135 l 642 458 q 638 521 642 494 q 617 563 633 547 q 564 578 600 578 q 508 563 528 578 q 481 525 489 549 q 474 469 474 501 l 474 164 q 482 115 474 139 q 510 76 490 90 q 565 61 529 61 z "},"è":{"ha":497,"x_min":47,"x_max":458,"o":"m 257 -11 q 140 5 186 -11 q 70 67 93 21 q 47 204 47 113 l 47 526 q 97 662 47 625 q 253 699 147 699 q 408 662 358 699 q 458 526 458 625 l 458 343 l 178 343 l 178 153 q 194 81 178 101 q 256 60 210 60 q 313 80 297 60 q 328 153 328 100 l 328 254 l 458 254 l 458 206 q 435 68 458 115 q 368 5 413 21 q 257 -11 324 -11 m 178 404 l 328 404 l 328 540 q 313 608 328 588 q 253 628 297 628 q 194 608 210 628 q 178 540 178 588 l 178 404 m 235 760 l 110 894 l 238 894 l 318 760 l 235 760 z "},"ẻ":{"ha":497,"x_min":47,"x_max":458,"o":"m 257 -11 q 140 5 186 -11 q 70 67 93 21 q 47 204 47 113 l 47 526 q 97 662 47 625 q 253 699 147 699 q 408 662 358 699 q 458 526 458 625 l 458 343 l 178 343 l 178 153 q 194 81 178 101 q 256 60 210 60 q 313 80 297 60 q 328 153 328 100 l 328 254 l 458 254 l 458 206 q 435 68 458 115 q 368 5 413 21 q 257 -11 324 -11 m 178 404 l 328 404 l 328 540 q 313 608 328 588 q 253 628 297 628 q 194 608 210 628 q 178 540 178 588 l 178 404 m 213 761 l 213 781 q 228 810 213 800 q 258 831 243 821 q 274 857 274 840 l 274 864 q 267 888 274 876 q 242 899 260 899 q 214 867 218 899 l 153 876 q 181 929 157 911 q 249 947 204 947 q 324 931 299 947 q 350 867 350 915 l 350 861 q 333 819 350 831 q 300 800 317 807 q 283 776 283 793 l 283 761 l 213 761 z "},"л":{"ha":581,"x_min":21,"x_max":531,"o":"m 21 0 l 21 69 q 68 99 47 69 q 92 175 89 128 l 136 688 l 531 688 l 531 0 l 397 0 l 397 593 l 268 593 l 225 139 q 219 95 222 119 q 203 49 215 71 q 168 14 192 28 q 101 0 144 0 l 21 0 z "},"…":{"ha":756,"x_min":69,"x_max":686,"o":"m 140 -11 q 90 9 111 -11 q 69 57 69 29 q 90 106 69 86 q 140 125 111 125 q 191 106 169 125 q 213 57 213 86 q 191 9 213 29 q 140 -11 169 -11 m 381 -11 q 331 9 351 -11 q 310 57 310 29 q 331 106 310 86 q 381 125 351 125 q 431 106 410 125 q 453 57 453 86 q 431 9 453 29 q 381 -11 410 -11 m 613 -11 q 563 9 583 -11 q 542 57 542 29 q 563 106 542 86 q 613 125 583 125 q 663 106 642 125 q 685 57 685 86 q 663 9 685 29 q 613 -11 642 -11 z "},"м":{"ha":682,"x_min":50,"x_max":632,"o":"m 50 0 l 50 688 l 210 688 l 342 167 l 475 688 l 632 688 l 632 0 l 525 0 l 525 503 l 388 0 l 296 0 l 158 503 l 158 0 l 50 0 z "},"ē":{"ha":497,"x_min":47,"x_max":458,"o":"m 257 -11 q 140 5 186 -11 q 70 67 93 21 q 47 204 47 113 l 47 526 q 97 662 47 625 q 253 699 147 699 q 408 662 358 699 q 458 526 458 625 l 458 343 l 178 343 l 178 153 q 194 81 178 101 q 256 60 210 60 q 313 80 297 60 q 328 153 328 100 l 328 254 l 458 254 l 458 206 q 435 68 458 115 q 368 5 413 21 q 257 -11 324 -11 m 178 404 l 328 404 l 328 540 q 313 608 328 588 q 253 628 297 628 q 194 608 210 628 q 178 540 178 588 l 178 404 m 111 782 l 111 849 l 386 849 l 386 782 l 111 782 z "},"—":{"ha":878,"x_min":35,"x_max":843,"o":"m 35 335 l 35 424 l 843 424 l 843 335 l 35 335 z "},"∅":{"ha":571,"x_min":36,"x_max":535,"o":"m 36 81 l 503 785 l 535 785 l 67 81 l 36 81 m 311 -18 q 195 10 246 -17 q 116 96 144 38 q 88 250 88 154 l 88 592 q 151 772 88 714 q 314 831 214 831 q 472 772 410 831 q 533 592 533 714 l 533 251 q 505 94 533 154 q 426 8 476 35 q 311 -18 375 -18 m 311 63 q 376 94 350 63 q 401 185 401 125 l 401 626 q 375 719 401 688 q 311 750 349 750 q 246 719 272 750 q 219 626 219 688 l 219 185 q 246 94 219 125 q 311 63 272 63 z "},"н":{"ha":521,"x_min":50,"x_max":471,"o":"m 50 0 l 50 688 l 181 688 l 181 408 l 342 408 l 342 688 l 471 688 l 471 0 l 342 0 l 342 308 l 181 308 l 181 0 l 50 0 z "},"–":{"ha":560,"x_min":35,"x_max":525,"o":"m 35 335 l 35 424 l 525 424 l 525 335 l 35 335 z "},"ŋ":{"ha":515,"x_min":50,"x_max":464,"o":"m 258 -157 q 230 -156 244 -157 q 203 -151 215 -154 l 203 -83 q 213 -84 204 -83 q 231 -85 221 -85 q 243 -85 240 -85 q 310 -68 288 -85 q 333 -10 333 -51 l 333 506 q 330 555 333 532 q 310 592 326 578 q 258 606 294 606 q 217 597 233 606 q 193 577 201 589 q 181 553 185 565 l 181 0 l 50 0 l 50 688 l 161 688 l 172 608 q 225 674 188 651 q 306 697 263 697 q 409 674 375 697 q 453 609 443 650 q 464 515 464 568 l 464 33 q 435 -85 464 -43 q 361 -143 407 -128 q 258 -157 315 -158 z "},"ę":{"ha":497,"x_min":47,"x_max":458,"o":"m 257 -11 q 140 5 186 -11 q 70 67 93 21 q 47 204 47 113 l 47 526 q 97 662 47 625 q 253 699 147 699 q 408 662 358 699 q 458 526 458 625 l 458 343 l 178 343 l 178 153 q 194 81 178 101 q 256 60 210 60 q 313 80 297 60 q 328 153 328 100 l 328 254 l 458 254 l 458 206 q 435 68 458 115 q 368 5 413 21 q 257 -11 324 -11 m 178 404 l 328 404 l 328 540 q 313 608 328 588 q 253 628 297 628 q 194 608 210 628 q 178 540 178 588 l 178 404 m 274 -196 q 197 -170 226 -196 q 167 -110 167 -144 q 197 -39 167 -71 q 269 1 226 -7 l 326 0 q 271 -40 289 -14 q 253 -92 253 -67 q 270 -132 253 -118 q 306 -146 288 -146 q 325 -143 317 -146 q 338 -139 333 -140 l 354 -175 q 327 -188 346 -181 q 274 -196 308 -196 z "},"=":{"ha":600,"x_min":69,"x_max":531,"o":"m 69 488 l 69 578 l 531 578 l 531 488 l 69 488 m 69 200 l 69 292 l 531 292 l 531 200 l 69 200 z "},"р":{"ha":519,"x_min":60,"x_max":472,"o":"m 60 -161 l 60 688 l 186 688 l 189 631 q 228 678 201 657 q 314 699 254 699 q 403 680 368 699 q 456 624 439 661 q 472 531 472 588 l 472 194 q 457 80 472 125 q 407 13 442 35 q 314 -8 372 -8 q 233 8 263 -8 q 190 49 204 25 l 190 -161 l 60 -161 m 267 67 q 310 74 294 67 q 332 96 325 82 q 340 128 339 110 q 342 167 342 146 l 342 515 q 340 554 342 536 q 332 587 339 572 q 310 609 325 601 q 267 617 294 617 q 224 607 239 617 q 201 583 208 597 q 192 550 194 568 q 190 517 190 532 l 190 161 q 196 112 190 133 q 217 78 201 90 q 267 67 233 67 z "},"э":{"ha":522,"x_min":50,"x_max":472,"o":"m 263 -14 q 138 7 183 -14 q 71 76 92 28 q 50 207 50 124 l 50 242 l 181 242 l 181 160 q 186 107 181 131 q 209 70 192 83 q 263 57 226 57 q 317 71 300 57 q 338 108 333 85 q 342 158 342 132 l 342 314 l 138 314 l 138 399 l 342 399 l 342 526 q 338 577 342 554 q 317 614 333 600 q 263 628 300 628 q 209 615 226 628 q 186 579 192 603 q 181 525 181 556 l 181 469 l 50 469 l 50 514 q 70 615 50 575 q 136 677 90 656 q 263 699 182 699 q 363 686 322 699 q 427 650 403 674 q 462 592 451 626 q 472 515 472 558 l 472 206 q 461 103 472 146 q 426 36 450 61 q 361 -1 401 11 q 263 -14 321 -14 z "},"с":{"ha":497,"x_min":47,"x_max":458,"o":"m 257 -11 q 140 4 186 -11 q 70 65 93 19 q 47 201 47 111 l 47 518 q 97 661 47 622 q 253 700 147 700 q 408 663 358 700 q 458 526 458 625 l 458 431 l 328 431 l 328 532 q 313 601 328 581 q 253 622 297 622 q 194 601 210 622 q 178 532 178 581 l 178 161 q 194 89 178 110 q 256 68 210 68 q 313 88 297 68 q 328 161 328 108 l 328 269 l 458 269 l 458 201 q 435 66 458 113 q 367 4 413 19 q 257 -11 322 -11 z "},"ð":{"ha":510,"x_min":47,"x_max":458,"o":"m 249 -11 q 172 -5 208 -11 q 107 21 135 1 q 63 82 79 40 q 47 196 47 124 l 47 500 q 72 613 47 575 q 138 663 96 650 q 235 676 181 676 q 286 670 261 676 q 325 647 311 664 q 315 746 324 704 q 282 810 307 788 q 207 833 257 833 q 142 828 172 833 q 83 818 113 824 l 83 901 q 142 913 107 907 q 228 919 178 919 q 351 899 306 919 q 420 831 397 878 q 451 710 443 783 q 458 531 458 636 l 458 226 q 447 121 458 165 q 410 47 435 76 q 346 3 386 18 q 249 -11 306 -11 m 249 60 q 299 76 282 60 q 322 119 315 93 q 328 174 328 146 l 328 540 q 321 568 328 553 q 297 594 314 583 q 249 606 279 606 q 202 594 218 606 q 182 563 186 583 q 178 513 178 542 l 178 143 q 185 99 178 115 q 203 74 192 82 q 228 63 215 65 q 249 60 240 60 m 192 715 l 160 756 l 407 960 l 440 921 l 192 715 z "},"ẽ":{"ha":497,"x_min":47,"x_max":458,"o":"m 257 -11 q 140 5 186 -11 q 70 67 93 21 q 47 204 47 113 l 47 526 q 97 662 47 625 q 253 699 147 699 q 408 662 358 699 q 458 526 458 625 l 458 343 l 178 343 l 178 153 q 194 81 178 101 q 256 60 210 60 q 313 80 297 60 q 328 153 328 100 l 328 254 l 458 254 l 458 206 q 435 68 458 115 q 368 5 413 21 q 257 -11 324 -11 m 178 404 l 328 404 l 328 540 q 313 608 328 588 q 253 628 297 628 q 194 608 210 628 q 178 540 178 588 l 178 404 m 313 767 q 276 774 292 767 q 240 793 260 781 q 213 809 228 801 q 181 817 197 817 q 153 804 164 817 q 139 768 142 792 l 97 768 q 122 848 99 817 q 182 879 144 879 q 221 872 203 879 q 256 853 239 864 q 285 838 271 844 q 313 831 299 831 q 343 843 333 831 q 357 876 353 856 l 403 876 q 388 817 401 842 q 355 779 375 792 q 313 767 335 767 z "},"€":{"ha":644,"x_min":47,"x_max":590,"o":"m 369 -17 q 257 -1 307 -17 q 179 62 207 14 q 151 206 151 110 l 151 322 l 47 322 l 71 374 l 151 374 l 151 442 l 47 442 l 69 493 l 151 493 l 151 647 q 179 762 151 722 q 257 816 207 801 q 371 831 307 831 q 485 815 436 831 q 563 760 535 800 q 590 647 590 721 l 590 603 l 458 603 l 458 653 q 447 716 458 696 q 416 743 435 736 q 369 750 397 750 q 325 743 344 750 q 294 716 306 736 q 283 653 283 696 l 283 493 l 486 493 l 463 442 l 283 442 l 283 374 l 432 374 l 410 322 l 283 322 l 283 160 q 294 97 283 118 q 325 69 306 76 q 369 63 344 63 q 417 69 397 63 q 447 97 436 76 q 458 160 458 118 l 458 246 l 590 246 l 590 207 q 563 61 590 108 q 485 -1 535 14 q 369 -17 436 -17 z "},"!":{"ha":282,"x_min":67,"x_max":221,"o":"m 97 265 l 75 511 l 68 875 l 210 875 l 204 514 l 179 265 l 97 265 m 143 -10 q 89 11 111 -10 q 67 63 67 32 q 89 111 67 90 q 143 132 111 132 q 198 111 175 132 q 221 63 221 90 q 198 11 221 32 q 143 -10 175 -10 z "},"¡":{"ha":282,"x_min":67,"x_max":221,"o":"m 97 415 l 179 415 l 204 167 l 210 -194 l 68 -194 l 75 169 l 97 415 m 143 689 q 198 669 175 689 q 221 618 221 649 q 198 569 221 590 q 143 549 175 549 q 89 569 111 549 q 67 618 67 590 q 89 669 67 649 q 143 689 111 689 z "},"f":{"ha":354,"x_min":33,"x_max":347,"o":"m 76 0 l 76 585 l 33 585 l 33 661 l 76 661 l 76 733 q 88 807 76 778 q 119 851 100 836 q 165 873 139 867 q 218 879 190 879 q 269 878 243 879 q 317 874 296 876 q 347 872 339 872 l 347 807 q 320 810 347 807 q 261 813 293 813 q 218 786 229 813 q 207 732 207 760 l 207 661 l 347 661 l 347 585 l 207 585 l 207 0 l 76 0 z "},"ﬁ":{"ha":604,"x_min":33,"x_max":551,"o":"m 76 0 l 76 585 l 33 585 l 33 661 l 76 661 l 76 733 q 88 807 76 778 q 119 851 100 836 q 165 873 139 867 q 218 879 190 879 q 269 878 243 879 q 317 874 296 876 q 347 872 339 872 l 347 807 q 320 810 347 807 q 261 813 293 813 q 218 786 229 813 q 207 732 207 760 l 207 661 l 347 661 l 347 585 l 207 585 l 207 0 l 76 0 m 414 0 l 414 688 l 544 688 l 544 0 l 414 0 m 479 765 q 430 785 450 765 q 408 835 410 806 q 429 883 408 863 q 479 903 450 903 q 529 883 508 903 q 550 833 550 863 q 530 785 551 806 q 479 765 508 765 z "},"ﬂ":{"ha":604,"x_min":33,"x_max":544,"o":"m 76 0 l 76 585 l 33 585 l 33 661 l 76 661 l 76 733 q 88 807 76 778 q 119 851 100 836 q 165 873 139 867 q 218 879 190 879 q 269 878 243 879 q 317 874 296 876 q 347 872 339 872 l 347 807 q 320 810 347 807 q 261 813 293 813 q 218 786 229 813 q 207 732 207 760 l 207 661 l 347 661 l 347 585 l 207 585 l 207 0 l 76 0 m 414 0 l 414 879 l 544 879 l 544 0 l 414 0 z "},"ƒ":{"ha":475,"x_min":-124,"x_max":460,"o":"m -11 -201 q -53 -200 -29 -201 q -97 -197 -78 -199 q -124 -194 -117 -196 l -115 -117 l -37 -124 q 21 -113 0 -125 q 53 -73 42 -101 q 69 6 64 -44 l 133 543 l 57 543 l 64 615 l 140 615 l 157 725 q 208 839 169 804 q 301 874 246 874 q 338 873 315 874 q 384 872 360 872 q 428 869 408 871 q 460 867 449 868 l 450 790 q 412 796 440 793 q 351 799 383 799 q 299 769 313 799 q 281 706 285 740 l 268 615 l 413 615 l 406 543 l 261 543 l 193 -32 q 132 -159 182 -117 q -11 -201 82 -201 z "},"⁴":{"ha":350,"x_min":10,"x_max":326,"o":"m 189 328 l 189 425 l 10 425 l 10 494 l 189 821 l 274 821 l 274 483 l 326 483 l 326 425 l 274 425 l 274 328 l 189 328 m 81 483 l 189 483 l 189 676 l 81 483 z "},"⁄":{"ha":524,"x_min":-133,"x_max":513,"o":"m -133 0 l 428 817 l 513 817 l -50 0 l -133 0 z "},"₣":{"ha":518,"x_min":39,"x_max":474,"o":"m 104 0 l 104 175 l 39 175 l 39 236 l 104 236 l 104 821 l 474 821 l 474 726 l 242 726 l 242 478 l 433 478 l 433 374 l 242 374 l 242 236 l 356 236 l 356 175 l 242 175 l 242 0 l 104 0 z "},"g":{"ha":511,"x_min":47,"x_max":458,"o":"m 249 -165 q 205 -163 231 -165 q 156 -159 179 -161 q 115 -155 132 -157 q 93 -151 97 -153 l 93 -81 q 145 -87 111 -83 q 204 -90 179 -90 q 242 -87 221 -90 q 282 -74 263 -85 q 315 -39 301 -62 q 328 26 328 -15 l 328 124 q 306 83 321 103 q 265 49 292 63 q 196 36 239 36 q 142 41 169 36 q 94 65 115 46 q 60 124 72 83 q 47 233 47 164 l 47 536 q 60 621 47 589 q 96 669 74 653 q 144 690 118 685 q 197 696 171 696 q 277 685 240 696 q 328 633 314 674 l 343 686 l 458 686 l 458 85 q 448 -11 458 35 q 414 -91 438 -57 q 350 -145 390 -125 q 249 -165 310 -165 m 249 115 q 299 131 282 115 q 322 174 315 147 q 328 231 328 201 l 328 572 q 315 592 324 582 q 290 609 306 601 q 249 617 275 617 q 194 597 211 617 q 178 526 178 578 l 178 200 q 185 154 178 171 q 203 129 192 138 q 228 118 215 121 q 249 115 240 115 z "},"ğ":{"ha":511,"x_min":47,"x_max":458,"o":"m 249 -165 q 205 -163 231 -165 q 156 -159 179 -161 q 115 -155 132 -157 q 93 -151 97 -153 l 93 -81 q 145 -87 111 -83 q 204 -90 179 -90 q 242 -87 221 -90 q 282 -74 263 -85 q 315 -39 301 -62 q 328 26 328 -15 l 328 124 q 306 83 321 103 q 265 49 292 63 q 196 36 239 36 q 142 41 169 36 q 94 65 115 46 q 60 124 72 83 q 47 233 47 164 l 47 536 q 60 621 47 589 q 96 669 74 653 q 144 690 118 685 q 197 696 171 696 q 277 685 240 696 q 328 633 314 674 l 343 686 l 458 686 l 458 85 q 448 -11 458 35 q 414 -91 438 -57 q 350 -145 390 -125 q 249 -165 310 -165 m 249 115 q 299 131 282 115 q 322 174 315 147 q 328 231 328 201 l 328 572 q 315 592 324 582 q 290 609 306 601 q 249 617 275 617 q 194 597 211 617 q 178 526 178 578 l 178 200 q 185 154 178 171 q 203 129 192 138 q 228 118 215 121 q 249 115 240 115 m 257 758 q 165 781 197 758 q 122 834 133 803 q 108 890 110 865 l 182 890 q 206 839 185 856 q 257 822 228 822 q 310 838 289 822 q 335 890 332 854 l 408 890 q 392 828 407 858 q 344 778 376 797 q 257 758 311 758 z "},"ģ":{"ha":511,"x_min":47,"x_max":458,"o":"m 319 950 q 290 898 301 922 q 278 858 278 874 q 287 842 278 849 q 303 826 296 835 q 311 800 311 817 q 295 768 311 782 q 254 754 279 754 q 209 770 226 754 q 192 808 192 786 q 203 853 192 828 q 232 904 215 878 q 265 950 249 931 l 319 950 m 249 -165 q 205 -163 231 -165 q 156 -159 179 -161 q 115 -155 132 -157 q 93 -151 97 -153 l 93 -81 q 145 -87 111 -83 q 204 -90 179 -90 q 242 -87 221 -90 q 282 -74 263 -85 q 315 -39 301 -62 q 328 26 328 -15 l 328 124 q 306 83 321 103 q 265 49 292 63 q 196 36 239 36 q 142 41 169 36 q 94 65 115 46 q 60 124 72 83 q 47 233 47 164 l 47 536 q 60 621 47 589 q 96 669 74 653 q 144 690 118 685 q 197 696 171 696 q 277 685 240 696 q 328 633 314 674 l 343 686 l 458 686 l 458 85 q 448 -11 458 35 q 414 -91 438 -57 q 350 -145 390 -125 q 249 -165 310 -165 m 249 115 q 299 131 282 115 q 322 174 315 147 q 328 231 328 201 l 328 572 q 315 592 324 582 q 290 609 306 601 q 249 617 275 617 q 194 597 211 617 q 178 526 178 578 l 178 200 q 185 154 178 171 q 203 129 192 138 q 228 118 215 121 q 249 115 240 115 z "},"ġ":{"ha":511,"x_min":47,"x_max":458,"o":"m 249 -165 q 205 -163 231 -165 q 156 -159 179 -161 q 115 -155 132 -157 q 93 -151 97 -153 l 93 -81 q 145 -87 111 -83 q 204 -90 179 -90 q 242 -87 221 -90 q 282 -74 263 -85 q 315 -39 301 -62 q 328 26 328 -15 l 328 124 q 306 83 321 103 q 265 49 292 63 q 196 36 239 36 q 142 41 169 36 q 94 65 115 46 q 60 124 72 83 q 47 233 47 164 l 47 536 q 60 621 47 589 q 96 669 74 653 q 144 690 118 685 q 197 696 171 696 q 277 685 240 696 q 328 633 314 674 l 343 686 l 458 686 l 458 85 q 448 -11 458 35 q 414 -91 438 -57 q 350 -145 390 -125 q 249 -165 310 -165 m 249 115 q 299 131 282 115 q 322 174 315 147 q 328 231 328 201 l 328 572 q 315 592 324 582 q 290 609 306 601 q 249 617 275 617 q 194 597 211 617 q 178 526 178 578 l 178 200 q 185 154 178 171 q 203 129 192 138 q 228 118 215 121 q 249 115 240 115 m 258 765 q 209 785 229 765 q 188 835 189 806 q 208 883 188 863 q 258 903 229 903 q 308 883 288 903 q 329 833 329 863 q 309 785 331 806 q 258 765 288 765 z "},"г":{"ha":407,"x_min":50,"x_max":386,"o":"m 50 0 l 50 688 l 386 688 l 386 593 l 189 593 l 189 0 l 50 0 z "},"ß":{"ha":594,"x_min":-57,"x_max":560,"o":"m 21 -204 q -20 -202 6 -204 q -57 -199 -46 -200 l -57 -122 q -47 -124 -51 -124 q -37 -125 -43 -124 q -20 -127 -31 -126 q 4 -128 -10 -128 q 72 -99 56 -128 q 89 -29 89 -69 l 89 596 l 36 596 l 36 688 l 89 688 l 89 725 q 105 811 89 778 q 169 860 121 844 q 313 876 218 876 q 480 847 422 876 q 538 740 538 817 l 538 608 q 508 514 538 550 q 442 475 479 478 l 442 469 q 497 451 469 467 q 542 408 524 436 q 560 339 560 381 l 560 168 q 533 60 560 96 q 458 12 506 24 q 344 0 410 0 l 261 0 l 261 69 l 328 69 q 379 81 360 69 q 408 124 399 92 q 417 219 417 156 l 417 332 q 406 389 417 367 q 372 421 394 411 q 314 431 350 431 l 272 431 l 272 503 l 336 503 q 396 532 382 503 q 410 611 410 561 l 410 703 q 390 785 410 760 q 314 811 371 811 q 252 797 272 811 q 226 760 232 783 q 219 711 219 738 l 219 -8 q 203 -106 219 -67 q 158 -165 186 -144 q 94 -195 129 -186 q 21 -204 58 -204 z "},"ѓ":{"ha":407,"x_min":50,"x_max":386,"o":"m 50 0 l 50 688 l 386 688 l 386 593 l 189 593 l 189 0 l 50 0 m 140 760 l 219 894 l 349 894 l 222 760 l 140 760 z "},"`":{"ha":246,"x_min":0,"x_max":208,"o":"m 125 760 l 0 894 l 128 894 l 208 760 l 125 760 z "},"̀":{"ha":0,"x_min":0,"x_max":208,"o":"m 125 760 l 0 894 l 128 894 l 208 760 l 125 760 z "},">":{"ha":457,"x_min":61,"x_max":396,"o":"m 61 189 l 61 311 l 285 457 l 61 604 l 61 722 l 396 494 l 396 417 l 61 189 z "},"≥":{"ha":457,"x_min":60,"x_max":396,"o":"m 60 -4 l 60 85 l 388 85 l 388 -4 l 60 -4 m 61 189 l 61 311 l 285 457 l 61 604 l 61 722 l 396 494 l 396 417 l 61 189 z "},"«":{"ha":701,"x_min":54,"x_max":646,"o":"m 521 147 l 342 403 l 526 669 l 646 669 l 463 403 l 640 147 l 521 147 m 232 147 l 54 403 l 240 669 l 360 669 l 176 403 l 353 147 l 232 147 z "},"»":{"ha":701,"x_min":54,"x_max":646,"o":"m 349 147 l 525 403 l 342 669 l 461 669 l 646 403 l 468 147 l 349 147 m 61 147 l 239 403 l 54 669 l 175 669 l 360 403 l 181 147 l 61 147 z "},"‹":{"ha":413,"x_min":54,"x_max":358,"o":"m 232 147 l 54 403 l 239 669 l 358 669 l 176 403 l 353 147 l 232 147 z "},"›":{"ha":413,"x_min":54,"x_max":358,"o":"m 61 147 l 238 403 l 54 669 l 175 669 l 358 403 l 181 147 l 61 147 z "},"h":{"ha":524,"x_min":60,"x_max":474,"o":"m 60 0 l 60 875 l 182 875 l 182 618 q 230 677 194 657 q 315 697 265 697 q 417 674 383 697 q 463 609 451 650 q 474 515 474 568 l 474 0 l 343 0 l 343 494 q 342 528 343 511 q 333 560 340 546 q 310 585 325 575 q 265 594 294 594 q 224 586 240 594 q 199 567 207 578 q 190 546 192 556 l 190 0 l 60 0 z "},"х":{"ha":464,"x_min":4,"x_max":453,"o":"m 4 0 l 149 360 l 29 688 l 153 688 l 235 460 l 328 688 l 449 688 l 318 360 l 453 0 l 328 0 l 235 249 l 133 0 l 4 0 z "},"ъ":{"ha":574,"x_min":21,"x_max":524,"o":"m 103 0 l 103 608 l 21 608 l 21 688 l 233 688 l 233 472 l 361 472 q 447 456 411 472 q 503 404 483 440 q 524 304 524 368 l 524 211 q 512 105 524 146 q 478 41 500 64 q 422 9 456 18 q 343 0 389 0 l 103 0 m 233 69 l 315 69 q 365 83 349 69 q 388 119 382 96 q 393 174 393 143 l 393 283 q 389 338 393 314 q 368 376 385 363 q 314 390 351 390 l 233 390 l 233 69 z "},"ħ":{"ha":517,"x_min":3,"x_max":474,"o":"m 3 747 l 3 814 l 278 814 l 278 747 l 3 747 m 60 0 l 60 875 l 182 875 l 182 618 q 230 677 194 657 q 315 697 265 697 q 417 674 383 697 q 463 609 451 650 q 474 515 474 568 l 474 0 l 343 0 l 343 494 q 342 528 343 511 q 333 560 340 546 q 310 585 325 575 q 265 594 294 594 q 224 586 240 594 q 199 567 207 578 q 190 546 192 556 l 190 0 l 60 0 z "},"̉":{"ha":0,"x_min":18,"x_max":215,"o":"m 78 761 l 78 781 q 93 810 78 800 q 124 831 108 821 q 139 857 139 840 l 139 864 q 132 888 139 876 q 107 899 125 899 q 79 867 83 899 l 18 876 q 46 929 22 911 q 114 947 69 947 q 190 931 164 947 q 215 867 215 915 l 215 861 q 199 819 215 831 q 165 800 182 807 q 149 776 149 793 l 149 761 l 78 761 z "},"̛":{"ha":0,"x_min":14,"x_max":186,"o":"m 17 622 l 14 682 l 35 682 q 100 746 100 682 l 100 769 l 186 769 l 186 749 q 143 652 186 682 q 17 622 100 622 z "},"˝":{"ha":268,"x_min":0,"x_max":268,"o":"m 0 760 l 29 894 l 135 894 l 53 760 l 0 760 m 118 760 l 163 894 l 268 894 l 179 760 l 118 760 z "},"̋":{"ha":0,"x_min":0,"x_max":268,"o":"m 0 760 l 29 894 l 135 894 l 53 760 l 0 760 m 118 760 l 163 894 l 268 894 l 179 760 l 118 760 z "},"-":{"ha":394,"x_min":54,"x_max":340,"o":"m 54 335 l 54 424 l 340 424 l 340 335 l 54 335 z "},"i":{"ha":250,"x_min":54,"x_max":197,"o":"m 60 0 l 60 688 l 190 688 l 190 0 l 60 0 m 125 765 q 76 785 96 765 q 54 835 56 806 q 75 883 54 863 q 125 903 96 903 q 175 883 154 903 q 196 833 196 863 q 176 785 197 806 q 125 765 154 765 z "},"і":{"ha":250,"x_min":54,"x_max":197,"o":"m 60 0 l 60 688 l 190 688 l 190 0 l 60 0 m 125 765 q 76 785 96 765 q 54 835 56 806 q 75 883 54 863 q 125 903 96 903 q 175 883 154 903 q 196 833 196 863 q 176 785 197 806 q 125 765 154 765 z "},"я":{"ha":554,"x_min":36,"x_max":503,"o":"m 36 0 l 118 231 q 156 297 135 276 q 206 321 178 318 q 108 362 140 326 q 75 475 75 397 l 75 524 q 118 648 75 608 q 239 688 161 688 l 503 688 l 503 0 l 365 0 l 365 307 l 303 288 q 263 226 281 264 q 231 140 246 188 l 185 0 l 36 0 m 294 361 l 365 361 l 365 614 l 272 614 q 225 585 243 614 q 207 515 207 557 l 207 482 q 231 387 208 413 q 294 361 254 361 z "},"í":{"ha":250,"x_min":60,"x_max":269,"o":"m 60 0 l 60 688 l 190 688 l 190 0 l 60 0 m 63 760 l 142 894 l 271 894 l 144 760 l 63 760 z "},"ǐ":{"ha":250,"x_min":-42,"x_max":293,"o":"m 60 0 l 60 688 l 190 688 l 190 0 l 60 0 m 86 758 l -43 897 l 39 897 l 125 817 l 213 897 l 292 897 l 163 758 l 86 758 z "},"î":{"ha":250,"x_min":-42,"x_max":293,"o":"m 60 0 l 60 688 l 190 688 l 190 0 l 60 0 m -42 758 l 86 897 l 164 897 l 293 758 l 214 758 l 126 839 l 40 758 l -42 758 z "},"ï":{"ha":250,"x_min":-10,"x_max":260,"o":"m 60 0 l 60 688 l 190 688 l 190 0 l 60 0 m 49 765 q 7 782 24 765 q -10 822 -10 799 q 7 862 -10 846 q 49 878 24 878 q 90 862 74 878 q 106 822 106 846 q 90 782 106 799 q 49 765 74 765 m 203 765 q 161 782 178 765 q 144 822 144 799 q 161 862 144 846 q 203 878 178 878 q 244 862 228 878 q 261 822 261 846 q 244 782 261 799 q 203 765 228 765 z "},"ị":{"ha":250,"x_min":54,"x_max":197,"o":"m 60 0 l 60 688 l 190 688 l 190 0 l 60 0 m 125 765 q 76 785 96 765 q 54 835 56 806 q 75 883 54 863 q 125 903 96 903 q 175 883 154 903 q 196 833 196 863 q 176 785 197 806 q 125 765 154 765 m 131 -168 q 89 -151 106 -168 q 72 -112 72 -135 q 89 -72 72 -89 q 131 -56 106 -56 q 173 -72 156 -56 q 190 -112 190 -89 q 173 -151 190 -135 q 131 -168 156 -168 z "},"ı":{"ha":250,"x_min":60,"x_max":190,"o":"m 60 0 l 60 688 l 190 688 l 190 0 l 60 0 z "},"е":{"ha":497,"x_min":47,"x_max":458,"o":"m 257 -11 q 140 5 186 -11 q 70 67 93 21 q 47 204 47 113 l 47 526 q 97 662 47 625 q 253 699 147 699 q 408 662 358 699 q 458 526 458 625 l 458 343 l 178 343 l 178 153 q 194 81 178 101 q 256 60 210 60 q 313 80 297 60 q 328 153 328 100 l 328 254 l 458 254 l 458 206 q 435 68 458 115 q 368 5 413 21 q 257 -11 324 -11 m 178 404 l 328 404 l 328 540 q 313 608 328 588 q 253 628 297 628 q 194 608 210 628 q 178 540 178 588 l 178 404 z "},"ѐ":{"ha":497,"x_min":47,"x_max":458,"o":"m 257 -11 q 140 5 186 -11 q 70 67 93 21 q 47 204 47 113 l 47 526 q 97 662 47 625 q 253 699 147 699 q 408 662 358 699 q 458 526 458 625 l 458 343 l 178 343 l 178 153 q 194 81 178 101 q 256 60 210 60 q 313 80 297 60 q 328 153 328 100 l 328 254 l 458 254 l 458 206 q 435 68 458 115 q 368 5 413 21 q 257 -11 324 -11 m 178 404 l 328 404 l 328 540 q 313 608 328 588 q 253 628 297 628 q 194 608 210 628 q 178 540 178 588 l 178 404 m 235 760 l 110 894 l 238 894 l 318 760 l 235 760 z "},"ì":{"ha":250,"x_min":-14,"x_max":194,"o":"m 60 0 l 60 688 l 190 688 l 190 0 l 60 0 m 111 760 l -14 894 l 114 894 l 194 760 l 111 760 z "},"ỉ":{"ha":250,"x_min":29,"x_max":225,"o":"m 60 0 l 60 688 l 190 688 l 190 0 l 60 0 m 89 761 l 89 781 q 104 810 89 800 q 135 831 119 821 q 150 857 150 840 l 150 864 q 143 888 150 876 q 118 899 136 899 q 90 867 94 899 l 29 876 q 57 929 33 911 q 125 947 81 947 q 201 931 175 947 q 226 867 226 915 l 226 861 q 210 819 226 831 q 176 800 193 807 q 160 776 160 793 l 160 761 l 89 761 z "},"и":{"ha":518,"x_min":50,"x_max":468,"o":"m 50 0 l 50 688 l 167 688 l 167 235 l 351 688 l 468 688 l 468 0 l 353 0 l 353 482 q 256 241 304 361 q 157 0 208 121 l 50 0 z "},"ѝ":{"ha":518,"x_min":50,"x_max":468,"o":"m 50 0 l 50 688 l 167 688 l 167 235 l 351 688 l 468 688 l 468 0 l 353 0 l 353 482 q 256 241 304 361 q 157 0 208 121 l 50 0 m 244 760 l 119 894 l 247 894 l 328 760 l 244 760 z "},"й":{"ha":518,"x_min":50,"x_max":468,"o":"m 50 0 l 50 688 l 167 688 l 167 235 l 351 688 l 468 688 l 468 0 l 353 0 l 353 482 q 256 241 304 361 q 157 0 208 121 l 50 0 m 257 758 q 165 781 197 758 q 122 834 133 803 q 108 890 110 865 l 182 890 q 206 839 185 856 q 257 822 228 822 q 310 838 289 822 q 335 890 332 854 l 408 890 q 392 828 407 858 q 344 778 376 797 q 257 758 311 758 z "},"ī":{"ha":250,"x_min":-12,"x_max":263,"o":"m 60 0 l 60 688 l 190 688 l 190 0 l 60 0 m -12 782 l -12 849 l 263 849 l 263 782 l -12 782 z "},"∞":{"ha":976,"x_min":53,"x_max":922,"o":"m 228 136 q 97 187 140 136 q 53 339 53 238 q 94 490 53 436 q 229 543 136 543 q 324 524 282 543 q 404 470 365 504 q 486 392 443 436 q 570 470 531 436 q 653 524 610 504 q 747 543 696 543 q 881 490 839 543 q 922 339 922 436 q 881 190 922 243 q 747 136 839 136 q 653 156 696 136 q 571 211 610 176 q 489 290 532 246 q 406 208 446 243 q 323 155 365 174 q 228 136 281 136 m 232 217 q 328 250 286 217 q 428 340 369 283 q 365 398 396 371 q 301 442 333 425 q 232 458 269 458 q 154 425 179 458 q 129 338 129 392 q 154 251 129 285 q 232 217 179 217 m 743 219 q 819 251 793 219 q 846 342 846 283 q 821 428 846 394 q 743 463 796 463 q 697 456 718 463 q 656 434 676 449 q 610 396 635 419 q 547 339 585 372 q 624 271 592 297 q 683 232 656 244 q 743 219 711 219 z "},"∫":{"ha":547,"x_min":-137,"x_max":521,"o":"m -37 -410 q -87 -406 -62 -408 q -137 -399 -112 -404 l -124 -314 l -31 -322 q 22 -296 6 -321 q 43 -243 38 -271 l 214 731 q 252 822 224 790 q 324 865 281 854 q 419 875 368 875 q 474 872 447 875 q 521 864 500 868 l 506 779 l 413 789 q 360 761 376 786 q 339 707 344 736 l 169 -267 q 130 -357 158 -325 q 58 -399 101 -389 q -37 -410 15 -410 z "},"ё":{"ha":497,"x_min":47,"x_max":458,"o":"m 257 -11 q 140 5 186 -11 q 70 67 93 21 q 47 204 47 113 l 47 526 q 97 662 47 625 q 253 699 147 699 q 408 662 358 699 q 458 526 458 625 l 458 343 l 178 343 l 178 153 q 194 81 178 101 q 256 60 210 60 q 313 80 297 60 q 328 153 328 100 l 328 254 l 458 254 l 458 206 q 435 68 458 115 q 368 5 413 21 q 257 -11 324 -11 m 178 404 l 328 404 l 328 540 q 313 608 328 588 q 253 628 297 628 q 194 608 210 628 q 178 540 178 588 l 178 404 m 172 765 q 131 782 147 765 q 114 822 114 799 q 131 862 114 846 q 172 878 147 878 q 213 862 197 878 q 229 822 229 846 q 213 782 229 799 q 172 765 197 765 m 326 765 q 285 782 301 765 q 268 822 268 799 q 285 862 268 846 q 326 878 301 878 q 368 862 351 878 q 385 822 385 846 q 368 782 385 799 q 326 765 351 765 z "},"į":{"ha":250,"x_min":32,"x_max":218,"o":"m 60 0 l 60 688 l 190 688 l 190 0 l 60 0 m 125 765 q 76 785 96 765 q 54 835 56 806 q 75 883 54 863 q 125 903 96 903 q 175 883 154 903 q 196 833 196 863 q 176 785 197 806 q 125 765 154 765 m 139 -196 q 62 -170 92 -196 q 32 -110 32 -144 q 62 -39 32 -71 q 135 1 92 -7 l 192 0 q 136 -40 154 -14 q 118 -92 118 -67 q 135 -132 118 -118 q 171 -146 153 -146 q 190 -143 182 -146 q 203 -139 199 -140 l 219 -175 q 192 -188 211 -181 q 139 -196 174 -196 z "},"ĩ":{"ha":250,"x_min":-28,"x_max":278,"o":"m 60 0 l 60 688 l 190 688 l 190 0 l 60 0 m 188 767 q 151 774 167 767 q 115 793 135 781 q 88 809 103 801 q 56 817 72 817 q 28 804 39 817 q 14 768 17 792 l -28 768 q -3 848 -26 817 q 57 879 19 879 q 96 872 78 879 q 131 853 114 864 q 160 838 146 844 q 188 831 174 831 q 218 843 208 831 q 232 876 228 856 l 278 876 q 263 817 276 842 q 230 779 250 792 q 188 767 210 767 z "},"ю":{"ha":814,"x_min":50,"x_max":764,"o":"m 558 -14 q 436 8 482 -14 q 371 77 390 29 q 351 204 351 125 l 351 518 q 370 615 351 575 q 435 677 389 656 q 558 699 481 699 q 681 677 636 699 q 745 615 726 656 q 764 518 764 575 l 764 204 q 744 77 764 125 q 679 8 725 29 q 558 -14 633 -14 m 50 0 l 50 688 l 181 688 l 181 408 l 393 408 l 393 308 l 181 308 l 181 0 l 50 0 m 558 57 q 608 70 592 57 q 628 107 624 83 q 633 157 633 131 l 633 529 q 628 579 633 557 q 608 615 624 601 q 558 628 592 628 q 508 615 524 628 q 487 579 492 601 q 482 529 482 557 l 482 157 q 487 107 482 131 q 508 70 492 83 q 558 57 524 57 z "},"j":{"ha":247,"x_min":-81,"x_max":196,"o":"m -33 -156 q -58 -153 -42 -154 q -81 -151 -75 -153 l -81 -81 q -56 -81 -71 -82 q -31 -81 -40 -81 q 36 -60 13 -79 q 60 0 60 -40 l 60 688 l 190 688 l 190 36 q 159 -90 190 -47 q 77 -145 128 -132 q -33 -156 26 -158 m 124 765 q 74 785 94 765 q 53 835 54 806 q 74 883 53 863 q 124 903 94 903 q 174 883 153 903 q 194 833 194 863 q 174 785 196 806 q 124 765 153 765 z "},"ȷ":{"ha":247,"x_min":-81,"x_max":190,"o":"m -33 -156 q -58 -153 -42 -154 q -81 -151 -75 -153 l -81 -81 q -56 -81 -71 -82 q -31 -81 -40 -81 q 36 -60 13 -79 q 60 0 60 -40 l 60 688 l 190 688 l 190 36 q 159 -90 190 -47 q 77 -145 128 -132 q -33 -156 26 -158 z "},"ј":{"ha":247,"x_min":-81,"x_max":196,"o":"m -33 -156 q -58 -153 -42 -154 q -81 -151 -75 -153 l -81 -81 q -56 -81 -71 -82 q -31 -81 -40 -81 q 36 -60 13 -79 q 60 0 60 -40 l 60 688 l 190 688 l 190 36 q 159 -90 190 -47 q 77 -145 128 -132 q -33 -156 26 -158 m 124 765 q 74 785 94 765 q 53 835 54 806 q 74 883 53 863 q 124 903 94 903 q 174 883 153 903 q 194 833 194 863 q 174 785 196 806 q 124 765 153 765 z "},"k":{"ha":504,"x_min":60,"x_max":489,"o":"m 347 0 l 206 399 l 360 688 l 489 688 l 331 397 l 489 0 l 347 0 m 60 0 l 60 879 l 190 879 l 190 0 l 60 0 z "},"к":{"ha":529,"x_min":50,"x_max":494,"o":"m 50 0 l 50 688 l 182 688 l 182 425 q 272 559 219 501 q 383 647 325 617 q 494 674 442 678 l 494 588 q 432 560 460 579 q 382 517 404 542 q 354 483 367 501 q 331 446 342 465 l 492 0 l 340 0 l 217 303 q 197 267 207 286 q 182 236 188 247 l 182 0 l 50 0 z "},"ķ":{"ha":504,"x_min":60,"x_max":489,"o":"m 347 0 l 206 399 l 360 688 l 489 688 l 331 397 l 489 0 l 347 0 m 60 0 l 60 879 l 190 879 l 190 0 l 60 0 m 193 -249 q 223 -197 211 -221 q 235 -157 235 -172 q 226 -140 235 -147 q 209 -124 218 -133 q 200 -99 200 -115 q 217 -66 200 -81 q 258 -51 233 -51 q 303 -67 286 -51 q 321 -107 321 -83 q 309 -151 321 -125 q 281 -202 297 -176 q 247 -249 265 -228 l 193 -249 z "},"ќ":{"ha":529,"x_min":50,"x_max":494,"o":"m 50 0 l 50 688 l 182 688 l 182 425 q 272 559 219 501 q 383 647 325 617 q 494 674 442 678 l 494 588 q 432 560 460 579 q 382 517 404 542 q 354 483 367 501 q 331 446 342 465 l 492 0 l 340 0 l 217 303 q 197 267 207 286 q 182 236 188 247 l 182 0 l 50 0 m 201 760 l 281 894 l 410 894 l 283 760 l 201 760 z "},"l":{"ha":250,"x_min":60,"x_max":190,"o":"m 60 0 l 60 879 l 190 879 l 190 0 l 60 0 z "},"ĺ":{"ha":250,"x_min":49,"x_max":282,"o":"m 60 0 l 60 879 l 190 879 l 190 0 l 60 0 m 49 935 l 158 1060 l 282 1060 l 125 935 l 49 935 z "},"ľ":{"ha":331,"x_min":60,"x_max":346,"o":"m 60 0 l 60 879 l 190 879 l 190 0 l 60 0 m 233 708 l 264 901 l 346 901 l 282 708 l 233 708 z "},"ļ":{"ha":250,"x_min":58,"x_max":190,"o":"m 60 0 l 60 879 l 190 879 l 190 0 l 60 0 m 58 -249 q 88 -197 76 -221 q 100 -157 100 -172 q 92 -140 100 -147 q 74 -124 83 -133 q 65 -99 65 -115 q 82 -66 65 -81 q 124 -51 99 -51 q 169 -67 151 -51 q 186 -107 186 -83 q 174 -151 186 -125 q 147 -202 163 -176 q 113 -249 131 -228 l 58 -249 z "},"←":{"ha":1114,"x_min":54,"x_max":1057,"o":"m 417 58 l 54 367 l 417 679 l 481 615 l 276 422 l 1057 418 l 1057 314 l 279 317 l 479 122 l 417 58 z "},"↔":{"ha":1385,"x_min":53,"x_max":1329,"o":"m 418 85 l 53 393 l 418 704 l 482 640 l 279 447 l 1104 447 l 901 640 l 965 704 l 1329 393 l 965 85 l 901 147 l 1101 340 l 282 340 l 482 147 l 418 85 z "},"<":{"ha":457,"x_min":61,"x_max":396,"o":"m 396 189 l 61 417 l 61 494 l 396 722 l 396 600 l 171 454 l 396 308 l 396 189 z "},"≤":{"ha":446,"x_min":56,"x_max":392,"o":"m 390 189 l 56 417 l 56 494 l 390 722 l 390 604 l 165 457 l 390 311 l 390 189 m 392 -4 l 65 -4 l 65 85 l 392 85 l 392 -4 z "},"љ":{"ha":871,"x_min":21,"x_max":819,"o":"m 21 0 l 21 69 q 68 99 47 69 q 92 175 89 128 l 136 688 l 531 688 l 531 472 l 658 472 q 747 456 711 472 q 801 402 783 439 q 819 304 819 365 l 819 226 q 810 117 819 161 q 778 48 800 74 q 723 11 757 22 q 640 0 689 0 l 397 0 l 397 593 l 268 593 l 225 139 q 219 95 222 119 q 203 49 215 71 q 168 14 192 28 q 101 0 144 0 l 21 0 m 531 69 l 611 69 q 663 83 646 69 q 684 119 679 96 q 689 174 689 143 l 689 283 q 685 338 689 314 q 664 376 681 363 q 611 390 647 390 l 531 390 l 531 69 z "},"¬":{"ha":775,"x_min":60,"x_max":721,"o":"m 633 207 l 633 468 l 60 468 l 60 564 l 721 564 l 721 207 l 633 207 z "},"ſ":{"ha":499,"x_min":10,"x_max":461,"o":"m 122 -200 q 65 -199 94 -201 q 10 -193 35 -197 l 10 -124 l 51 -125 q 78 -124 65 -126 q 104 -119 92 -122 q 138 -94 128 -114 q 149 -54 149 -75 l 149 532 l 97 532 l 97 611 l 149 611 l 149 733 q 172 825 149 793 q 235 868 194 857 q 326 879 276 879 q 397 874 363 879 q 461 861 431 868 l 449 785 q 393 797 419 793 q 335 800 367 800 q 292 772 303 800 q 281 714 281 743 l 281 -7 q 260 -115 281 -74 q 205 -177 240 -157 q 122 -200 169 -197 z "},"◊":{"ha":667,"x_min":54,"x_max":613,"o":"m 288 -47 l 54 406 l 288 857 l 379 857 l 613 406 l 379 -47 l 288 -47 m 333 76 l 494 408 l 335 733 l 172 406 l 333 76 z "},"ł":{"ha":397,"x_min":43,"x_max":354,"o":"m 132 0 l 132 235 l 43 194 l 43 257 l 132 296 l 132 879 l 261 879 l 261 354 l 354 396 l 354 336 l 261 293 l 261 0 l 132 0 z "},"m":{"ha":796,"x_min":60,"x_max":747,"o":"m 60 0 l 60 688 l 171 688 l 182 606 q 233 672 197 647 q 317 697 268 697 q 429 664 396 697 q 465 567 463 631 l 449 567 q 498 660 458 624 q 596 697 538 697 q 716 655 685 697 q 747 528 747 613 l 747 0 l 617 0 l 617 515 q 601 585 617 565 q 549 604 585 604 q 494 586 517 604 q 468 540 472 568 l 468 0 l 338 0 l 338 521 q 323 585 338 565 q 269 604 308 604 q 219 589 238 604 q 190 553 200 574 l 190 0 l 60 0 z "},"¯":{"ha":303,"x_min":14,"x_max":289,"o":"m 14 782 l 14 849 l 289 849 l 289 782 l 14 782 z "},"̄":{"ha":0,"x_min":14,"x_max":289,"o":"m 14 782 l 14 849 l 289 849 l 289 782 l 14 782 z "},"µ":{"ha":521,"x_min":54,"x_max":467,"o":"m 54 -179 l 54 688 l 185 688 l 185 135 q 213 96 193 110 q 264 82 233 82 q 302 89 286 82 q 327 115 318 96 q 336 172 336 135 l 336 688 l 467 688 l 467 172 q 454 70 467 111 q 408 10 442 29 q 311 -10 375 -10 q 230 13 268 -10 q 176 79 192 36 l 165 -179 l 54 -179 z "},"−":{"ha":703,"x_min":85,"x_max":556,"o":"m 85 310 l 85 401 l 556 401 l 556 310 l 85 310 z "},"×":{"ha":526,"x_min":54,"x_max":472,"o":"m 407 154 l 263 297 l 125 161 l 58 226 l 197 364 l 54 506 l 121 572 l 263 429 l 401 569 l 467 503 l 329 364 l 472 219 l 407 154 z "},"n":{"ha":524,"x_min":60,"x_max":474,"o":"m 60 0 l 60 688 l 169 688 l 182 608 q 233 674 196 651 q 315 697 271 697 q 417 674 383 697 q 463 609 451 650 q 474 515 474 568 l 474 0 l 343 0 l 343 506 q 342 543 343 525 q 333 575 340 561 q 311 597 326 589 q 267 606 296 606 q 227 597 243 606 q 203 576 211 588 q 190 553 194 564 l 190 0 l 60 0 z "},"ń":{"ha":524,"x_min":60,"x_max":474,"o":"m 60 0 l 60 688 l 169 688 l 182 608 q 233 674 196 651 q 315 697 271 697 q 417 674 383 697 q 463 609 451 650 q 474 515 474 568 l 474 0 l 343 0 l 343 506 q 342 543 343 525 q 333 575 340 561 q 311 597 326 589 q 267 606 296 606 q 227 597 243 606 q 203 576 211 588 q 190 553 194 564 l 190 0 l 60 0 m 200 760 l 279 894 l 408 894 l 282 760 l 200 760 z "},"ň":{"ha":524,"x_min":60,"x_max":474,"o":"m 60 0 l 60 688 l 169 688 l 182 608 q 233 674 196 651 q 315 697 271 697 q 417 674 383 697 q 463 609 451 650 q 474 515 474 568 l 474 0 l 343 0 l 343 506 q 342 543 343 525 q 333 575 340 561 q 311 597 326 589 q 267 606 296 606 q 227 597 243 606 q 203 576 211 588 q 190 553 194 564 l 190 0 l 60 0 m 224 758 l 94 897 l 176 897 l 263 817 l 350 897 l 429 897 l 300 758 l 224 758 z "},"ņ":{"ha":524,"x_min":60,"x_max":474,"o":"m 60 0 l 60 688 l 169 688 l 182 608 q 233 674 196 651 q 315 697 271 697 q 417 674 383 697 q 463 609 451 650 q 474 515 474 568 l 474 0 l 343 0 l 343 506 q 342 543 343 525 q 333 575 340 561 q 311 597 326 589 q 267 606 296 606 q 227 597 243 606 q 203 576 211 588 q 190 553 194 564 l 190 0 l 60 0 m 197 -249 q 227 -197 215 -221 q 239 -157 239 -172 q 231 -140 239 -147 q 213 -124 222 -133 q 204 -99 204 -115 q 221 -66 204 -81 q 263 -51 238 -51 q 308 -67 290 -51 q 325 -107 325 -83 q 313 -151 325 -125 q 285 -202 301 -176 q 251 -249 269 -228 l 197 -249 z "},"њ":{"ha":811,"x_min":50,"x_max":761,"o":"m 50 0 l 50 688 l 181 688 l 181 408 l 342 408 l 342 688 l 471 688 l 471 472 l 599 472 q 688 456 651 472 q 742 402 724 439 q 761 304 761 365 l 761 226 q 751 117 761 161 q 719 48 740 74 q 663 11 697 22 q 581 0 629 0 l 342 0 l 342 308 l 181 308 l 181 0 l 50 0 m 471 69 l 553 69 q 603 83 588 69 q 625 119 619 96 q 631 174 631 143 l 631 283 q 626 338 631 314 q 606 376 622 363 q 551 390 589 390 l 471 390 l 471 69 z "},"↗":{"ha":807,"x_min":22,"x_max":769,"o":"m 96 93 l 22 168 l 574 717 l 294 714 l 294 801 l 769 839 l 733 364 l 643 364 l 650 643 l 96 93 z "},"↖":{"ha":836,"x_min":63,"x_max":808,"o":"m 735 74 l 186 625 l 190 346 l 100 346 l 63 821 l 539 785 l 539 694 l 258 701 l 808 146 l 735 74 z "},"≠":{"ha":574,"x_min":58,"x_max":518,"o":"m 58 -19 l 175 200 l 86 200 l 86 292 l 225 292 l 328 488 l 86 488 l 86 578 l 378 578 l 454 724 l 518 724 l 440 578 l 517 578 l 517 488 l 390 488 l 286 292 l 517 292 l 517 200 l 238 200 l 119 -19 l 58 -19 z "},"ñ":{"ha":524,"x_min":60,"x_max":474,"o":"m 60 0 l 60 688 l 169 688 l 182 608 q 233 674 196 651 q 315 697 271 697 q 417 674 383 697 q 463 609 451 650 q 474 515 474 568 l 474 0 l 343 0 l 343 506 q 342 543 343 525 q 333 575 340 561 q 311 597 326 589 q 267 606 296 606 q 227 597 243 606 q 203 576 211 588 q 190 553 194 564 l 190 0 l 60 0 m 325 767 q 288 774 304 767 q 253 793 272 781 q 225 809 240 801 q 193 817 210 817 q 165 804 176 817 q 151 768 154 792 l 110 768 q 134 848 111 817 q 194 879 157 879 q 233 872 215 879 q 268 853 251 864 q 297 838 283 844 q 325 831 311 831 q 356 843 346 831 q 369 876 365 856 l 415 876 q 401 817 414 842 q 367 779 388 792 q 325 767 347 767 z "},"#":{"ha":985,"x_min":50,"x_max":935,"o":"m 176 0 l 256 249 l 50 249 l 76 329 l 281 329 l 342 522 l 135 524 l 160 603 l 368 603 l 428 797 l 511 797 l 450 603 l 651 603 l 711 797 l 796 797 l 735 603 l 935 603 l 908 522 l 708 522 l 649 329 l 850 329 l 825 249 l 624 249 l 544 0 l 461 0 l 540 249 l 339 249 l 260 0 l 176 0 m 364 329 l 565 329 l 625 522 l 424 522 l 364 329 z "},"o":{"ha":506,"x_min":47,"x_max":460,"o":"m 254 -11 q 132 10 178 -11 q 67 80 86 32 q 47 207 47 128 l 47 510 q 66 613 47 571 q 131 676 85 654 q 254 699 176 699 q 376 676 332 699 q 440 613 421 654 q 460 510 460 571 l 460 207 q 440 80 460 128 q 374 10 419 32 q 254 -11 329 -11 m 254 68 q 303 81 288 68 q 324 117 319 94 q 329 167 329 140 l 329 521 q 324 571 329 549 q 303 607 319 593 q 254 621 288 621 q 203 607 219 621 q 182 571 186 593 q 178 521 178 549 l 178 167 q 182 117 178 140 q 203 81 186 94 q 254 68 219 68 z "},"о":{"ha":506,"x_min":47,"x_max":460,"o":"m 254 -11 q 132 10 178 -11 q 67 80 86 32 q 47 207 47 128 l 47 510 q 66 613 47 571 q 131 676 85 654 q 254 699 176 699 q 376 676 332 699 q 440 613 421 654 q 460 510 460 571 l 460 207 q 440 80 460 128 q 374 10 419 32 q 254 -11 329 -11 m 254 68 q 303 81 288 68 q 324 117 319 94 q 329 167 329 140 l 329 521 q 324 571 329 549 q 303 607 319 593 q 254 621 288 621 q 203 607 219 621 q 182 571 186 593 q 178 521 178 549 l 178 167 q 182 117 178 140 q 203 81 186 94 q 254 68 219 68 z "},"ó":{"ha":506,"x_min":47,"x_max":460,"o":"m 254 -11 q 132 10 178 -11 q 67 80 86 32 q 47 207 47 128 l 47 510 q 66 613 47 571 q 131 676 85 654 q 254 699 176 699 q 376 676 332 699 q 440 613 421 654 q 460 510 460 571 l 460 207 q 440 80 460 128 q 374 10 419 32 q 254 -11 329 -11 m 254 68 q 303 81 288 68 q 324 117 319 94 q 329 167 329 140 l 329 521 q 324 571 329 549 q 303 607 319 593 q 254 621 288 621 q 203 607 219 621 q 182 571 186 593 q 178 521 178 549 l 178 167 q 182 117 178 140 q 203 81 186 94 q 254 68 219 68 m 190 760 l 269 894 l 399 894 l 272 760 l 190 760 z "},"ǒ":{"ha":506,"x_min":47,"x_max":460,"o":"m 254 -11 q 132 10 178 -11 q 67 80 86 32 q 47 207 47 128 l 47 510 q 66 613 47 571 q 131 676 85 654 q 254 699 176 699 q 376 676 332 699 q 440 613 421 654 q 460 510 460 571 l 460 207 q 440 80 460 128 q 374 10 419 32 q 254 -11 329 -11 m 254 68 q 303 81 288 68 q 324 117 319 94 q 329 167 329 140 l 329 521 q 324 571 329 549 q 303 607 319 593 q 254 621 288 621 q 203 607 219 621 q 182 571 186 593 q 178 521 178 549 l 178 167 q 182 117 178 140 q 203 81 186 94 q 254 68 219 68 m 214 758 l 85 897 l 167 897 l 253 817 l 340 897 l 419 897 l 290 758 l 214 758 z "},"ô":{"ha":506,"x_min":47,"x_max":460,"o":"m 254 -11 q 132 10 178 -11 q 67 80 86 32 q 47 207 47 128 l 47 510 q 66 613 47 571 q 131 676 85 654 q 254 699 176 699 q 376 676 332 699 q 440 613 421 654 q 460 510 460 571 l 460 207 q 440 80 460 128 q 374 10 419 32 q 254 -11 329 -11 m 254 68 q 303 81 288 68 q 324 117 319 94 q 329 167 329 140 l 329 521 q 324 571 329 549 q 303 607 319 593 q 254 621 288 621 q 203 607 219 621 q 182 571 186 593 q 178 521 178 549 l 178 167 q 182 117 178 140 q 203 81 186 94 q 254 68 219 68 m 85 758 l 213 897 l 290 897 l 419 758 l 340 758 l 253 839 l 167 758 l 85 758 z "},"ố":{"ha":506,"x_min":47,"x_max":621,"o":"m 254 -11 q 132 10 178 -11 q 67 80 86 32 q 47 207 47 128 l 47 510 q 66 613 47 571 q 131 676 85 654 q 254 699 176 699 q 376 676 332 699 q 440 613 421 654 q 460 510 460 571 l 460 207 q 440 80 460 128 q 374 10 419 32 q 254 -11 329 -11 m 254 68 q 303 81 288 68 q 324 117 319 94 q 329 167 329 140 l 329 521 q 324 571 329 549 q 303 607 319 593 q 254 621 288 621 q 203 607 219 621 q 182 571 186 593 q 178 521 178 549 l 178 167 q 182 117 178 140 q 203 81 186 94 q 254 68 219 68 m 85 758 l 213 897 l 290 897 l 419 758 l 340 758 l 253 839 l 167 758 l 85 758 m 414 835 l 493 969 l 622 969 l 496 835 l 414 835 z "},"ộ":{"ha":506,"x_min":47,"x_max":460,"o":"m 254 -11 q 132 10 178 -11 q 67 80 86 32 q 47 207 47 128 l 47 510 q 66 613 47 571 q 131 676 85 654 q 254 699 176 699 q 376 676 332 699 q 440 613 421 654 q 460 510 460 571 l 460 207 q 440 80 460 128 q 374 10 419 32 q 254 -11 329 -11 m 254 68 q 303 81 288 68 q 324 117 319 94 q 329 167 329 140 l 329 521 q 324 571 329 549 q 303 607 319 593 q 254 621 288 621 q 203 607 219 621 q 182 571 186 593 q 178 521 178 549 l 178 167 q 182 117 178 140 q 203 81 186 94 q 254 68 219 68 m 253 -168 q 211 -151 228 -168 q 194 -112 194 -135 q 211 -72 194 -89 q 253 -56 228 -56 q 295 -72 278 -56 q 313 -112 313 -89 q 295 -151 313 -135 q 253 -168 278 -168 m 85 758 l 213 897 l 290 897 l 419 758 l 340 758 l 253 839 l 167 758 l 85 758 z "},"ồ":{"ha":506,"x_min":47,"x_max":544,"o":"m 254 -11 q 132 10 178 -11 q 67 80 86 32 q 47 207 47 128 l 47 510 q 66 613 47 571 q 131 676 85 654 q 254 699 176 699 q 376 676 332 699 q 440 613 421 654 q 460 510 460 571 l 460 207 q 440 80 460 128 q 374 10 419 32 q 254 -11 329 -11 m 254 68 q 303 81 288 68 q 324 117 319 94 q 329 167 329 140 l 329 521 q 324 571 329 549 q 303 607 319 593 q 254 621 288 621 q 203 607 219 621 q 182 571 186 593 q 178 521 178 549 l 178 167 q 182 117 178 140 q 203 81 186 94 q 254 68 219 68 m 85 758 l 213 897 l 290 897 l 419 758 l 340 758 l 253 839 l 167 758 l 85 758 m 463 835 l 338 969 l 465 969 l 546 835 l 463 835 z "},"ổ":{"ha":506,"x_min":47,"x_max":576,"o":"m 254 -11 q 132 10 178 -11 q 67 80 86 32 q 47 207 47 128 l 47 510 q 66 613 47 571 q 131 676 85 654 q 254 699 176 699 q 376 676 332 699 q 440 613 421 654 q 460 510 460 571 l 460 207 q 440 80 460 128 q 374 10 419 32 q 254 -11 329 -11 m 254 68 q 303 81 288 68 q 324 117 319 94 q 329 167 329 140 l 329 521 q 324 571 329 549 q 303 607 319 593 q 254 621 288 621 q 203 607 219 621 q 182 571 186 593 q 178 521 178 549 l 178 167 q 182 117 178 140 q 203 81 186 94 q 254 68 219 68 m 85 758 l 213 897 l 290 897 l 419 758 l 340 758 l 253 839 l 167 758 l 85 758 m 440 836 l 440 856 q 456 885 440 875 q 486 906 471 896 q 501 932 501 915 l 501 939 q 494 963 501 951 q 469 974 488 974 q 442 942 446 974 l 381 951 q 408 1004 385 986 q 476 1022 432 1022 q 552 1006 526 1022 q 578 942 578 990 l 578 936 q 561 894 578 906 q 528 875 544 882 q 511 851 511 868 l 511 836 l 440 836 z "},"ỗ":{"ha":506,"x_min":47,"x_max":460,"o":"m 254 -11 q 132 10 178 -11 q 67 80 86 32 q 47 207 47 128 l 47 510 q 66 613 47 571 q 131 676 85 654 q 254 699 176 699 q 376 676 332 699 q 440 613 421 654 q 460 510 460 571 l 460 207 q 440 80 460 128 q 374 10 419 32 q 254 -11 329 -11 m 254 68 q 303 81 288 68 q 324 117 319 94 q 329 167 329 140 l 329 521 q 324 571 329 549 q 303 607 319 593 q 254 621 288 621 q 203 607 219 621 q 182 571 186 593 q 178 521 178 549 l 178 167 q 182 117 178 140 q 203 81 186 94 q 254 68 219 68 m 85 758 l 213 897 l 290 897 l 419 758 l 340 758 l 253 839 l 167 758 l 85 758 m 315 929 q 278 936 294 929 q 243 956 263 943 q 215 972 231 964 q 183 979 200 979 q 156 967 167 979 q 142 931 144 954 l 100 931 q 124 1010 101 979 q 185 1042 147 1042 q 224 1034 206 1042 q 258 1015 242 1026 q 288 1000 274 1007 q 315 993 301 993 q 346 1006 336 993 q 360 1039 356 1018 l 406 1039 q 391 979 404 1004 q 358 942 378 954 q 315 929 338 929 z "},"ö":{"ha":506,"x_min":47,"x_max":460,"o":"m 254 -11 q 132 10 178 -11 q 67 80 86 32 q 47 207 47 128 l 47 510 q 66 613 47 571 q 131 676 85 654 q 254 699 176 699 q 376 676 332 699 q 440 613 421 654 q 460 510 460 571 l 460 207 q 440 80 460 128 q 374 10 419 32 q 254 -11 329 -11 m 254 68 q 303 81 288 68 q 324 117 319 94 q 329 167 329 140 l 329 521 q 324 571 329 549 q 303 607 319 593 q 254 621 288 621 q 203 607 219 621 q 182 571 186 593 q 178 521 178 549 l 178 167 q 182 117 178 140 q 203 81 186 94 q 254 68 219 68 m 176 765 q 135 782 151 765 q 118 822 118 799 q 135 862 118 846 q 176 878 151 878 q 217 862 201 878 q 233 822 233 846 q 217 782 233 799 q 176 765 201 765 m 331 765 q 289 782 306 765 q 272 822 272 799 q 289 862 272 846 q 331 878 306 878 q 372 862 356 878 q 389 822 389 846 q 372 782 389 799 q 331 765 356 765 z "}}}
